SplineFontDB: 1.0
FontName: DBThaiText-BoldOblique
FullName: DBThaiText Bold Oblique
FamilyName: DBThaiText
Weight: Bold
Copyright: Typeface (c) The Monotype Corporation plc. Data (c) The Monotype Corporation plc/Type Solutions Inc. 1990-1992. All Rights Reserved\n\nModified by TLWG
Version: 2.0 : Dec 10, 2003
ItalicAngle: -12
UnderlinePosition: -50
UnderlineWidth: 60
Ascent: 800
Descent: 200
NeedsXUIDChange: 1
FSType: 0
PfmFamily: 33
TTFWeight: 700
TTFWidth: 5
Panose: 2 0 8 3 0 0 0 0 0 0
LineGap: 184
VLineGap: 0
ScriptLang: 2
 1 latn 1 dflt 
 1 thai 1 dflt 
LangName: 1033 "" "" "" "PfaEdit : DBThaiTextBold : 13-0-2003" 
Encoding: custom
UnicodeInterp: none
DisplaySize: -72
AntiAlias: 1
FitToEm: 1
WinInfo: 208 8 2
BeginPrivate: 3
BlueValues 31 [-31 0 726 753 786 805 959 976]
OtherBlues 11 [-260 -260]
ForceBold 4 true
EndPrivate
BeginChars: 293 258
StartChar: .notdef
Encoding: 0 -1 0
Width: 601
VWidth: 2048
Flags: HW
HStem: -32 79<123 522> 962 79<43 442>
VStem: 43 80<-32 962> 442 80<47 1041>
Fore
36 -32 m 1
 264 1041 l 1
 743 1041 l 1
 515 -32 l 1
 36 -32 l 1
133 47 m 1
 452 47 l 1
 646 962 l 1
 327 962 l 1
 133 47 l 1
EndSplineSet
EndChar
StartChar: exclam
Encoding: 33 33 3
Width: 213
Flags: HW
HStem: 0 94<72 168> 446 23<72 168 168 168>
VStem: 72 96<0 94 333 469>
Fore
125 133 m 1
 143 333 l 1
 172 469 l 1
 268 469 l 1
 239 333 l 1
 168 133 l 1
 125 133 l 1
92 94 m 1
 188 94 l 1
 168 0 l 1
 72 0 l 1
 92 94 l 1
EndSplineSet
EndChar
StartChar: quotedbl
Encoding: 34 34 4
Width: 303
VWidth: 2048
Flags: HW
HStem: 459 10G<30 126 174 271>
Fore
119 303 m 1
 113 392 l 1
 129 468 l 1
 225 468 l 1
 209 392 l 1
 162 303 l 1
 119 303 l 1
263 303 m 1
 257 392 l 1
 273 468 l 1
 370 468 l 5
 354 392 l 1
 306 303 l 1
 263 303 l 1
EndSplineSet
EndChar
StartChar: numbersign
Encoding: 35 35 5
Width: 357
Flags: HW
HStem: -19 23 92 73<2 60 142 193 277 338> 244 73
VStem: 2 353
Fore
224 447 m 1
 292 447 l 1
 239 316 l 1
 304 318 l 1
 356 447 l 1
 424 447 l 1
 371 316 l 1
 422 316 l 1
 407 244 l 1
 345 244 l 1
 312 165 l 1
 373 165 l 1
 358 92 l 1
 281 92 l 1
 237 -19 l 1
 168 -19 l 1
 213 92 l 1
 149 92 l 1
 103 -19 l 1
 36 -19 l 1
 80 92 l 1
 22 92 l 1
 37 165 l 1
 110 165 l 1
 142 244 l 1
 80 244 l 1
 95 316 l 1
 171 316 l 1
 224 447 l 1
210 244 m 1
 177 165 l 1
 243 165 l 1
 277 244 l 1
 210 244 l 1
EndSplineSet
EndChar
StartChar: dollar
Encoding: 36 36 6
Width: 357
Flags: HW
VStem: 157 42<-14 -14 56 182 276 390 457 492>
Fore
401 321 m 1
 318 321 l 1
 320 328 320 334 320 340 c 0
 320 352 317 362 312 370 c 0
 301 381 291 388 282 390 c 1
 255 262 l 1
 296 251 327 235 348 215 c 0
 361 200 369 181 369 158 c 0
 369 150 368 141 366 132 c 0
 360 103 349 79 335 61 c 0
 321 42 307 28 290 19 c 0
 273 9 257 1 240 -2 c 0
 222 -7 207 -10 196 -12 c 1
 182 -80 l 1
 139 -80 l 1
 154 -14 l 1
 146 -12 139 -11 132 -10 c 0
 125 -9 117 -6 107 -2 c 0
 96 1 87 5 80 10 c 0
 73 16 65 23 57 33 c 0
 44 50 39 70 39 94 c 0
 39 106 40 119 43 133 c 1
 127 133 l 1
 127 126 126 120 126 114 c 0
 126 106 127 99 128 93 c 0
 130 82 134 75 138 70 c 0
 143 66 147 62 154 60 c 0
 159 56 165 55 168 54 c 1
 199 198 l 1
 165 205 136 218 117 238 c 0
 101 254 92 274 92 298 c 0
 92 306 93 314 95 323 c 0
 102 362 121 393 150 417 c 0
 178 441 211 453 254 457 c 1
 262 492 l 1
 304 492 l 1
 296 457 l 1
 367 452 403 417 403 351 c 0
 403 342 403 332 401 321 c 1
216 276 m 1
 240 392 l 1
 206 386 185 365 176 330 c 1
 176 328 176 327 176 325 c 0
 176 318 177 312 178 306 c 0
 180 299 183 294 190 289 c 0
 197 284 206 279 216 276 c 1
238 182 m 1
 211 56 l 1
 214 58 220 60 225 62 c 0
 233 64 240 68 247 71 c 0
 253 75 259 79 264 86 c 0
 270 93 273 101 277 111 c 0
 278 118 279 124 279 130 c 0
 279 156 266 174 238 182 c 1
EndSplineSet
EndChar
StartChar: percent
Encoding: 37 37 7
Width: 571
Flags: HW
HStem: -8 461
VStem: 14 236<318 351> 320 235<93 125>
Fore
181 -11 m 1
 130 -11 l 1
 487 455 l 1
 537 455 l 1
 181 -11 l 1
343 110 m 0
 350 141 367 168 395 192 c 0
 422 216 453 227 485 227 c 0
 518 227 542 216 561 192 c 0
 575 175 581 157 581 136 c 0
 581 128 580 119 578 110 c 0
 571 77 554 49 526 26 c 0
 497 3 467 -8 435 -8 c 0
 403 -8 377 2 360 26 c 0
 346 43 340 62 340 83 c 0
 340 92 341 101 343 110 c 0
85 334 m 0
 92 367 109 394 138 418 c 0
 166 442 195 453 228 453 c 0
 261 453 286 442 304 418 c 0
 317 401 324 381 324 360 c 0
 324 352 323 343 321 334 c 0
 314 302 296 273 268 251 c 0
 240 228 211 217 178 217 c 0
 145 217 120 228 102 251 c 0
 88 267 82 286 82 307 c 0
 82 316 83 325 85 334 c 0
407 110 m 0
 406 106 406 102 406 99 c 0
 406 88 409 79 415 71 c 0
 423 61 435 55 449 55 c 0
 464 55 479 61 491 71 c 0
 503 82 510 95 513 110 c 0
 514 114 514 118 514 122 c 0
 514 131 512 140 506 147 c 0
 497 157 487 163 472 163 c 0
 458 163 443 157 431 147 c 0
 419 137 410 124 407 110 c 0
149 334 m 0
 148 330 148 327 148 324 c 0
 148 314 151 304 157 297 c 0
 165 287 178 281 192 281 c 0
 207 281 220 287 233 297 c 0
 245 307 253 320 256 334 c 0
 257 339 258 344 258 349 c 0
 258 358 255 367 250 374 c 0
 242 384 230 389 215 389 c 0
 201 389 186 384 173 374 c 0
 161 363 152 349 149 334 c 0
EndSplineSet
EndChar
StartChar: ampersand
Encoding: 38 38 8
Width: 463
Flags: HW
HStem: 0 241<342 411 342 342> 446 23<194 221>
VStem: 35 411
Fore
388 241 m 1
 462 241 l 1
 457 217 448 192 434 167 c 0
 421 142 405 121 386 104 c 1
 446 0 l 1
 342 0 l 1
 320 40 l 1
 295 23 274 9 258 1 c 0
 241 -7 216 -12 187 -12 c 0
 184 -12 181 -12 179 -12 c 0
 140 -12 109 1 85 23 c 0
 67 40 57 62 57 90 c 0
 57 100 59 111 61 123 c 0
 62 125 64 134 69 151 c 0
 78 172 89 189 103 203 c 0
 117 217 132 228 148 236 c 0
 164 244 178 252 191 259 c 1
 182 270 177 279 172 287 c 0
 167 295 163 305 161 318 c 0
 159 324 158 331 158 338 c 0
 158 343 159 350 160 356 c 0
 163 371 169 386 180 401 c 0
 194 423 213 440 235 452 c 0
 257 463 282 469 307 469 c 0
 335 469 357 463 375 449 c 0
 393 435 401 415 401 391 c 0
 400 381 399 373 398 366 c 0
 392 340 381 320 365 303 c 0
 348 286 326 270 299 253 c 1
 349 166 l 1
 358 172 365 181 372 193 c 0
 381 206 385 218 387 228 c 0
 388 232 388 236 388 241 c 1
254 329 m 2
 270 304 l 1
 277 308 285 312 291 315 c 0
 296 319 301 322 306 328 c 0
 311 333 315 341 319 351 c 0
 320 358 321 364 321 370 c 0
 321 375 320 380 319 384 c 0
 317 392 308 397 291 397 c 0
 269 397 256 389 249 374 c 1
 248 368 247 362 247 356 c 0
 247 347 249 337 254 329 c 2
284 98 m 1
 221 205 l 1
 197 191 180 182 170 176 c 0
 158 167 151 154 147 136 c 0
 146 131 145 126 145 121 c 0
 145 105 151 90 163 77 c 0
 173 67 186 61 201 61 c 0
 222 61 251 73 284 98 c 1
EndSplineSet
EndChar
StartChar: quotesingle
Encoding: 39 39 9
Width: 143
VWidth: 2048
Flags: HW
HStem: 459 10G<30 126>
Fore
119 303 m 1
 113 392 l 1
 129 468 l 1
 225 468 l 1
 209 392 l 1
 162 303 l 1
 119 303 l 1
EndSplineSet
EndChar
StartChar: parenleft
Encoding: 40 40 10
Width: 213
Flags: HW
HStem: 446 23<130 194 194 194>
VStem: 26 168
Fore
230 469 m 1
 294 469 l 1
 258 423 228 377 202 332 c 0
 175 286 157 242 148 198 c 0
 145 185 143 175 143 170 c 0
 138 137 135 103 135 69 c 0
 135 49 136 29 138 9 c 0
 141 -46 151 -93 166 -130 c 1
 102 -130 l 1
 88 -90 79 -64 74 -50 c 0
 70 -35 65 -16 61 9 c 0
 57 33 55 58 54 82 c 0
 55 107 56 137 62 170 c 0
 69 200 78 231 91 260 c 0
 103 289 118 316 133 341 c 0
 149 366 163 388 178 405 c 0
 191 421 208 443 230 469 c 1
EndSplineSet
EndChar
StartChar: parenright
Encoding: 41 41 11
Width: 213
Flags: HW
HStem: 446 23<15 78 78 78>
VStem: 102 81<169 170>
Fore
115 469 m 1
 178 469 l 1
 200 418 215 371 225 327 c 0
 229 308 231 287 231 266 c 0
 231 236 227 204 219 170 c 0
 205 110 185 60 160 19 c 0
 135 -21 98 -71 50 -130 c 1
 -13 -130 l 1
 18 -93 49 -46 77 9 c 0
 103 63 124 116 138 170 c 0
 140 175 142 184 144 195 c 0
 150 219 152 242 153 266 c 0
 153 288 150 312 148 337 c 0
 144 363 141 385 135 405 c 0
 130 424 123 445 115 469 c 1
EndSplineSet
EndChar
StartChar: asterisk
Encoding: 42 42 12
Width: 249
Flags: HW
HStem: 446 23<97 147 147 147>
VStem: 97 50<390 469>
Fore
130 247 m 1
 95 282 l 1
 158 345 l 1
 94 370 l 1
 120 415 l 1
 180 390 l 1
 197 469 l 1
 247 469 l 1
 230 390 l 1
 300 415 l 1
 308 370 l 1
 232 345 l 1
 269 282 l 1
 221 247 l 1
 186 310 l 1
 130 247 l 1
EndSplineSet
EndChar
StartChar: plus
Encoding: 43 43 13
Width: 375
Flags: HW
HStem: 191 77<32 149 226 344>
VStem: 149 77<73 191 268 385>
Fore
231 385 m 5
 308 385 l 5
 283 268 l 5
 401 268 l 5
 385 191 l 5
 267 191 l 5
 242 73 l 5
 165 73 l 5
 190 191 l 5
 73 191 l 5
 89 268 l 5
 206 268 l 5
 231 385 l 5
EndSplineSet
EndChar
StartChar: comma
Encoding: 44 44 14
Width: 220
Flags: HW
VStem: 64 105
Fore
180 49 m 0
 175 18 157 -8 132 -27 c 0
 106 -47 83 -59 62 -61 c 1
 57 -45 l 1
 73 -37 86 -31 96 -24 c 0
 106 -17 114 -6 120 9 c 1
 107 9 97 12 86 19 c 0
 79 25 75 33 75 47 c 0
 75 50 76 54 76 58 c 0
 79 71 86 82 97 93 c 0
 107 102 119 106 133 106 c 0
 153 106 166 101 173 90 c 0
 179 83 182 74 182 63 c 0
 182 59 181 54 180 49 c 0
EndSplineSet
EndChar
StartChar: hyphen
Encoding: 45 45 15
Width: 213
Flags: HW
HStem: 133 88<17 192>
VStem: 17 175<133 221>
Fore
64 221 m 1
 239 221 l 1
 220 133 l 1
 45 133 l 1
 64 221 l 1
EndSplineSet
EndChar
StartChar: period
Encoding: 46 46 16
Width: 160
Flags: HW
HStem: 0 23
VStem: 31 94<41 54>
Fore
78 0 m 0
 63 0 52 5 46 14 c 0
 42 20 40 27 40 36 c 0
 40 39 40 43 41 47 c 0
 44 60 50 71 60 80 c 0
 70 89 83 94 98 94 c 0
 113 94 123 89 129 80 c 0
 133 74 135 68 135 59 c 0
 135 55 135 51 134 47 c 0
 131 34 125 23 115 14 c 0
 105 5 93 0 78 0 c 0
EndSplineSet
EndChar
StartChar: slash
Encoding: 47 47 17
Width: 178
Flags: HW
HStem: -9 23
VStem: 1 175
Fore
235 460 m 1
 274 460 l 1
 40 -9 l 1
 -1 -9 l 1
 235 460 l 1
EndSplineSet
EndChar
StartChar: zero
Encoding: 48 48 18
Width: 357
Flags: HW
HStem: -15 82<164 189>
VStem: 19 89<194 257> 242 90<195 257>
Fore
172 -15 m 0
 151 -15 130 -11 112 -3 c 0
 95 5 81 15 72 29 c 0
 60 50 53 79 53 115 c 0
 53 146 58 183 67 226 c 0
 87 320 117 384 155 421 c 0
 171 436 189 446 210 454 c 0
 230 462 253 466 274 466 c 0
 323 466 357 451 375 421 c 0
 387 401 394 373 394 337 c 0
 394 306 389 269 380 226 c 0
 360 133 330 68 292 29 c 0
 261 0 221 -15 172 -15 c 0
189 68 m 0
 217 68 238 78 250 98 c 0
 263 121 277 164 290 226 c 0
 300 275 305 312 305 337 c 0
 305 343 305 349 304 354 c 0
 300 374 285 384 257 384 c 0
 245 384 232 382 221 376 c 0
 210 371 202 364 197 354 c 0
 183 331 169 288 156 226 c 0
 146 179 142 142 142 118 c 0
 142 110 142 103 143 98 c 1
 145 78 160 68 189 68 c 0
EndSplineSet
EndChar
StartChar: one
Encoding: 49 49 19
Width: 357
Flags: HW
HStem: 0 23
VStem: 153 90<0 315 315 315>
Fore
340 455 m 1
 243 0 l 1
 153 0 l 1
 220 315 l 1
 111 315 l 1
 124 375 l 1
 141 375 160 377 180 382 c 0
 201 385 216 391 229 399 c 0
 256 416 274 435 280 455 c 1
 340 455 l 1
EndSplineSet
EndChar
StartChar: two
Encoding: 50 50 20
Width: 357
Flags: HW
HStem: 0 81<137 329>
VStem: 19 311
Fore
346 81 m 1
 329 0 l 1
 19 0 l 1
 28 32 40 59 52 82 c 0
 66 106 88 130 122 153 c 0
 146 170 176 186 206 207 c 0
 236 226 256 241 267 251 c 0
 289 272 302 294 307 316 c 0
 309 324 309 333 309 344 c 0
 309 345 309 347 309 348 c 0
 309 362 305 373 296 380 c 0
 284 388 273 392 258 392 c 0
 254 392 248 391 242 390 c 0
 210 383 188 353 176 298 c 1
 89 298 l 1
 101 353 124 394 156 424 c 0
 186 451 227 467 276 467 c 0
 278 467 281 467 284 467 c 0
 361 463 401 425 401 356 c 0
 401 339 399 321 394 301 c 0
 384 257 334 210 254 162 c 0
 199 128 166 101 154 81 c 1
 346 81 l 1
EndSplineSet
EndChar
StartChar: three
Encoding: 51 51 21
Width: 357
Flags: HW
HStem: -15 23
VStem: 19 313
Fore
47 133 m 1
 133 133 l 1
 132 125 131 117 131 111 c 0
 131 106 132 102 132 99 c 0
 133 92 136 84 140 78 c 0
 144 72 151 67 160 63 c 0
 172 60 185 58 201 58 c 1
 212 61 222 67 229 72 c 0
 251 89 264 108 269 132 c 0
 270 137 271 142 271 147 c 0
 271 162 265 174 254 184 c 0
 240 197 216 203 183 203 c 1
 196 264 l 1
 221 264 242 269 261 277 c 0
 279 285 290 298 296 316 c 0
 300 325 303 332 303 336 c 0
 304 341 305 346 305 351 c 0
 305 356 304 360 304 365 c 0
 300 374 296 381 288 386 c 0
 280 391 269 394 255 394 c 0
 253 394 251 394 248 394 c 0
 226 394 209 385 199 372 c 0
 189 357 182 337 174 312 c 1
 92 312 l 1
 99 345 110 372 124 393 c 0
 137 415 160 434 193 451 c 0
 212 460 240 466 280 466 c 0
 289 466 l 0
 325 466 351 455 366 438 c 0
 382 424 390 407 391 390 c 0
 392 383 392 376 392 368 c 0
 392 356 391 342 388 327 c 1
 380 307 373 293 364 282 c 0
 354 271 339 259 319 244 c 1
 339 229 352 214 359 195 c 0
 362 188 364 178 364 166 c 0
 364 153 362 137 357 119 c 0
 349 86 328 55 299 27 c 0
 268 -1 224 -15 169 -15 c 0
 145 -15 125 -11 106 -6 c 0
 88 0 72 14 59 35 c 0
 51 50 45 66 44 81 c 0
 44 97 44 114 47 133 c 1
EndSplineSet
EndChar
StartChar: four
Encoding: 52 52 22
Width: 357
Flags: HW
HStem: 0 23 101 73<80 198 288 336>
VStem: 198 90<0 101 174 364 364 364>
Fore
280 455 m 1
 385 455 l 1
 325 174 l 1
 373 174 l 1
 357 101 l 1
 309 101 l 1
 288 0 l 1
 198 0 l 1
 219 101 l 1
 37 101 l 1
 54 177 l 1
 280 455 l 1
275 364 m 1
 117 174 l 1
 235 174 l 1
 275 364 l 1
EndSplineSet
EndChar
StartChar: five
Encoding: 53 53 23
Width: 357
Flags: HW
HStem: -15 23 375 80<128 315 128 128>
VStem: 241 92<136 161>
Fore
42 119 m 1
 131 119 l 1
 131 115 131 112 131 109 c 0
 131 102 131 96 132 90 c 0
 133 82 138 76 147 70 c 0
 156 64 169 61 187 61 c 0
 210 62 229 71 244 88 c 0
 257 105 267 124 272 148 c 0
 275 160 276 170 276 179 c 0
 276 191 274 200 270 208 c 0
 260 225 243 235 218 235 c 0
 216 235 215 235 214 235 c 0
 188 235 168 223 156 202 c 1
 74 202 l 1
 169 455 l 1
 412 455 l 1
 395 375 l 1
 208 375 l 1
 172 281 l 1
 191 292 207 298 218 302 c 0
 231 305 244 307 256 307 c 0
 271 307 288 305 304 299 c 0
 331 289 351 270 362 243 c 0
 367 228 369 211 369 193 c 0
 369 180 368 167 365 153 c 0
 356 115 339 82 318 56 c 0
 300 35 281 19 259 8 c 0
 235 -5 207 -11 172 -15 c 1
 142 -15 121 -11 107 -6 c 0
 94 0 81 9 68 20 c 0
 57 33 49 44 44 56 c 0
 41 67 38 76 38 85 c 0
 38 86 38 88 38 89 c 0
 39 98 40 108 42 119 c 1
EndSplineSet
EndChar
StartChar: six
Encoding: 54 54 24
Width: 357
Flags: HW
HStem: -15 23 395 71<179 189>
VStem: 249 85<138 162>
Fore
400 354 m 1
 317 354 l 1
 314 381 299 394 273 396 c 0
 254 396 238 391 223 382 c 0
 209 374 199 364 194 353 c 0
 183 336 175 315 170 292 c 0
 168 280 168 272 168 267 c 1
 182 277 197 286 212 292 c 0
 228 297 249 301 273 301 c 0
 314 301 342 282 359 246 c 0
 366 230 370 212 370 192 c 0
 370 180 369 167 366 154 c 0
 359 123 350 97 335 76 c 0
 315 45 292 23 268 9 c 0
 242 -6 212 -14 178 -15 c 0
 176 -15 175 -15 174 -15 c 0
 140 -15 112 -4 91 16 c 0
 70 37 57 63 55 95 c 0
 55 101 55 107 55 114 c 0
 55 147 59 184 68 227 c 0
 78 272 91 312 109 346 c 0
 127 381 151 410 181 433 c 0
 211 455 246 467 285 467 c 0
 296 467 305 467 310 466 c 0
 353 460 380 445 391 423 c 0
 398 406 402 389 402 372 c 0
 402 366 401 360 400 354 c 1
159 191 m 0
 149 177 141 162 138 145 c 0
 136 136 135 128 135 120 c 0
 135 107 138 96 142 86 c 0
 149 72 164 64 184 61 c 1
 207 61 225 68 241 81 c 0
 262 101 275 123 281 151 c 0
 283 160 284 168 284 175 c 0
 284 186 282 196 279 205 c 0
 270 223 251 232 225 232 c 0
 213 231 201 227 189 220 c 0
 178 215 167 205 159 191 c 0
EndSplineSet
EndChar
StartChar: seven
Encoding: 55 55 25
Width: 357
Flags: HW
HStem: 0 23 375 80<19 244>
VStem: 19 320<385 455>
Fore
116 455 m 1
 436 455 l 1
 421 385 l 1
 391 357 364 328 338 298 c 0
 312 269 291 238 269 207 c 0
 248 175 230 142 214 108 c 0
 199 75 185 38 175 0 c 1
 85 0 l 1
 100 45 116 85 132 118 c 0
 147 150 165 181 183 209 c 0
 201 236 222 263 244 289 c 0
 267 316 293 345 324 375 c 1
 99 375 l 1
 116 455 l 1
EndSplineSet
EndChar
StartChar: eight
Encoding: 56 56 26
Width: 357
Flags: HW
HStem: -15 23 398 69<183 194>
VStem: 15 93<126 149>
Fore
328 64 m 1
 310 38 285 19 256 6 c 0
 228 -7 200 -15 172 -15 c 0
 170 -15 169 -15 167 -15 c 0
 137 -15 112 -7 89 8 c 0
 65 21 51 41 43 66 c 0
 40 75 39 85 39 95 c 0
 39 106 40 118 43 132 c 0
 54 185 86 224 138 249 c 1
 124 262 114 276 106 289 c 0
 102 298 101 308 101 318 c 0
 101 325 101 332 103 340 c 0
 108 360 116 380 130 398 c 0
 145 419 165 436 189 449 c 0
 213 461 239 467 265 467 c 0
 327 467 368 450 384 416 c 0
 394 398 399 380 399 362 c 0
 399 355 398 347 396 339 c 0
 392 318 383 299 366 282 c 0
 351 266 333 254 315 249 c 1
 337 242 352 228 362 208 c 0
 368 195 371 181 371 166 c 0
 371 157 370 148 368 139 c 0
 362 111 348 86 328 64 c 1
278 288 m 1
 289 294 298 302 304 312 c 0
 312 322 317 332 319 342 c 0
 320 346 320 351 320 354 c 0
 320 363 318 371 313 377 c 0
 306 390 291 398 268 398 c 0
 266 398 265 398 263 398 c 0
 241 398 223 391 210 381 c 0
 195 371 186 356 182 339 c 0
 181 334 180 329 180 324 c 0
 180 312 184 301 191 292 c 0
 199 281 211 273 230 273 c 0
 232 273 233 273 235 273 c 0
 253 273 269 279 278 288 c 1
240 81 m 0
 245 86 252 94 257 105 c 0
 263 116 268 128 271 139 c 0
 272 144 272 150 272 155 c 0
 272 165 270 175 267 183 c 0
 260 201 245 211 221 212 c 0
 200 212 181 206 165 191 c 0
 151 179 141 160 136 137 c 0
 134 128 133 120 133 113 c 0
 133 102 135 93 138 86 c 1
 149 70 164 60 184 60 c 0
 185 60 186 60 188 60 c 0
 207 60 225 68 240 81 c 0
EndSplineSet
EndChar
StartChar: nine
Encoding: 57 57 27
Width: 357
Flags: HW
HStem: -15 71<154 172> 446 23<152 168>
VStem: 18 80<293 318>
Fore
47 106 m 1
 135 106 l 1
 134 103 134 100 134 96 c 0
 134 89 136 81 142 72 c 0
 150 62 160 56 172 56 c 0
 207 56 234 71 252 99 c 0
 266 122 275 144 279 163 c 0
 280 169 281 174 281 179 c 0
 281 182 280 185 280 188 c 1
 264 173 246 162 226 154 c 0
 216 150 205 148 194 148 c 0
 179 148 168 148 160 150 c 0
 118 158 91 184 82 226 c 0
 80 237 78 249 78 262 c 0
 78 275 80 290 83 305 c 0
 90 340 103 368 121 392 c 0
 139 414 161 433 187 447 c 0
 211 462 238 469 266 469 c 0
 271 469 278 468 288 467 c 0
 298 467 312 463 328 457 c 0
 342 449 356 438 368 425 c 0
 380 411 387 396 388 379 c 1
 391 363 393 345 393 325 c 0
 393 300 390 273 384 243 c 0
 376 207 366 173 352 140 c 0
 337 107 323 81 309 62 c 0
 286 32 261 10 234 0 c 0
 207 -10 181 -15 157 -15 c 0
 113 -15 82 -1 65 26 c 0
 51 47 45 66 45 85 c 0
 45 92 45 99 47 106 c 1
300 372 m 1
 291 385 274 392 251 392 c 0
 232 392 213 383 193 365 c 1
 178 350 168 330 163 305 c 0
 161 297 160 289 160 282 c 0
 160 268 164 256 172 246 c 0
 182 232 198 225 219 225 c 0
 239 225 258 233 274 247 c 0
 291 262 302 281 307 305 c 0
 309 315 310 324 310 333 c 0
 310 338 310 342 309 347 c 0
 308 359 305 367 300 372 c 1
EndSplineSet
EndChar
StartChar: colon
Encoding: 58 58 28
Width: 195
Flags: HW
HStem: 0 23
VStem: 59 92<39 51 312 324>
Fore
104 0 m 0
 89 0 80 5 74 14 c 0
 69 19 67 25 67 33 c 0
 67 37 68 41 69 45 c 0
 71 58 77 68 87 77 c 0
 97 86 108 90 123 90 c 0
 138 90 148 86 154 77 c 0
 159 71 161 64 161 56 c 0
 161 52 161 49 160 45 c 0
 157 33 151 23 141 14 c 0
 131 5 119 0 104 0 c 0
162 273 m 0
 147 273 138 278 132 287 c 0
 128 293 126 300 126 308 c 0
 126 311 126 315 127 319 c 0
 129 330 135 340 145 349 c 0
 155 358 166 363 181 363 c 0
 196 363 206 358 212 350 c 0
 216 343 219 336 219 328 c 0
 219 325 218 322 218 319 c 0
 215 306 209 296 199 287 c 0
 189 278 177 273 162 273 c 0
EndSplineSet
EndChar
StartChar: semicolon
Encoding: 59 59 29
Width: 220
Flags: HW
VStem: 64 105
Fore
165 243 m 0
 149 243 138 247 132 258 c 0
 128 265 125 273 125 282 c 0
 125 286 125 289 126 293 c 0
 129 306 137 318 147 328 c 0
 157 338 170 342 186 342 c 0
 203 342 214 338 220 328 c 0
 224 321 226 313 226 305 c 0
 226 301 226 297 225 293 c 0
 222 279 215 268 205 258 c 0
 194 247 181 243 165 243 c 0
180 49 m 0
 175 18 157 -8 132 -27 c 0
 106 -47 83 -59 62 -61 c 1
 57 -45 l 1
 73 -37 86 -31 96 -24 c 0
 106 -17 114 -6 120 9 c 1
 107 9 97 12 86 19 c 0
 79 25 75 33 75 47 c 0
 75 50 76 54 76 58 c 0
 79 71 86 82 97 93 c 0
 107 102 119 106 133 106 c 0
 153 106 166 101 173 90 c 0
 179 83 182 74 182 63 c 0
 182 59 181 54 180 49 c 0
EndSplineSet
EndChar
StartChar: less
Encoding: 60 60 30
Width: 375
Flags: HW
DStem: 26 191 138 229 340 73 340 157 340 385 340 301 26 268 138 229
Fore
67 191 m 5
 83 268 l 5
 422 385 l 5
 404 301 l 5
 187 229 l 5
 373 157 l 5
 356 73 l 5
 67 191 l 5
EndSplineSet
EndChar
StartChar: equal
Encoding: 61 61 31
Width: 375
Flags: HW
HStem: 112 79<32 344> 268 76<32 344>
Fore
105 344 m 5
 417 344 l 5
 401 268 l 5
 89 268 l 5
 105 344 l 5
73 191 m 5
 385 191 l 5
 368 112 l 5
 56 112 l 5
 73 191 l 5
EndSplineSet
EndChar
StartChar: greater
Encoding: 62 62 32
Width: 375
Flags: HW
DStem: 26 301 26 385 227 229 340 268 227 229 340 191 26 157 26 73
Fore
108 385 m 5
 397 268 l 5
 381 191 l 5
 42 73 l 5
 59 157 l 5
 276 229 l 5
 90 301 l 5
 108 385 l 5
EndSplineSet
EndChar
StartChar: question
Encoding: 63 63 33
Width: 393
Flags: HW
HStem: 0 94<154 250>
VStem: 154 96<0 94>
Fore
263 129 m 1
 185 129 l 1
 192 162 204 188 220 209 c 0
 237 228 260 249 290 268 c 0
 313 282 329 305 334 334 c 0
 335 339 335 343 335 347 c 0
 335 360 331 371 324 379 c 0
 314 389 300 394 283 394 c 0
 264 394 245 388 228 373 c 0
 212 358 201 338 195 310 c 1
 108 310 l 1
 120 365 145 410 185 445 c 1
 218 468 255 479 295 479 c 0
 320 479 342 476 361 468 c 0
 382 460 397 450 406 437 c 0
 423 417 432 393 432 366 c 0
 432 356 430 345 428 334 c 0
 422 308 412 285 398 266 c 0
 394 261 390 255 383 249 c 0
 375 242 369 237 364 234 c 0
 357 229 352 225 345 221 c 0
 339 217 331 212 323 207 c 0
 302 193 288 183 281 173 c 0
 272 162 267 147 263 129 c 1
154 0 m 1
 174 94 l 1
 270 94 l 1
 250 0 l 1
 154 0 l 1
EndSplineSet
EndChar
StartChar: at
Encoding: 64 64 34
Width: 626
Flags: HW
HStem: -88 56<301 333> 426 53<316 349>
VStem: 17 63<157 168>
Fore
484 328 m 1
 541 328 l 1
 445 133 l 1
 444 126 443 119 443 113 c 0
 443 107 l 0
 443 106 443 105 443 105 c 0
 443 98 447 94 451 90 c 0
 454 89 459 88 465 88 c 0
 477 88 486 90 495 96 c 1
 509 102 523 111 536 123 c 0
 550 137 560 148 566 158 c 0
 584 184 596 210 602 238 c 0
 604 250 605 261 605 273 c 0
 605 276 605 280 605 284 c 0
 605 301 599 319 586 340 c 0
 574 362 558 377 542 390 c 0
 509 414 467 426 413 426 c 0
 396 426 377 424 357 420 c 0
 333 416 307 403 277 384 c 0
 249 365 222 342 199 319 c 0
 155 275 127 223 115 165 c 0
 113 156 112 147 112 138 c 0
 112 130 113 123 113 116 c 0
 115 99 116 85 121 71 c 0
 127 59 131 49 138 41 c 0
 161 9 197 -12 246 -25 c 0
 264 -29 283 -32 305 -32 c 0
 348 -32 394 -24 442 -8 c 1
 449 -59 l 1
 407 -78 354 -88 289 -88 c 0
 268 -88 252 -87 237 -85 c 0
 217 -81 198 -78 182 -72 c 0
 163 -67 146 -58 128 -43 c 0
 109 -29 92 -11 76 12 c 0
 63 33 55 56 50 82 c 0
 48 96 47 109 47 122 c 0
 47 134 48 145 50 155 c 0
 55 181 62 203 72 224 c 0
 79 244 90 264 105 285 c 0
 118 305 133 324 149 341 c 0
 174 367 204 393 239 418 c 0
 275 442 309 458 346 468 c 0
 374 476 403 479 433 479 c 0
 487 479 533 467 570 442 c 0
 632 400 664 347 664 285 c 0
 664 267 662 249 658 232 c 0
 651 199 638 170 621 144 c 0
 589 98 555 68 518 51 c 0
 498 42 478 37 458 37 c 0
 443 37 432 40 419 43 c 0
 403 47 392 60 383 80 c 1
 358 62 338 50 322 44 c 0
 307 38 293 35 278 35 c 0
 267 35 254 40 237 47 c 0
 221 55 209 67 202 81 c 0
 197 96 194 110 194 125 c 0
 194 132 194 139 196 147 c 0
 197 151 199 159 203 170 c 0
 223 223 256 263 297 292 c 0
 336 320 370 333 401 333 c 0
 409 333 417 332 423 330 c 0
 449 323 463 310 464 289 c 1
 484 328 l 1
293 87 m 1
 315 87 335 93 351 105 c 1
 371 118 387 136 401 160 c 0
 416 185 426 208 430 228 c 0
 431 233 432 238 432 243 c 0
 432 264 421 279 400 286 c 0
 395 287 392 288 389 288 c 0
 379 288 367 285 355 279 c 0
 343 273 331 264 318 254 c 0
 306 244 295 231 285 214 c 0
 275 197 265 180 262 163 c 0
 260 156 259 148 259 142 c 0
 259 131 261 122 265 113 c 0
 270 99 279 90 293 87 c 1
EndSplineSet
EndChar
StartChar: A
Encoding: 65 65 35
Width: 463
Flags: HW
HStem: 0 23 94 80<179 298> 446 23<180 292 292 292>
VStem: 17 435<0 0>
Fore
392 469 m 1
 452 0 l 1
 354 0 l 1
 341 94 l 1
 168 94 l 1
 115 0 l 1
 17 0 l 1
 280 469 l 1
 392 469 l 1
312 356 m 1
 216 174 l 1
 335 174 l 1
 312 356 l 1
EndSplineSet
EndChar
StartChar: B
Encoding: 66 66 36
Width: 463
Flags: HW
HStem: 0 80<149 262 262 264> 201 80<149 259 259 264> 389 80<149 149 149 261 261 263>
VStem: 53 96<80 201 281 389>
Fore
53 0 m 1
 153 469 l 1
 361 469 l 2
 378 469 397 466 419 460 c 0
 439 454 455 445 465 433 c 1
 476 423 484 411 487 401 c 0
 489 397 489 388 490 375 c 0
 490 363 l 0
 490 355 490 349 490 346 c 0
 486 329 479 313 468 296 c 0
 457 279 442 263 424 250 c 1
 436 240 446 225 452 208 c 0
 457 194 460 179 460 163 c 0
 460 159 459 155 459 151 c 1
 453 124 446 102 433 82 c 0
 421 63 406 46 386 32 c 0
 355 10 315 0 264 0 c 2
 53 0 l 1
232 389 m 1
 209 281 l 1
 319 281 l 2
 339 281 356 286 369 296 c 0
 383 306 391 319 394 334 c 0
 395 340 396 345 396 350 c 0
 396 376 379 389 346 389 c 2
 232 389 l 1
192 201 m 1
 166 80 l 1
 279 80 l 2
 298 80 316 84 333 92 c 0
 349 99 361 118 365 146 c 0
 367 153 367 159 367 164 c 0
 367 176 363 185 355 190 c 0
 345 198 329 201 307 201 c 2
 192 201 l 1
EndSplineSet
EndChar
StartChar: C
Encoding: 67 67 37
Width: 463
Flags: HW
HStem: -15 23 453 23<190 268>
VStem: 28 412
Fore
381 160 m 1
 475 160 l 1
 470 137 459 113 442 89 c 0
 424 64 404 45 384 31 c 0
 367 18 344 8 318 0 c 0
 291 -9 264 -15 237 -15 c 0
 235 -15 234 -15 232 -15 c 0
 181 -15 143 1 114 28 c 0
 85 58 71 97 68 148 c 0
 68 170 70 198 77 231 c 0
 85 266 95 295 108 320 c 0
 160 424 239 476 344 476 c 0
 395 476 434 463 464 440 c 0
 495 415 510 382 510 341 c 0
 510 331 509 321 507 310 c 1
 414 310 l 1
 414 313 415 317 415 321 c 0
 415 328 414 337 411 346 c 0
 405 359 397 371 382 381 c 0
 368 390 347 396 321 396 c 0
 315 396 l 0
 293 396 273 386 253 373 c 0
 233 358 217 341 205 321 c 0
 193 302 181 275 173 240 c 0
 168 220 166 202 165 186 c 0
 164 180 164 174 164 167 c 0
 164 159 165 150 167 141 c 0
 174 111 191 88 214 76 c 0
 226 70 238 68 249 68 c 0
 261 68 276 70 292 73 c 0
 322 81 343 94 354 108 c 0
 365 123 375 141 381 160 c 1
EndSplineSet
EndChar
StartChar: D
Encoding: 68 68 38
Width: 463
Flags: HW
HStem: 0 80<146 223 223 247> 389 80<146 146 146 233>
VStem: 50 96<80 389> 340 97<236 266>
Fore
50 0 m 1
 150 469 l 1
 368 469 l 2
 385 469 402 466 419 459 c 0
 434 452 450 441 463 424 c 0
 477 408 485 386 493 359 c 0
 496 347 498 333 498 317 c 0
 498 298 496 278 491 255 c 0
 483 217 472 183 458 154 c 0
 443 124 427 101 411 82 c 0
 389 56 366 37 339 23 c 0
 313 8 286 0 261 0 c 2
 50 0 l 1
229 389 m 1
 163 80 l 1
 240 80 l 2
 288 80 327 102 355 144 c 0
 369 167 383 200 392 243 c 0
 396 264 398 283 398 299 c 0
 398 318 395 334 390 346 c 0
 382 363 373 374 361 380 c 0
 349 385 334 389 316 389 c 2
 229 389 l 1
EndSplineSet
EndChar
StartChar: E
Encoding: 69 69 39
Width: 428
Flags: HW
HStem: 0 80<147 401> 201 80<147 372> 389 80<147 390 147 147>
VStem: 51 96<80 201 281 389>
Fore
151 469 m 1
 490 469 l 1
 473 389 l 1
 230 389 l 1
 207 281 l 1
 432 281 l 1
 415 201 l 1
 190 201 l 1
 164 80 l 1
 418 80 l 1
 401 0 l 1
 51 0 l 1
 151 469 l 1
EndSplineSet
EndChar
StartChar: F
Encoding: 70 70 40
Width: 393
Flags: HW
HStem: 0 23 201 80<144 349> 389 80<144 376 144 144>
VStem: 47 96<0 201 281 389>
Fore
147 469 m 1
 476 469 l 1
 459 389 l 1
 227 389 l 1
 204 281 l 1
 409 281 l 1
 392 201 l 1
 187 201 l 1
 144 0 l 1
 47 0 l 1
 147 469 l 1
EndSplineSet
EndChar
StartChar: G
Encoding: 71 71 41
Width: 499
Flags: HW
HStem: -15 23 172 80<269 376> 397 79<240 265>
VStem: 27 93<213 244> 269 188<172 252>
Fore
306 172 m 1
 323 252 l 1
 511 252 l 1
 457 -2 l 1
 399 -2 l 1
 400 56 l 1
 384 42 370 29 358 21 c 1
 346 11 329 3 306 -3 c 0
 287 -10 263 -15 238 -15 c 0
 236 -15 233 -15 231 -15 c 0
 209 -15 192 -10 180 -6 c 1
 165 -3 155 2 147 8 c 0
 137 14 129 20 122 28 c 0
 115 36 110 42 107 45 c 0
 89 68 78 95 72 128 c 0
 70 141 69 154 69 168 c 0
 69 188 71 210 76 231 c 0
 87 280 108 327 140 368 c 0
 172 410 212 442 258 460 c 0
 286 471 317 476 351 476 c 0
 381 476 407 472 432 466 c 0
 457 459 477 445 493 425 c 0
 515 398 526 367 526 333 c 0
 526 329 525 324 525 320 c 1
 436 320 l 1
 434 346 425 365 407 377 c 0
 389 390 366 397 338 397 c 0
 309 397 280 388 251 371 c 1
 231 356 213 336 199 310 c 0
 186 285 175 258 169 229 c 0
 165 211 163 195 163 180 c 0
 163 168 164 157 167 148 c 0
 183 97 212 69 256 63 c 1
 305 63 342 79 372 107 c 0
 391 127 405 147 413 172 c 1
 306 172 l 1
EndSplineSet
EndChar
StartChar: H
Encoding: 72 72 42
Width: 463
Flags: HW
HStem: 0 23 212 80<140 325> 446 23<44 140 140 140 325 423 423 423>
VStem: 44 96<0 212 293 469> 325 97<0 212 212 212 293 469>
Fore
44 0 m 1
 144 469 l 1
 240 469 l 1
 202 293 l 1
 387 293 l 1
 425 469 l 1
 523 469 l 1
 423 0 l 1
 325 0 l 1
 370 212 l 1
 185 212 l 1
 140 0 l 1
 44 0 l 1
EndSplineSet
EndChar
StartChar: I
Encoding: 73 73 43
Width: 178
Flags: HW
HStem: 0 23 446 23<41 137 137 137>
VStem: 41 96<0 469>
Fore
237 469 m 1
 137 0 l 1
 41 0 l 1
 141 469 l 1
 237 469 l 1
EndSplineSet
EndChar
StartChar: J
Encoding: 74 74 44
Width: 357
Flags: HW
HStem: -15 23 446 23<216 312 312 312>
VStem: 16 96<120 125 125 173> 216 96<119 469>
Fore
316 469 m 1
 412 469 l 1
 336 112 l 2
 329 80 312 53 285 29 c 0
 255 2 217 -14 172 -15 c 0
 169 -15 167 -15 164 -15 c 0
 126 -15 98 -8 79 2 c 0
 66 10 56 20 50 33 c 0
 44 45 40 59 40 73 c 0
 39 79 39 85 39 92 c 0
 39 101 40 110 42 120 c 2
 53 173 l 1
 149 173 l 1
 139 125 l 2
 138 119 137 112 137 106 c 0
 137 98 138 91 140 85 c 0
 144 73 156 67 175 67 c 0
 177 67 178 67 180 67 c 0
 198 67 213 73 223 84 c 0
 232 94 238 105 241 119 c 2
 316 469 l 1
EndSplineSet
EndChar
StartChar: K
Encoding: 75 75 45
Width: 463
Flags: HW
HStem: 0 23 446 23<47 144 144 144 328 442 442 442>
VStem: 47 96<0 150 263 469>
Fore
47 0 m 1
 147 469 l 1
 244 469 l 1
 200 263 l 1
 428 469 l 1
 542 469 l 1
 314 266 l 1
 461 0 l 1
 345 0 l 1
 236 203 l 1
 176 150 l 1
 144 0 l 1
 47 0 l 1
EndSplineSet
EndChar
StartChar: L
Encoding: 76 76 46
Width: 393
Flags: HW
HStem: 0 80<148 372> 446 23<51 148 148 148>
VStem: 51 97<80 469>
Fore
151 469 m 1
 248 469 l 1
 165 80 l 1
 389 80 l 1
 372 0 l 1
 51 0 l 1
 151 469 l 1
EndSplineSet
EndChar
StartChar: M
Encoding: 77 77 47
Width: 535
Flags: HW
HStem: 0 23 446 23<42 183 183 183 358 499 499 499>
VStem: 42 97<0 380> 402 97<0 380 380 380>
Fore
319 0 m 1
 223 0 l 1
 220 380 l 1
 139 0 l 1
 42 0 l 1
 142 469 l 1
 283 469 l 1
 294 108 l 1
 458 469 l 1
 599 469 l 1
 499 0 l 1
 402 0 l 1
 483 380 l 1
 319 0 l 1
EndSplineSet
EndChar
StartChar: N
Encoding: 78 78 48
Width: 463
Flags: HW
HStem: 0 23 446 23<44 139 139 139 329 425 425 425>
VStem: 44 96<0 327> 329 96<147 469>
Fore
144 469 m 1
 239 469 l 1
 360 147 l 1
 429 469 l 1
 525 469 l 1
 425 0 l 1
 330 0 l 1
 210 327 l 1
 140 0 l 1
 44 0 l 1
 144 469 l 1
EndSplineSet
EndChar
StartChar: O
Encoding: 79 79 49
Width: 499
Flags: HW
HStem: -15 84<234 269> 392 85<234 262>
VStem: 26 93<218 244> 384 93<218 244>
Fore
526 231 m 0
 519 197 505 163 485 129 c 0
 465 94 443 66 417 44 c 0
 372 5 316 -15 249 -15 c 0
 182 -15 134 5 104 44 c 0
 87 66 78 94 72 129 c 0
 70 144 69 158 69 173 c 0
 69 192 71 212 75 231 c 0
 83 266 97 301 116 333 c 0
 136 367 157 396 184 418 c 0
 230 458 286 477 353 477 c 0
 372 477 390 475 408 471 c 0
 427 467 444 460 459 451 c 0
 474 443 486 432 497 418 c 0
 513 396 523 367 529 333 c 0
 531 319 532 304 532 289 c 0
 532 270 530 251 526 231 c 0
267 69 m 0
 301 69 331 79 359 101 c 0
 377 114 393 132 406 156 c 0
 419 180 428 205 433 231 c 0
 437 249 439 266 439 283 c 0
 439 290 439 298 438 305 c 0
 435 329 427 347 415 360 c 0
 395 382 369 392 335 392 c 0
 300 392 270 382 242 360 c 0
 224 347 209 329 196 306 c 0
 183 282 174 257 168 231 c 0
 165 213 163 196 163 180 c 0
 163 172 163 164 164 157 c 0
 167 133 174 114 186 101 c 0
 206 79 232 69 267 69 c 0
EndSplineSet
EndChar
StartChar: P
Encoding: 80 80 50
Width: 428
Flags: HW
HStem: 0 23 167 80<146 253 253 260> 389 80<146 146 146 249>
VStem: 49 97<0 167 247 389>
Fore
49 0 m 1
 149 469 l 1
 358 469 l 2
 386 469 411 463 434 455 c 0
 457 446 472 426 478 393 c 0
 479 384 480 374 480 363 c 0
 480 351 479 338 476 323 c 0
 469 293 459 268 447 251 c 0
 409 195 358 167 295 167 c 2
 181 167 l 1
 146 0 l 1
 49 0 l 1
229 389 m 1
 199 247 l 1
 306 247 l 2
 330 247 349 261 367 287 c 0
 367 289 370 295 375 304 c 0
 378 312 381 320 383 328 c 0
 385 337 385 345 385 353 c 0
 382 376 364 389 332 389 c 2
 229 389 l 1
EndSplineSet
EndChar
StartChar: Q
Encoding: 81 81 51
Width: 499
Flags: HW
HStem: -15 84<236 263> 392 85<236 269>
VStem: 28 92<218 244> 386 93<215 244>
Fore
442 66 m 1
 483 17 l 1
 422 -35 l 1
 379 17 l 1
 338 -5 295 -15 250 -15 c 0
 185 -15 137 5 106 44 c 0
 90 66 80 94 74 128 c 0
 72 142 71 157 71 172 c 0
 71 191 73 211 77 231 c 0
 85 267 99 302 118 334 c 0
 138 367 160 396 186 418 c 0
 233 458 289 477 354 477 c 0
 386 477 414 472 439 462 c 0
 464 452 484 437 498 418 c 0
 516 394 527 366 532 333 c 0
 534 320 535 307 535 293 c 0
 535 273 533 252 528 231 c 0
 522 200 511 171 496 141 c 0
 481 113 462 87 442 66 c 1
324 81 m 1
 286 127 l 1
 346 180 l 1
 389 129 l 1
 409 155 426 189 435 231 c 0
 439 248 441 264 441 280 c 0
 441 289 440 297 439 306 c 0
 436 329 428 347 416 360 c 0
 397 382 371 392 336 392 c 0
 302 392 272 382 244 360 c 0
 227 347 211 329 198 305 c 0
 185 281 175 257 169 231 c 0
 166 215 164 199 164 184 c 0
 164 175 165 166 166 157 c 0
 169 133 177 114 188 101 c 0
 208 79 234 69 268 69 c 0
 288 69 308 73 324 81 c 1
EndSplineSet
EndChar
StartChar: R
Encoding: 82 82 52
Width: 463
Flags: HW
HStem: 0 23 185 80<148 261> 389 80<148 148 148 278>
VStem: 51 97<0 185 266 389> 319 96
Fore
51 0 m 1
 151 469 l 1
 412 469 l 2
 427 469 440 466 455 460 c 0
 469 454 480 445 489 435 c 0
 498 424 503 410 503 394 c 0
 503 389 504 382 504 376 c 0
 504 371 504 365 503 357 c 0
 502 350 502 345 501 339 c 0
 498 324 493 311 488 299 c 0
 478 280 468 267 456 257 c 0
 444 246 429 236 408 226 c 1
 412 224 415 220 421 217 c 0
 426 214 431 210 436 206 c 0
 440 201 442 195 445 188 c 0
 446 183 447 178 447 173 c 0
 447 169 446 165 446 160 c 0
 446 159 446 159 446 158 c 0
 446 151 442 135 438 110 c 0
 433 82 431 64 429 56 c 0
 428 49 427 44 427 39 c 0
 427 36 427 34 428 32 c 0
 431 26 433 21 439 17 c 1
 435 0 l 1
 331 0 l 1
 328 10 327 19 327 28 c 0
 327 34 327 39 328 44 c 2
 348 138 l 1
 348 141 348 143 348 146 c 0
 348 153 347 159 346 165 c 0
 342 172 336 177 328 181 c 0
 321 184 311 185 300 185 c 2
 187 185 l 1
 148 0 l 1
 51 0 l 1
231 389 m 1
 205 266 l 1
 336 266 l 2
 350 266 364 271 379 284 c 0
 394 296 404 313 408 336 c 0
 409 342 410 348 410 353 c 0
 410 377 394 389 361 389 c 2
 231 389 l 1
EndSplineSet
EndChar
StartChar: S
Encoding: 83 83 53
Width: 428
Flags: HW
HStem: -16 79 400 76<179 215>
VStem: 20 388<139 139>
Fore
461 325 m 1
 370 325 l 1
 371 329 371 334 371 338 c 0
 371 346 370 354 367 362 c 0
 363 373 354 382 342 390 c 0
 328 397 311 400 290 400 c 0
 236 400 204 382 194 346 c 0
 192 337 191 330 191 325 c 0
 191 321 191 317 192 315 c 0
 196 310 203 304 213 299 c 1
 216 296 222 293 236 289 c 0
 251 285 267 282 287 278 c 0
 307 275 319 271 324 270 c 0
 375 261 409 245 425 224 c 0
 436 209 441 191 441 171 c 0
 441 162 440 152 438 141 c 0
 433 118 422 94 407 71 c 0
 392 49 374 31 352 18 c 0
 315 -3 265 -15 198 -16 c 0
 183 -16 164 -12 143 -7 c 0
 121 -1 103 7 90 18 c 0
 73 33 61 51 55 72 c 0
 51 87 49 103 49 118 c 0
 49 125 49 132 50 139 c 1
 144 139 l 1
 143 134 142 129 142 124 c 0
 142 112 146 101 153 90 c 0
 168 72 195 63 236 63 c 0
 250 63 265 66 281 70 c 0
 296 73 307 79 315 85 c 0
 328 95 337 108 341 127 c 0
 342 132 343 136 343 140 c 0
 343 149 340 157 334 164 c 0
 330 172 320 177 309 182 c 0
 297 186 279 191 257 195 c 0
 236 199 218 202 203 206 c 0
 186 209 173 212 161 217 c 0
 145 223 133 231 122 241 c 0
 112 251 106 266 102 282 c 0
 100 290 100 298 100 306 c 0
 100 318 101 332 105 347 c 1
 117 386 141 418 174 442 c 0
 207 464 252 476 308 476 c 0
 335 476 363 473 391 466 c 0
 418 459 440 442 454 417 c 0
 462 402 466 385 466 365 c 0
 466 353 464 340 461 325 c 1
EndSplineSet
EndChar
StartChar: T
Encoding: 84 84 54
Width: 393
Flags: HW
HStem: 0 23 389 80<9 151 247 384 247 247>
VStem: 151 96<0 389>
Fore
109 469 m 1
 484 469 l 1
 467 389 l 1
 330 389 l 1
 247 0 l 1
 151 0 l 1
 234 389 l 1
 92 389 l 1
 109 469 l 1
EndSplineSet
EndChar
StartChar: U
Encoding: 85 85 55
Width: 463
Flags: HW
HStem: -15 84<220 251> 446 23<49 146 146 146 324 420 420 420>
VStem: 49 97<146 469> 324 96<145 146 146 469>
Fore
424 469 m 1
 520 469 l 1
 451 146 l 2
 437 80 399 32 333 5 c 0
 300 -9 266 -15 233 -15 c 0
 200 -15 172 -9 146 1 c 1
 100 30 76 67 76 113 c 0
 76 124 78 135 80 146 c 2
 149 469 l 1
 246 469 l 1
 177 145 l 2
 176 138 175 132 175 127 c 0
 175 113 179 102 185 92 c 0
 193 77 215 69 249 69 c 0
 283 69 308 77 325 92 c 0
 341 106 350 124 355 145 c 2
 424 469 l 1
EndSplineSet
EndChar
StartChar: V
Encoding: 86 86 56
Width: 428
Flags: HW
HStem: 0 23 446 23<16 112 112 112 319 416 416 416>
VStem: 16 400<469 469>
Fore
419 469 m 1
 516 469 l 1
 257 0 l 1
 174 0 l 1
 116 469 l 1
 212 469 l 1
 240 115 l 1
 419 469 l 1
EndSplineSet
EndChar
StartChar: W
Encoding: 87 87 57
Width: 606
Flags: HW
HStem: 0 23 446 23<8 111 111 111 253 355 355 355 497 599 599 599>
VStem: 8 591<469 469>
Fore
108 469 m 1
 211 469 l 1
 208 118 l 1
 353 469 l 1
 455 469 l 1
 449 113 l 1
 597 469 l 1
 699 469 l 1
 468 0 l 1
 381 0 l 1
 379 357 l 1
 226 0 l 1
 139 0 l 1
 108 469 l 1
EndSplineSet
EndChar
StartChar: X
Encoding: 88 88 58
Width: 428
Flags: HW
HStem: 0 23 446 23<21 134 134 134 303 416 416 416>
VStem: 15 405<0 0>
Fore
121 469 m 1
 234 469 l 1
 285 318 l 1
 403 469 l 1
 516 469 l 1
 322 240 l 1
 419 0 l 1
 306 0 l 1
 251 159 l 1
 128 0 l 1
 15 0 l 1
 213 236 l 1
 121 469 l 1
EndSplineSet
EndChar
StartChar: Y
Encoding: 89 89 59
Width: 428
Flags: HW
HStem: 0 23 446 23<17 124 124 124 310 418 418 418>
VStem: 172 96<0 174>
Fore
410 469 m 1
 518 469 l 1
 305 174 l 1
 268 0 l 1
 172 0 l 1
 209 174 l 1
 117 469 l 1
 224 469 l 1
 277 267 l 1
 410 469 l 1
EndSplineSet
EndChar
StartChar: Z
Encoding: 90 90 60
Width: 393
Flags: HW
HStem: 0 80<132 372> 389 80<19 19 372 372>
VStem: 19 353<0 80 389 469>
Fore
119 469 m 1
 472 469 l 1
 455 389 l 1
 149 80 l 1
 389 80 l 1
 372 0 l 1
 19 0 l 1
 36 80 l 1
 341 388 l 1
 102 389 l 1
 119 469 l 1
EndSplineSet
EndChar
StartChar: bracketleft
Encoding: 91 91 61
Width: 213
Flags: HW
HStem: -130 67<127 198> 405 64<127 198 127 127>
VStem: 43 84<-63 405>
Fore
284 405 m 1
 213 405 l 1
 114 -63 l 1
 185 -63 l 1
 170 -130 l 1
 15 -130 l 1
 143 469 l 1
 298 469 l 1
 284 405 l 1
EndSplineSet
EndChar
StartChar: backslash
Encoding: 92 92 62
Width: 178
Flags: HW
HStem: -14 23
VStem: -8 193
Fore
89 455 m 1
 138 455 l 1
 182 -14 l 1
 135 -14 l 1
 89 455 l 1
EndSplineSet
EndChar
StartChar: bracketright
Encoding: 93 93 63
Width: 213
Flags: HW
HStem: -130 67<11 82> 405 64<11 82>
VStem: 82 85<-63 405 405 405>
Fore
97 405 m 1
 111 469 l 1
 267 469 l 1
 139 -130 l 1
 -17 -130 l 1
 -2 -63 l 1
 69 -63 l 1
 168 405 l 1
 97 405 l 1
EndSplineSet
EndChar
StartChar: asciicircum
Encoding: 94 94 64
Width: 375
Flags: HW
VStem: 40 296<174 174>
Fore
77 174 m 1
 242 447 l 1
 321 447 l 1
 373 174 l 1
 300 174 l 1
 266 366 l 1
 149 174 l 1
 77 174 l 1
EndSplineSet
EndChar
StartChar: underscore
Encoding: 95 95 65
Width: 357
Flags: HW
HStem: -129 45<-15 372>
VStem: -15 386<-129 -84>
Fore
354 -84 m 1
 345 -129 l 1
 -42 -129 l 1
 -33 -84 l 1
 354 -84 l 1
EndSplineSet
EndChar
StartChar: grave
Encoding: 96 96 66
Width: 261
VWidth: 2048
Flags: HW
HStem: 379 89<28 229>
Fore
310 379 m 5
 232 379 l 1
 127 468 l 1
 255 468 l 1
 310 379 l 5
EndSplineSet
EndChar
StartChar: a
Encoding: 97 97 67
Width: 357
Flags: HW
HStem: -15 23 233 121
VStem: 17 320
Fore
337 0 m 1
 242 0 l 1
 239 6 237 12 237 20 c 0
 237 24 238 29 239 35 c 1
 224 23 207 11 185 1 c 0
 164 -9 137 -15 104 -15 c 1
 57 -9 33 15 33 58 c 0
 33 68 34 80 37 93 c 0
 43 121 58 146 77 165 c 0
 95 184 124 197 162 202 c 1
 192 203 223 209 255 218 c 1
 272 225 283 238 287 258 c 0
 287 260 288 262 288 264 c 0
 288 271 284 277 277 281 c 0
 268 287 253 289 233 289 c 0
 210 288 193 282 183 272 c 0
 174 262 167 249 163 233 c 1
 78 233 l 1
 96 313 152 354 247 354 c 0
 282 354 308 349 326 341 c 0
 357 328 371 306 371 273 c 0
 371 264 370 255 368 244 c 2
 327 53 l 2
 326 50 326 47 326 44 c 0
 326 33 331 22 340 12 c 1
 337 0 l 1
263 145 m 2
 267 164 l 1
 254 158 238 154 216 150 c 0
 195 148 182 147 179 146 c 0
 167 144 157 139 147 131 c 0
 137 123 130 113 128 102 c 0
 127 99 127 95 127 89 c 0
 129 84 131 78 134 73 c 0
 136 69 142 66 149 63 c 0
 157 61 167 60 181 60 c 1
 206 63 226 73 237 88 c 0
 249 103 258 121 263 145 c 2
EndSplineSet
EndChar
StartChar: b
Encoding: 98 98 68
Width: 393
Flags: HW
HStem: -15 77 446 23<38 128 128 128>
VStem: 38 89<0 35 157 180 301 469> 279 90<158 180>
Fore
38 0 m 1
 138 469 l 1
 228 469 l 1
 192 301 l 1
 216 336 254 354 302 354 c 0
 360 353 395 327 406 276 c 0
 410 256 412 238 412 221 c 0
 412 204 410 189 407 174 c 0
 400 141 382 105 358 66 c 0
 344 46 331 31 316 19 c 1
 302 7 287 -1 270 -7 c 0
 252 -12 234 -15 214 -15 c 0
 178 -14 152 3 135 35 c 1
 128 0 l 1
 38 0 l 1
262 276 m 0
 236 276 213 262 194 236 c 0
 178 215 169 192 164 168 c 0
 162 156 160 145 160 134 c 0
 160 122 162 112 165 101 c 0
 173 75 190 62 216 62 c 0
 244 62 267 75 284 101 c 0
 299 122 310 145 315 168 c 0
 317 178 318 189 318 198 c 0
 318 212 316 224 313 236 c 0
 310 251 302 261 294 267 c 0
 284 272 274 276 262 276 c 0
EndSplineSet
EndChar
StartChar: c
Encoding: 99 99 69
Width: 357
Flags: HW
HStem: -15 23 331 23<171 183>
VStem: 21 314
Fore
382 218 m 1
 296 218 l 1
 295 242 291 258 282 264 c 0
 274 271 261 276 242 276 c 0
 241 276 240 276 240 276 c 0
 211 276 187 258 169 225 c 0
 167 221 166 218 164 214 c 0
 162 209 161 202 157 193 c 0
 154 184 151 175 149 166 c 0
 147 153 145 141 145 130 c 0
 145 128 145 125 145 123 c 0
 146 98 150 81 160 73 c 0
 168 66 180 61 197 60 c 0
 213 60 227 63 240 71 c 0
 252 79 264 96 276 122 c 1
 362 122 l 1
 358 102 346 81 329 62 c 0
 313 43 298 27 284 17 c 0
 268 6 253 -2 239 -7 c 0
 223 -11 202 -15 176 -15 c 0
 170 -15 l 0
 139 -15 113 -7 96 7 c 0
 76 21 65 40 58 61 c 0
 53 77 50 91 50 106 c 0
 50 111 50 116 51 121 c 0
 51 133 53 149 57 168 c 0
 65 205 77 234 91 255 c 0
 110 284 128 305 146 320 c 0
 164 334 180 344 197 347 c 0
 212 350 233 354 258 354 c 0
 264 354 l 0
 303 354 330 345 346 334 c 0
 362 323 372 306 379 281 c 0
 382 265 384 250 384 238 c 0
 384 231 383 224 382 218 c 1
EndSplineSet
EndChar
StartChar: d
Encoding: 100 100 70
Width: 393
Flags: HW
HStem: -15 23 277 77<172 186> 446 23<260 350 350 350>
VStem: 260 90<-2 35 35 35 158 181 301 469>
Fore
450 469 m 1
 350 -2 l 1
 260 -2 l 1
 267 35 l 1
 253 18 236 7 219 -1 c 0
 200 -9 183 -15 168 -15 c 0
 162 -15 l 0
 144 -15 129 -11 117 -7 c 0
 102 -1 89 7 80 19 c 0
 71 31 64 46 59 66 c 0
 53 88 50 108 50 128 c 0
 50 140 51 151 54 163 c 0
 61 203 77 241 99 275 c 0
 132 325 178 353 235 354 c 0
 286 354 316 336 324 301 c 1
 360 469 l 1
 450 469 l 1
244 277 m 0
 218 277 195 263 174 237 c 1
 160 215 151 192 146 170 c 0
 143 158 142 145 142 132 c 0
 142 122 143 111 145 101 c 1
 155 75 172 62 198 62 c 0
 224 62 247 75 266 101 c 1
 281 123 291 146 296 170 c 0
 299 182 300 194 300 206 c 0
 300 216 299 227 295 237 c 0
 288 263 270 277 244 277 c 0
EndSplineSet
EndChar
StartChar: e
Encoding: 101 101 71
Width: 357
Flags: HW
HStem: -15 23 146 61<105 244> 279 75<181 191>
VStem: 15 322<146 153>
Fore
368 146 m 1
 136 146 l 1
 133 132 132 121 132 111 c 0
 132 103 133 96 135 90 c 0
 142 78 151 70 161 66 c 0
 172 61 187 59 205 59 c 1
 219 62 231 67 243 73 c 0
 253 81 261 89 265 98 c 1
 354 98 l 1
 344 77 328 56 308 40 c 0
 287 23 264 9 240 0 c 0
 215 -10 192 -15 171 -15 c 0
 141 -15 113 -6 86 11 c 1
 73 21 62 34 55 49 c 0
 47 63 43 79 41 95 c 0
 42 111 42 124 44 137 c 0
 51 168 57 193 63 211 c 0
 79 253 97 284 121 305 c 0
 145 327 166 340 188 346 c 0
 208 351 229 354 250 354 c 0
 282 354 308 348 328 334 c 0
 346 322 360 305 368 286 c 0
 374 271 378 255 379 240 c 0
 379 223 378 208 377 194 c 0
 375 181 372 165 368 146 c 1
149 207 m 1
 288 207 l 1
 290 214 290 221 290 228 c 0
 290 237 289 247 285 255 c 0
 278 270 264 279 240 279 c 0
 239 279 237 279 236 279 c 0
 213 279 194 271 179 258 c 0
 164 243 153 226 149 207 c 1
EndSplineSet
EndChar
StartChar: f
Encoding: 102 102 72
Width: 213
Flags: HW
HStem: 0 23 281 60<9 58 148 201> 446 23<142 199 199 199>
VStem: 58 90<0 281 341 377>
Fore
69 281 m 1
 81 341 l 1
 130 341 l 1
 139 382 l 2
 145 409 156 431 174 446 c 0
 192 461 214 469 242 469 c 2
 299 469 l 1
 284 401 l 1
 252 401 l 2
 240 401 232 393 228 377 c 2
 220 341 l 1
 273 341 l 1
 261 281 l 1
 208 281 l 1
 148 0 l 1
 58 0 l 1
 118 281 l 1
 69 281 l 1
EndSplineSet
EndChar
StartChar: g
Encoding: 103 103 73
Width: 393
Flags: HW
HStem: -141 199 272 81<171 177>
VStem: 263 85<-12 -9 -9 36 36 36 296 348>
Fore
337 348 m 1
 422 348 l 1
 346 -9 l 2
 341 -31 331 -51 317 -70 c 0
 303 -88 288 -103 269 -114 c 0
 239 -131 193 -141 132 -141 c 0
 123 -141 l 0
 88 -140 61 -128 41 -107 c 0
 26 -92 18 -74 18 -55 c 0
 18 -51 18 -46 19 -41 c 1
 113 -41 l 1
 113 -43 112 -45 112 -47 c 0
 112 -63 128 -74 158 -79 c 1
 183 -79 206 -72 225 -59 c 0
 245 -45 257 -29 260 -12 c 2
 271 36 l 1
 258 25 247 16 238 9 c 0
 228 1 217 -5 206 -8 c 0
 195 -12 181 -15 167 -15 c 0
 143 -15 125 -12 113 -7 c 0
 101 -1 88 9 75 24 c 0
 67 34 61 47 57 62 c 0
 52 77 51 93 50 110 c 0
 51 127 52 144 56 163 c 0
 62 192 73 220 87 246 c 0
 102 273 119 295 139 312 c 0
 171 340 207 354 246 354 c 0
 258 354 269 353 279 349 c 0
 286 346 292 341 299 337 c 0
 303 331 308 327 311 321 c 0
 316 315 320 306 326 296 c 1
 337 348 l 1
242 272 m 0
 215 272 191 260 170 234 c 1
 153 210 143 186 138 165 c 0
 136 155 135 145 135 135 c 0
 135 123 137 110 141 97 c 0
 148 71 168 58 196 58 c 0
 224 58 250 71 270 97 c 0
 285 119 294 141 299 165 c 0
 302 178 303 189 303 201 c 0
 303 212 302 223 299 234 c 1
 288 260 269 272 242 272 c 0
EndSplineSet
EndChar
StartChar: h
Encoding: 104 104 74
Width: 393
Flags: HW
HStem: 0 23 446 23<43 127 127 127>
VStem: 43 90<0 203> 258 90<0 220 220 228>
Fore
227 469 m 1
 191 303 l 1
 221 337 260 354 309 354 c 0
 339 354 366 346 384 330 c 0
 398 319 405 302 405 281 c 0
 405 273 404 264 402 254 c 2
 348 0 l 1
 258 0 l 1
 305 220 l 2
 306 226 307 231 307 236 c 0
 307 244 306 250 305 257 c 0
 301 266 291 271 272 275 c 1
 249 275 229 269 212 258 c 0
 193 245 181 227 176 203 c 2
 133 0 l 1
 43 0 l 1
 143 469 l 1
 227 469 l 1
EndSplineSet
EndChar
StartChar: i
Encoding: 105 105 75
Width: 178
Flags: HW
HStem: 0 23 389 80<43 133>
VStem: 43 90<0 348 389 469>
Fore
126 389 m 1
 143 469 l 1
 233 469 l 1
 216 389 l 1
 126 389 l 1
43 0 m 1
 117 348 l 1
 207 348 l 1
 133 0 l 1
 43 0 l 1
EndSplineSet
EndChar
StartChar: j
Encoding: 106 106 76
Width: 178
Flags: HW
HStem: -141 23 389 80<45 134>
VStem: 45 89<-42 348 389 469>
Fore
128 389 m 1
 145 469 l 1
 234 469 l 1
 217 389 l 1
 128 389 l 1
36 -42 m 2
 119 348 l 1
 208 348 l 1
 120 -64 l 2
 118 -76 114 -86 108 -96 c 0
 100 -106 94 -115 84 -122 c 0
 74 -130 65 -134 53 -136 c 0
 31 -139 5 -141 -28 -141 c 1
 -12 -67 l 1
 4 -67 15 -66 23 -62 c 0
 29 -59 34 -52 36 -42 c 2
EndSplineSet
EndChar
StartChar: k
Encoding: 107 107 77
Width: 357
Flags: HW
HStem: 0 23 446 23<38 128 128 128>
VStem: 38 89<0 108 212 469>
Fore
138 469 m 1
 228 469 l 1
 173 212 l 1
 316 348 l 1
 419 348 l 1
 273 216 l 1
 353 0 l 1
 246 0 l 1
 197 149 l 1
 151 108 l 1
 128 0 l 1
 38 0 l 1
 138 469 l 1
EndSplineSet
EndChar
StartChar: l
Encoding: 108 108 78
Width: 178
Flags: HW
HStem: 0 23 446 23<43 133 133 133>
VStem: 43 90<0 469>
Fore
143 469 m 1
 233 469 l 1
 133 0 l 1
 43 0 l 1
 143 469 l 1
EndSplineSet
EndChar
StartChar: m
Encoding: 109 109 79
Width: 571
Flags: HW
HStem: 0 23 333 23<403 418>
VStem: 38 89<0 214 296 348> 240 89<0 214> 440 90<0 240 240 242>
Fore
128 0 m 1
 38 0 l 1
 112 348 l 1
 202 348 l 1
 191 296 l 1
 210 318 229 332 245 340 c 0
 262 349 284 354 311 354 c 1
 333 351 346 347 354 340 c 0
 363 333 372 321 383 303 c 1
 398 320 415 333 431 342 c 0
 448 351 467 356 491 356 c 0
 496 356 503 355 516 354 c 0
 563 348 585 322 585 279 c 0
 585 268 584 255 581 242 c 2
 530 0 l 1
 440 0 l 1
 491 240 l 2
 491 242 492 245 492 247 c 0
 492 264 479 273 453 277 c 1
 432 277 414 270 401 257 c 0
 385 242 377 228 374 214 c 2
 329 0 l 1
 240 0 l 1
 291 240 l 1
 290 263 277 276 249 277 c 0
 232 277 216 271 201 260 c 0
 186 250 178 234 173 214 c 2
 128 0 l 1
EndSplineSet
EndChar
StartChar: n
Encoding: 110 110 80
Width: 393
Flags: HW
HStem: 0 23 331 23<208 262>
VStem: 41 89<0 223 296 348> 261 90<0 214 214 224>
Fore
41 0 m 1
 115 348 l 1
 204 348 l 1
 193 296 l 1
 206 314 221 329 239 339 c 0
 257 349 275 354 292 354 c 0
 367 354 405 326 405 269 c 0
 405 258 404 247 401 234 c 2
 351 0 l 1
 261 0 l 1
 306 214 l 2
 308 224 310 234 310 242 c 0
 310 250 308 257 306 263 c 0
 301 276 284 281 255 281 c 1
 231 278 214 271 201 260 c 0
 190 250 180 237 177 223 c 2
 130 0 l 1
 41 0 l 1
EndSplineSet
EndChar
StartChar: o
Encoding: 111 111 81
Width: 393
Flags: HW
HStem: -16 78<180 208> 277 77<180 208>
VStem: 23 90<158 182>
Fore
191 -16 m 0
 143 -16 105 -1 79 27 c 0
 65 43 58 63 55 89 c 0
 54 98 53 107 53 117 c 0
 53 134 55 151 59 170 c 0
 65 198 75 225 89 251 c 0
 103 277 119 297 139 312 c 0
 176 340 220 354 269 354 c 0
 319 354 356 340 380 312 c 0
 394 296 404 276 407 251 c 0
 408 243 408 235 408 227 c 0
 408 209 406 190 402 170 c 0
 396 141 386 114 373 89 c 0
 358 63 340 43 320 27 c 0
 284 -1 240 -16 191 -16 c 0
253 277 m 0
 225 277 201 264 181 238 c 0
 165 217 154 194 149 170 c 0
 147 160 146 150 146 141 c 0
 146 127 148 114 152 102 c 0
 161 76 179 62 207 62 c 0
 234 62 259 76 281 102 c 1
 297 125 307 148 312 170 c 0
 314 181 316 191 316 202 c 0
 316 214 314 226 310 238 c 0
 301 266 280 277 253 277 c 0
EndSplineSet
EndChar
StartChar: p
Encoding: 112 112 82
Width: 393
Flags: HW
HStem: -141 23 275 79<213 216>
VStem: 37 89<-141 36 157 177 296 348>
Fore
111 348 m 1
 201 348 l 1
 190 296 l 1
 196 303 203 310 213 318 c 0
 220 325 227 331 236 337 c 0
 242 341 251 346 260 349 c 0
 270 353 282 354 294 354 c 0
 334 354 364 340 384 312 c 0
 396 295 404 273 408 247 c 0
 409 239 409 230 409 222 c 0
 409 203 407 183 403 163 c 0
 396 134 387 108 374 85 c 0
 361 60 346 40 326 24 c 0
 308 9 292 -1 276 -7 c 0
 260 -12 242 -15 218 -15 c 0
 203 -15 189 -12 180 -8 c 0
 171 -5 163 1 157 8 c 0
 150 14 143 24 135 36 c 1
 97 -141 l 1
 7 -141 l 1
 111 348 l 1
261 275 m 0
 235 275 211 261 191 235 c 1
 176 210 167 188 162 167 c 0
 160 156 159 145 159 133 c 0
 159 122 160 111 162 99 c 1
 172 73 190 60 216 60 c 0
 242 60 265 73 284 99 c 1
 299 124 309 147 313 167 c 0
 316 178 317 188 317 200 c 0
 317 211 316 222 313 235 c 1
 304 261 287 275 261 275 c 0
EndSplineSet
EndChar
StartChar: q
Encoding: 113 113 83
Width: 393
Flags: HW
HStem: -141 23 272 81
VStem: 18 90<152 176> 260 89<-141 36 36 36 151 177 296 347>
Fore
423 347 m 1
 319 -141 l 1
 230 -141 l 1
 268 36 l 1
 255 25 244 16 235 9 c 0
 225 1 214 -5 203 -8 c 0
 191 -12 178 -15 163 -15 c 0
 139 -15 120 -12 109 -7 c 0
 96 -1 83 8 71 24 c 0
 59 40 51 60 49 85 c 0
 48 94 47 103 47 112 c 0
 47 129 49 146 53 163 c 0
 59 192 70 220 84 246 c 0
 99 272 116 295 135 312 c 0
 150 324 166 334 183 342 c 0
 198 350 219 354 242 354 c 0
 267 353 285 348 297 338 c 0
 308 329 317 315 323 296 c 1
 334 347 l 1
 423 347 l 1
242 272 m 0
 216 272 193 259 174 233 c 0
 159 211 148 189 143 164 c 0
 141 153 139 142 139 131 c 0
 139 119 141 107 144 94 c 0
 151 68 169 54 195 54 c 0
 220 54 245 68 264 94 c 0
 279 115 290 139 295 164 c 0
 297 176 299 188 299 199 c 0
 299 211 297 222 294 233 c 0
 286 259 268 272 242 272 c 0
EndSplineSet
EndChar
StartChar: r
Encoding: 114 114 84
Width: 249
Flags: HW
HStem: 0 23 331 23<224 237>
VStem: 41 89<0 197 281 348>
Fore
41 0 m 1
 115 348 l 1
 204 348 l 1
 190 281 l 1
 196 293 203 302 211 310 c 0
 218 318 228 325 245 336 c 0
 265 348 286 354 312 354 c 1
 293 262 l 1
 281 263 271 264 262 264 c 0
 242 264 225 260 210 250 c 0
 195 240 181 223 172 197 c 1
 130 0 l 1
 41 0 l 1
EndSplineSet
EndChar
StartChar: s
Encoding: 115 115 85
Width: 357
Flags: HW
HStem: -15 23 331 23<146 166>
VStem: 18 316<103 103>
Fore
40 103 m 1
 129 103 l 1
 130 90 133 81 140 75 c 0
 145 68 152 63 161 60 c 0
 170 56 182 53 196 53 c 0
 197 53 199 53 200 53 c 0
 235 53 255 67 260 89 c 0
 261 91 261 94 261 96 c 0
 261 100 259 104 258 108 c 0
 256 114 251 118 243 119 c 2
 138 151 l 2
 112 159 95 172 87 186 c 0
 82 196 80 206 80 217 c 0
 80 223 81 229 82 236 c 0
 90 273 110 304 143 328 c 0
 168 345 202 354 241 354 c 0
 243 354 245 354 248 354 c 0
 289 354 322 345 343 329 c 0
 362 315 374 301 377 286 c 0
 378 280 379 274 379 267 c 0
 379 257 377 247 375 236 c 1
 288 236 l 1
 290 243 290 249 290 254 c 0
 290 258 290 262 289 264 c 0
 285 270 278 276 265 280 c 0
 253 284 243 286 233 286 c 0
 218 286 204 282 191 276 c 0
 181 271 175 263 172 251 c 0
 172 245 l 0
 172 236 176 231 187 228 c 2
 310 193 l 2
 320 190 329 184 338 176 c 0
 347 168 353 159 356 147 c 0
 358 139 359 132 359 125 c 0
 359 119 358 114 357 108 c 0
 352 87 343 66 327 44 c 0
 310 23 287 7 258 -3 c 0
 248 -7 233 -9 216 -11 c 0
 198 -14 183 -15 169 -15 c 0
 136 -14 112 -9 95 -1 c 0
 57 17 38 45 38 82 c 0
 38 89 39 96 40 103 c 1
EndSplineSet
EndChar
StartChar: t
Encoding: 116 116 86
Width: 213
Flags: HW
HStem: -15 23 281 60<9 53 144 193>
VStem: 53 90<76 86 86 281 341 436>
Fore
81 341 m 1
 125 341 l 1
 146 436 l 1
 237 436 l 1
 216 341 l 1
 265 341 l 1
 253 281 l 1
 204 281 l 1
 162 86 l 2
 161 80 160 74 160 70 c 0
 160 60 163 55 170 55 c 2
 203 54 l 1
 191 -7 l 1
 177 -11 161 -15 146 -15 c 0
 143 -15 140 -15 138 -15 c 0
 124 -15 113 -13 105 -10 c 0
 78 -1 64 19 64 51 c 0
 64 54 l 1
 113 281 l 1
 69 281 l 1
 81 341 l 1
EndSplineSet
EndChar
StartChar: u
Encoding: 117 117 87
Width: 393
Flags: HW
HStem: -15 23 325 23<37 127 127 127 258 348 348 348>
VStem: 37 89<121 132 132 348> 258 90<0 43 43 43 123 348>
Fore
422 348 m 1
 348 0 l 1
 258 0 l 1
 267 43 l 1
 250 24 235 9 220 1 c 0
 207 -7 189 -11 169 -15 c 1
 144 -14 123 -11 107 -7 c 0
 90 -2 77 9 67 27 c 0
 60 39 56 53 56 72 c 0
 56 82 57 93 60 106 c 2
 111 348 l 1
 201 348 l 1
 155 132 l 2
 153 122 152 112 152 104 c 0
 152 96 153 90 156 84 c 0
 161 71 178 66 206 66 c 1
 231 69 249 76 260 86 c 0
 271 96 281 108 284 123 c 2
 332 348 l 1
 422 348 l 1
EndSplineSet
EndChar
StartChar: v
Encoding: 118 118 88
Width: 357
Flags: HW
HStem: 0 23 325 23<9 104 104 104 250 345 345 345>
VStem: 9 336<348 348>
Fore
83 348 m 1
 178 348 l 1
 196 93 l 1
 324 348 l 1
 419 348 l 1
 224 0 l 1
 129 0 l 1
 83 348 l 1
EndSplineSet
EndChar
StartChar: w
Encoding: 119 119 89
Width: 499
Flags: HW
HStem: 0 23 325 23<3 96 96 96 201 295 295 295 399 493 493 493>
VStem: 3 489<348 348>
Fore
77 348 m 1
 170 348 l 1
 172 104 l 1
 275 348 l 1
 369 348 l 1
 367 104 l 1
 473 348 l 1
 567 348 l 1
 396 0 l 1
 303 0 l 1
 301 245 l 1
 193 0 l 1
 101 0 l 1
 77 348 l 1
EndSplineSet
EndChar
StartChar: x
Encoding: 120 120 90
Width: 357
Flags: HW
HStem: 0 23 325 23<14 122 122 122 236 342 342 342>
VStem: 10 333<0 0>
Fore
88 348 m 1
 196 348 l 1
 231 243 l 1
 310 348 l 1
 416 348 l 1
 266 174 l 1
 344 0 l 1
 236 0 l 1
 201 103 l 1
 118 0 l 1
 10 0 l 1
 161 174 l 1
 88 348 l 1
EndSplineSet
EndChar
StartChar: y
Encoding: 121 121 91
Width: 357
Flags: HW
HStem: -141 23 325 23<6 105 105 105 253 346 346 346>
VStem: 6 340<348 348>
Fore
80 348 m 1
 179 348 l 1
 201 95 l 1
 327 348 l 1
 420 348 l 1
 183 -72 l 1
 176 -87 163 -102 147 -116 c 0
 136 -127 118 -132 92 -136 c 0
 67 -139 45 -141 24 -141 c 1
 40 -68 l 1
 68 -68 87 -64 97 -59 c 0
 113 -51 123 -37 127 -20 c 0
 128 -14 128 -10 128 -5 c 0
 128 -4 128 -2 128 0 c 2
 80 348 l 1
EndSplineSet
EndChar
StartChar: z
Encoding: 122 122 92
Width: 320
Flags: HW
HStem: 0 73<125 301> 275 73<26 185>
VStem: 26 270<275 348>
Fore
100 348 m 1
 370 348 l 1
 354 275 l 1
 141 73 l 1
 317 73 l 1
 301 0 l 1
 14 0 l 1
 30 73 l 1
 243 275 l 1
 84 275 l 1
 100 348 l 1
EndSplineSet
EndChar
StartChar: braceleft
Encoding: 123 123 93
Width: 249
Flags: HW
HStem: 446 23<149 203 203 203>
VStem: 77 73<-38 -33 -33 104 233 235 235 372>
Fore
54 142 m 1
 67 202 l 1
 102 202 122 212 127 233 c 2
 158 381 l 2
 164 408 176 429 197 445 c 0
 217 461 234 469 249 469 c 2
 303 469 l 1
 289 406 l 1
 266 406 l 2
 253 406 244 403 240 398 c 0
 234 392 231 383 229 372 c 2
 200 235 l 2
 193 200 167 179 126 172 c 1
 142 170 155 164 165 156 c 0
 172 150 175 141 175 128 c 0
 175 121 174 113 172 104 c 2
 143 -33 l 2
 142 -37 142 -41 142 -44 c 0
 142 -50 143 -54 144 -58 c 0
 146 -63 153 -67 166 -67 c 2
 189 -67 l 1
 175 -130 l 1
 121 -130 l 2
 106 -130 93 -122 79 -106 c 0
 70 -95 65 -81 65 -65 c 0
 65 -58 66 -50 68 -42 c 2
 99 105 l 2
 100 108 100 112 100 115 c 0
 100 133 84 142 54 142 c 1
EndSplineSet
EndChar
StartChar: bar
Encoding: 124 124 94
Width: 179
Flags: HW
HStem: 446 23<64 115 115 115>
VStem: 64 51<-130 469>
Fore
215 469 m 1
 87 -130 l 1
 36 -130 l 1
 164 469 l 1
 215 469 l 1
EndSplineSet
EndChar
StartChar: braceright
Encoding: 125 125 95
Width: 249
Flags: HW
HStem: 446 23<46 101 101 106>
VStem: 99 75<-33 104 104 105 235 372 372 377>
Fore
269 202 m 1
 256 142 l 1
 240 142 228 140 217 134 c 0
 206 129 200 120 196 105 c 2
 165 -42 l 2
 159 -70 145 -92 125 -106 c 0
 105 -122 87 -130 73 -130 c 2
 18 -130 l 1
 32 -67 l 1
 56 -67 l 2
 70 -67 79 -63 83 -58 c 0
 87 -52 90 -44 92 -33 c 2
 121 104 l 2
 130 146 157 168 199 173 c 1
 182 174 168 180 158 188 c 0
 150 193 146 201 146 214 c 0
 146 220 147 227 149 235 c 2
 178 372 l 2
 179 380 180 387 180 393 c 0
 180 395 180 396 180 398 c 0
 178 403 171 407 157 407 c 2
 133 407 l 1
 146 469 l 1
 201 469 l 2
 211 469 220 466 230 460 c 0
 238 453 247 443 253 429 c 0
 256 421 257 413 257 403 c 0
 257 396 257 389 255 381 c 2
 224 234 l 2
 223 231 223 229 223 226 c 0
 223 210 238 202 269 202 c 1
EndSplineSet
EndChar
StartChar: asciitilde
Encoding: 126 126 96
Width: 375
Flags: HW
VStem: 38 295
Fore
108 112 m 1
 62 112 l 1
 74 145 90 170 112 186 c 0
 130 200 146 207 163 207 c 0
 175 207 187 202 197 195 c 2
 255 158 l 2
 267 150 277 146 286 146 c 0
 306 146 318 159 324 186 c 1
 373 186 l 1
 370 173 365 160 360 149 c 0
 353 138 342 125 327 113 c 0
 310 98 295 92 280 92 c 0
 267 92 252 96 237 106 c 2
 173 145 l 2
 164 150 155 154 147 154 c 0
 137 154 128 149 123 141 c 0
 117 133 112 124 108 112 c 1
EndSplineSet
EndChar
StartChar: uni0E10.descless
Encoding: 128 63232 97
Width: 357
Flags: HW
HStem: 0 23
VStem: 226 66<133 186 186 189>
Fore
220 0 m 1
 220 2 220 5 220 8 c 0
 220 25 217 47 213 73 c 0
 207 103 204 118 202 118 c 1
 199 114 193 108 182 102 c 0
 171 96 158 93 141 93 c 0
 117 93 99 101 90 115 c 0
 83 126 79 137 79 151 c 0
 79 156 80 162 81 168 c 0
 85 189 96 207 113 221 c 0
 129 236 149 244 173 245 c 0
 194 245 211 241 223 233 c 0
 233 224 238 209 241 189 c 0
 244 180 247 168 250 155 c 0
 253 141 254 134 254 133 c 2
 266 186 l 2
 269 202 271 214 271 224 c 0
 271 232 270 237 267 241 c 0
 261 249 246 255 223 262 c 0
 198 269 174 276 148 280 c 0
 122 285 102 288 89 289 c 1
 95 314 l 1
 118 339 142 358 166 373 c 0
 189 386 215 393 243 393 c 0
 265 393 289 390 314 381 c 0
 338 373 355 367 365 367 c 0
 377 367 393 371 410 377 c 1
 410 377 410 371 410 358 c 0
 411 353 411 348 411 343 c 0
 411 336 411 330 410 325 c 1
 388 319 369 315 354 315 c 0
 344 315 335 316 328 318 c 0
 320 320 309 324 294 330 c 0
 278 336 266 339 258 341 c 0
 252 344 243 345 233 345 c 0
 223 345 214 342 203 338 c 0
 192 333 184 329 182 325 c 1
 191 324 205 322 226 319 c 0
 246 315 260 312 270 308 c 0
 306 298 328 285 334 268 c 0
 337 260 338 250 338 238 c 0
 338 224 336 208 332 189 c 2
 292 0 l 1
 220 0 l 1
150 138 m 0
 160 138 168 141 173 147 c 0
 181 153 184 159 186 168 c 0
 186 170 187 173 187 175 c 0
 187 180 185 185 182 189 c 0
 179 194 173 198 163 198 c 0
 153 198 145 194 139 189 c 0
 133 183 129 176 128 168 c 0
 127 166 127 164 127 161 c 0
 127 157 128 153 130 148 c 0
 135 142 142 139 150 138 c 0
EndSplineSet
EndChar
StartChar: uni0E34.left
Encoding: 129 63233 98
Width: 0
Flags: HW
VStem: -461 303
Fore
-168 614 m 0
 -140 614 -118 605 -102 591 c 0
 -87 579 -77 564 -72 547 c 0
 -66 530 -62 512 -62 493 c 0
 -62 482 -63 474 -63 467 c 0
 -63 460 -62 454 -62 450 c 1
 -74 453 -88 459 -111 466 c 0
 -134 471 -161 477 -191 481 c 0
 -211 485 -235 486 -263 486 c 0
 -285 486 -304 485 -321 484 c 0
 -338 483 -351 481 -359 480 c 1
 -345 519 -320 550 -286 575 c 0
 -252 600 -214 614 -172 614 c 0
 -171 614 -169 614 -168 614 c 0
-178 568 m 1
 -199 568 -218 565 -236 557 c 0
 -253 549 -265 541 -270 531 c 1
 -267 532 -260 532 -252 533 c 0
 -244 533 -235 533 -225 533 c 0
 -215 533 -202 532 -185 531 c 0
 -164 529 -146 525 -133 522 c 0
 -122 518 -114 514 -109 512 c 1
 -118 545 -141 564 -178 568 c 1
EndSplineSet
EndChar
StartChar: uni0E35.left
Encoding: 130 63234 99
Width: 0
Flags: HW
VStem: -208 60<589 657>
Fore
-155 616 m 0
 -133 616 -117 610 -106 605 c 0
 -94 598 -86 592 -83 589 c 1
 -68 657 l 1
 -8 657 l 1
 -42 501 l 1
 -41 501 -40 490 -40 468 c 0
 -40 450 l 1
 -52 453 -70 460 -98 468 c 0
 -124 476 -151 480 -176 484 c 0
 -197 487 -221 488 -250 488 c 0
 -267 488 -280 488 -292 487 c 0
 -303 486 -314 486 -325 485 c 0
 -337 484 -343 483 -344 483 c 1
 -336 506 -323 528 -303 549 c 0
 -285 571 -264 585 -237 598 c 0
 -213 608 -187 616 -160 616 c 0
 -158 616 -157 616 -155 616 c 0
-166 571 m 1
 -185 571 -202 567 -220 559 c 0
 -239 551 -251 542 -257 532 c 1
 -253 533 -247 533 -239 534 c 0
 -231 536 -219 536 -205 536 c 0
 -197 536 -185 534 -172 533 c 0
 -150 531 -133 528 -121 524 c 0
 -108 520 -100 516 -96 514 c 1
 -99 529 -105 540 -116 550 c 0
 -126 560 -142 567 -166 571 c 1
EndSplineSet
EndChar
StartChar: uni0E36.left
Encoding: 131 63235 100
Width: 0
Flags: HW
VStem: -470 312
Fore
-29 607 m 1
 -36 573 -51 551 -74 541 c 1
 -71 534 -68 523 -65 507 c 0
 -62 490 -62 471 -62 450 c 1
 -75 453 -93 460 -120 468 c 0
 -146 476 -174 480 -199 484 c 0
 -219 487 -244 488 -272 488 c 0
 -289 488 -303 488 -314 487 c 0
 -325 486 -337 486 -348 485 c 0
 -359 484 -366 483 -367 483 c 1
 -359 506 -346 528 -326 549 c 0
 -307 571 -286 585 -259 598 c 0
 -235 609 -207 616 -177 616 c 0
 -174 616 -170 616 -164 615 c 0
 -158 614 -156 614 -156 612 c 1
 -153 622 -144 633 -132 645 c 0
 -119 658 -103 663 -82 663 c 0
 -64 663 -50 658 -41 647 c 0
 -33 637 -29 624 -29 607 c 1
-189 571 m 1
 -208 571 -225 567 -243 559 c 0
 -262 551 -273 544 -279 533 c 1
 -275 534 -269 534 -261 536 c 0
 -253 536 -243 536 -233 536 c 0
 -223 536 -210 534 -194 533 c 0
 -173 531 -156 528 -143 524 c 0
 -131 520 -123 516 -118 514 c 1
 -122 529 -128 540 -138 550 c 0
 -149 560 -165 567 -189 571 c 1
-101 580 m 0
 -95 580 -90 582 -85 586 c 0
 -82 590 -79 594 -77 600 c 0
 -77 603 l 0
 -77 606 -78 610 -80 612 c 0
 -83 617 -86 619 -92 619 c 0
 -104 619 -113 612 -115 600 c 0
 -116 597 -116 595 -116 593 c 0
 -116 584 -111 580 -101 580 c 0
EndSplineSet
EndChar
StartChar: uni0E37.left
Encoding: 132 63236 101
Width: 0
Flags: HW
VStem: -205 56<586 657>
Fore
-80 586 m 1
 -65 657 l 1
 -8 657 l 1
 -42 501 l 1
 -41 501 -40 490 -40 468 c 0
 -40 450 l 1
 -52 453 -70 460 -98 468 c 0
 -124 476 -151 480 -176 484 c 0
 -197 487 -221 488 -250 488 c 0
 -267 488 -280 488 -292 487 c 0
 -303 486 -314 486 -325 485 c 0
 -337 484 -343 483 -344 483 c 1
 -320 537 -289 573 -256 590 c 0
 -221 607 -187 616 -153 616 c 1
 -144 657 l 1
 -91 657 l 1
 -103 602 l 1
 -99 602 -92 597 -80 586 c 1
-166 571 m 1
 -185 571 -202 567 -220 559 c 0
 -239 551 -251 542 -257 532 c 1
 -253 533 -247 533 -239 534 c 0
 -231 536 -219 536 -205 536 c 0
 -197 536 -185 534 -172 533 c 0
 -150 531 -133 528 -121 524 c 0
 -108 520 -100 516 -96 514 c 1
 -99 529 -105 540 -116 550 c 0
 -126 560 -142 567 -166 571 c 1
EndSplineSet
EndChar
StartChar: ellipsis
Encoding: 133 8230 102
Width: 593
VWidth: 2048
Flags: HW
HStem: -14 11G<82 123>
VStem: 44 119<35 41> 228 119<33 41> 415 119<33 35>
Fore
355 35 m 4
 350 8 327 -8 287 -14 c 5
 252 -14 235 0 235 29 c 0
 235 31 235 32 235 34 c 5
 242 68 267 85 307 85 c 4
 324 85 338 79 347 70 c 4
 353 63 357 56 357 46 c 0
 357 43 356 39 355 35 c 4
541 35 m 5
 536 8 513 -8 473 -14 c 5
 440 -14 422 -0 422 27 c 0
 422 29 422 32 422 34 c 5
 429 68 453 85 493 85 c 4
 510 85 523 79 534 70 c 5
 539 63 542 56 542 46 c 0
 542 43 542 39 541 35 c 5
170 35 m 4
 163 2 139 -14 100 -14 c 4
 66 -14 49 -2 49 21 c 0
 49 25 50 30 51 35 c 4
 58 68 81 85 121 85 c 4
 154 85 172 73 172 48 c 0
 172 44 171 40 170 35 c 4
EndSplineSet
EndChar
StartChar: uni0E48.low_left
Encoding: 134 63237 103
Width: 0
Flags: HW
HStem: 454 172<-233 -167>
VStem: -233 66<454 626>
Fore
-136 454 m 1
 -100 626 l 1
 -34 626 l 1
 -70 454 l 1
 -136 454 l 1
EndSplineSet
EndChar
StartChar: uni0E49.low_left
Encoding: 135 63238 104
Width: 0
Flags: HW
VStem: -362 276
Fore
-99 566 m 0
 -104 545 -111 530 -117 520 c 0
 -126 510 -130 504 -134 503 c 1
 -130 504 -126 504 -120 505 c 0
 -113 506 -108 508 -100 512 c 0
 -92 515 -84 519 -75 524 c 0
 -66 530 -59 536 -52 544 c 0
 -35 568 -23 591 -19 610 c 0
 -17 622 -15 631 -15 636 c 1
 49 636 l 1
 32 554 -7 498 -67 472 c 0
 -102 458 -139 450 -179 450 c 0
 -191 450 -201 450 -210 451 c 0
 -219 452 -225 453 -227 454 c 1
 -223 477 l 1
 -219 478 -213 481 -206 487 c 0
 -199 492 -193 497 -191 503 c 1
 -194 503 -200 505 -212 508 c 0
 -223 512 -230 520 -236 532 c 0
 -239 540 -242 549 -242 558 c 0
 -242 563 -241 568 -240 573 c 0
 -236 592 -226 608 -210 620 c 0
 -195 634 -177 641 -157 641 c 0
 -140 641 -127 637 -118 629 c 0
 -109 622 -103 612 -99 600 c 0
 -98 594 -97 589 -97 583 c 0
 -97 577 -98 572 -99 566 c 0
-176 549 m 0
 -169 549 -163 551 -159 556 c 0
 -154 560 -151 566 -149 572 c 0
 -149 573 -149 574 -149 576 c 0
 -149 579 -150 583 -152 586 c 0
 -154 591 -160 593 -167 593 c 0
 -173 593 -179 591 -183 586 c 0
 -189 582 -192 577 -193 572 c 0
 -194 570 -194 568 -194 567 c 0
 -194 563 -193 560 -190 556 c 0
 -188 551 -184 549 -176 549 c 0
EndSplineSet
EndChar
StartChar: uni0E4A.low_left
Encoding: 136 63239 105
Width: 0
Flags: HW
VStem: -426 292
Fore
-264 445 m 0
 -284 446 -297 454 -307 471 c 0
 -312 482 -316 495 -316 509 c 0
 -316 516 -315 524 -313 532 c 0
 -308 554 -297 571 -283 585 c 0
 -268 600 -251 607 -230 607 c 0
 -216 607 -205 605 -201 599 c 0
 -194 593 -190 590 -188 586 c 1
 -185 590 -179 593 -171 599 c 0
 -161 605 -152 607 -140 607 c 0
 -121 607 -106 601 -99 589 c 0
 -94 580 -92 571 -92 559 c 0
 -92 553 -93 546 -94 539 c 0
 -98 521 -107 504 -119 488 c 1
 -115 489 -110 493 -103 497 c 0
 -96 502 -90 507 -84 515 c 0
 -72 531 -65 547 -61 563 c 0
 -59 573 -58 583 -58 593 c 1
 -10 609 l 1
 -9 606 -9 603 -9 598 c 0
 -9 592 -10 585 -12 576 c 0
 -18 544 -32 516 -53 494 c 0
 -69 477 -86 466 -107 460 c 0
 -127 454 -151 452 -180 452 c 1
 -180 453 -179 455 -179 461 c 0
 -179 467 -178 470 -178 470 c 1
 -174 473 -167 479 -159 488 c 0
 -152 497 -146 510 -143 524 c 0
 -141 531 -140 537 -140 543 c 0
 -140 556 -147 563 -159 563 c 0
 -167 563 -174 560 -179 557 c 0
 -185 554 -189 550 -192 548 c 1
 -194 550 -197 554 -204 558 c 0
 -210 563 -218 565 -228 565 c 0
 -246 565 -257 557 -261 540 c 1
 -260 541 -257 541 -252 542 c 0
 -247 544 -242 545 -237 545 c 0
 -222 544 -212 539 -207 530 c 0
 -203 524 -202 517 -202 509 c 0
 -202 503 -202 497 -204 490 c 0
 -206 478 -214 468 -225 459 c 0
 -237 450 -250 445 -264 445 c 0
-251 511 m 0
 -262 511 -268 506 -271 496 c 0
 -271 493 -271 489 -269 486 c 0
 -265 483 -263 480 -258 480 c 0
 -254 480 -251 481 -246 485 c 0
 -243 488 -241 493 -241 496 c 0
 -240 498 -240 499 -240 501 c 0
 -240 503 -240 504 -241 506 c 0
 -245 510 -247 511 -251 511 c 0
EndSplineSet
EndChar
StartChar: uni0E4B.low_left
Encoding: 137 63240 106
Width: 0
Flags: HW
HStem: 519 60<-340 -275 -212 -147>
VStem: -275 62<454 519 579 643>
Fore
-165 519 m 1
 -230 519 l 1
 -217 579 l 1
 -152 579 l 1
 -138 643 l 1
 -75 643 l 1
 -89 579 l 1
 -24 579 l 1
 -37 519 l 1
 -102 519 l 1
 -115 454 l 1
 -178 454 l 1
 -165 519 l 1
EndSplineSet
EndChar
StartChar: uni0E4C.low_left
Encoding: 138 63241 107
Width: 0
Flags: HW
VStem: -313 250
Fore
-0 596 m 0
 -35 590 -68 588 -100 588 c 0
 -81 588 -67 582 -59 570 c 0
 -51 561 -47 550 -47 538 c 0
 -47 534 -47 529 -48 525 c 0
 -51 506 -62 489 -76 476 c 0
 -91 462 -108 454 -129 454 c 0
 -131 454 -132 454 -133 454 c 0
 -158 454 -176 462 -188 476 c 0
 -197 486 -201 499 -201 515 c 0
 -201 521 -201 528 -199 536 c 0
 -189 580 -165 609 -127 626 c 0
 -110 633 -89 637 -59 638 c 0
 -31 641 -11 644 1 649 c 0
 14 653 21 664 25 684 c 1
 82 684 l 1
 78 661 68 642 55 626 c 0
 42 610 23 600 -0 596 c 0
-114 542 m 0
 -121 542 -127 540 -132 537 c 1
 -137 532 -140 527 -141 521 c 0
 -142 519 -142 518 -142 516 c 0
 -142 513 -140 510 -138 506 c 0
 -135 502 -130 499 -123 499 c 0
 -117 499 -110 502 -106 506 c 0
 -102 510 -99 515 -97 521 c 0
 -96 524 -96 526 -96 528 c 0
 -96 538 -102 542 -114 542 c 0
EndSplineSet
EndChar
StartChar: uni0E48.low
Encoding: 139 63242 108
Width: 0
Flags: HW
HStem: 454 172<-120 -54>
VStem: -120 66<454 626>
Fore
-23 454 m 1
 13 626 l 1
 79 626 l 1
 43 454 l 1
 -23 454 l 1
EndSplineSet
EndChar
StartChar: uni0E49.low
Encoding: 140 63243 109
Width: 0
Flags: HW
VStem: -289 275
Fore
-28 566 m 0
 -33 545 -39 529 -47 519 c 0
 -54 510 -58 504 -61 503 c 1
 -59 503 -53 504 -42 507 c 0
 -33 510 -22 513 -11 519 c 0
 0 524 10 533 20 544 c 0
 37 567 48 590 53 612 c 0
 55 623 57 631 57 636 c 1
 120 636 l 1
 103 554 64 498 4 472 c 0
 -30 458 -67 450 -106 450 c 0
 -119 450 -129 450 -138 451 c 0
 -147 452 -153 453 -155 454 c 1
 -151 477 l 1
 -147 478 -141 481 -133 487 c 0
 -127 492 -121 497 -119 503 c 1
 -121 503 -129 505 -141 508 c 0
 -152 512 -159 520 -165 532 c 0
 -168 539 -169 547 -169 554 c 0
 -169 560 -168 566 -167 573 c 0
 -163 591 -153 607 -138 620 c 0
 -123 634 -105 641 -84 641 c 0
 -61 641 -44 633 -35 617 c 0
 -29 607 -26 596 -26 584 c 0
 -26 578 -27 572 -28 566 c 0
-104 549 m 0
 -98 549 -92 551 -87 556 c 0
 -82 562 -79 566 -77 572 c 0
 -77 573 -77 574 -77 576 c 0
 -77 579 -78 583 -80 586 c 0
 -83 591 -89 593 -95 593 c 0
 -102 593 -108 591 -112 586 c 0
 -118 582 -121 577 -122 572 c 0
 -123 570 -123 568 -123 567 c 0
 -123 563 -122 560 -119 556 c 0
 -117 551 -112 549 -104 549 c 0
EndSplineSet
EndChar
StartChar: uni0E4A.low
Encoding: 141 63244 110
Width: 0
Flags: HW
VStem: -339 318
Fore
-172 449 m 0
 -193 449 -208 459 -217 478 c 0
 -223 491 -227 505 -227 520 c 0
 -227 527 -226 534 -224 542 c 0
 -219 565 -207 584 -191 600 c 0
 -175 616 -155 624 -134 624 c 0
 -126 624 -119 623 -112 620 c 0
 -107 618 -102 616 -98 614 c 0
 -96 611 -95 609 -91 607 c 0
 -89 605 -89 602 -88 601 c 1
 -83 605 -78 609 -68 615 c 0
 -59 620 -48 624 -35 624 c 0
 -14 624 0 617 10 605 c 1
 15 597 17 587 17 575 c 0
 17 567 16 559 14 549 c 0
 10 530 1 511 -14 494 c 1
 -10 495 -5 498 3 503 c 0
 10 507 17 514 25 523 c 0
 39 539 48 558 52 580 c 0
 54 587 55 594 55 602 c 0
 55 607 54 612 53 617 c 1
 107 627 l 1
 107 623 108 619 108 615 c 0
 108 608 107 600 105 592 c 0
 97 555 80 524 57 499 c 0
 41 481 23 469 0 463 c 0
 -23 458 -49 454 -79 454 c 1
 -79 455 -79 458 -78 462 c 0
 -78 468 -77 471 -76 475 c 1
 -72 478 -65 485 -58 495 c 0
 -49 505 -43 518 -40 533 c 0
 -38 540 -38 547 -38 552 c 0
 -38 568 -44 576 -58 576 c 0
 -67 576 -75 574 -82 570 c 0
 -89 566 -94 563 -98 559 c 1
 -98 559 l 1
 -98 560 -99 562 -101 565 c 0
 -105 568 -110 571 -113 574 c 0
 -119 576 -124 577 -131 577 c 0
 -152 577 -164 568 -169 551 c 1
 -166 553 -162 554 -158 555 c 0
 -153 556 -148 557 -141 557 c 0
 -125 556 -115 550 -109 540 c 0
 -106 533 -104 523 -104 513 c 0
 -104 508 -104 502 -105 497 c 0
 -108 485 -116 473 -129 463 c 0
 -141 453 -156 449 -172 449 c 0
-150 521 m 0
 -161 521 -169 515 -171 505 c 0
 -171 503 -171 502 -171 501 c 0
 -171 492 -166 488 -157 488 c 0
 -146 488 -139 494 -137 505 c 0
 -136 508 -136 510 -136 511 c 0
 -136 513 -136 514 -137 516 c 0
 -140 520 -144 521 -150 521 c 0
EndSplineSet
EndChar
StartChar: uni0E4B.low
Encoding: 142 63245 111
Width: 0
Flags: HW
HStem: 519 60<-245 -179 -118 -52>
VStem: -179 61<454 519 579 643>
Fore
-69 519 m 1
 -135 519 l 1
 -122 579 l 1
 -56 579 l 1
 -42 643 l 1
 19 643 l 1
 5 579 l 1
 71 579 l 1
 58 519 l 1
 -8 519 l 1
 -21 454 l 1
 -82 454 l 1
 -69 519 l 1
EndSplineSet
EndChar
StartChar: uni0E4C.low
Encoding: 143 63246 112
Width: 0
Flags: HW
VStem: -250 250
Fore
64 596 m 0
 45 592 27 591 9 590 c 0
 -8 589 -24 588 -37 588 c 0
 -17 588 -4 582 5 570 c 1
 12 561 17 551 17 539 c 0
 17 534 16 530 15 525 c 0
 12 506 1 489 -13 476 c 0
 -29 462 -45 455 -66 455 c 0
 -94 455 -114 463 -125 478 c 0
 -134 489 -139 501 -139 516 c 0
 -139 523 -138 529 -136 536 c 0
 -132 557 -122 575 -109 591 c 0
 -98 606 -83 618 -64 626 c 0
 -47 633 -25 637 4 640 c 0
 32 641 52 644 66 649 c 0
 77 652 85 664 89 684 c 1
 145 684 l 1
 135 633 107 603 64 596 c 0
-50 544 m 0
 -57 544 -64 541 -69 537 c 0
 -73 532 -77 528 -78 522 c 0
 -78 519 l 0
 -78 514 -77 511 -75 506 c 0
 -73 502 -68 499 -60 499 c 0
 -53 499 -47 502 -42 506 c 0
 -38 511 -35 516 -34 522 c 0
 -34 524 -34 525 -34 527 c 0
 -34 531 -35 534 -36 538 c 1
 -40 541 -44 544 -50 544 c 0
EndSplineSet
EndChar
StartChar: uni0E0D.descless
Encoding: 144 63247 113
Width: 540
Flags: HW
HStem: 0 59<236 273 339 393>
VStem: 63 67<137 186 186 191> 273 66<59 279> 420 66<92 384>
Fore
568 384 m 1
 502 73 l 2
 497 52 491 36 483 26 c 0
 474 16 463 9 450 6 c 0
 436 2 417 0 393 0 c 2
 236 0 l 1
 249 59 l 1
 286 59 l 1
 334 289 l 2
 335 294 336 298 336 303 c 0
 336 314 331 324 322 331 c 0
 309 341 291 346 267 347 c 0
 257 347 241 345 221 339 c 0
 201 333 184 325 174 315 c 1
 181 314 191 312 206 306 c 0
 220 302 234 295 245 285 c 1
 238 253 l 1
 226 253 213 250 199 242 c 0
 186 234 176 217 171 191 c 2
 159 137 l 1
 160 138 160 138 161 138 c 0
 165 138 l 0
 179 138 192 134 202 128 c 0
 211 121 218 112 221 101 c 0
 223 95 224 88 224 82 c 0
 224 77 223 72 222 66 c 0
 219 53 215 42 207 31 c 0
 198 19 187 10 176 3 c 0
 163 -3 149 -7 135 -7 c 0
 112 -7 95 0 85 15 c 0
 79 24 75 35 75 49 c 0
 75 55 76 61 77 67 c 2
 103 186 l 2
 107 208 114 225 121 237 c 0
 130 250 141 261 156 270 c 1
 152 272 144 276 131 279 c 0
 120 282 106 286 90 287 c 1
 94 308 l 1
 107 323 130 340 163 362 c 0
 196 383 240 393 293 393 c 0
 318 393 338 390 353 382 c 0
 368 374 381 365 387 354 c 0
 394 341 399 329 399 316 c 0
 400 310 400 304 400 299 c 0
 400 292 400 285 398 279 c 2
 352 59 l 1
 406 59 l 2
 419 59 427 61 431 64 c 0
 433 68 436 77 440 92 c 2
 502 384 l 1
 568 384 l 1
144 35 m 0
 149 35 156 36 163 40 c 0
 167 43 172 46 175 51 c 0
 178 55 180 60 181 66 c 0
 182 69 182 72 182 74 c 0
 182 80 181 84 178 88 c 0
 174 94 167 96 157 96 c 0
 147 96 140 93 132 87 c 0
 125 81 121 73 119 66 c 0
 118 64 118 62 118 60 c 0
 118 54 120 49 124 45 c 0
 128 38 134 35 144 35 c 0
EndSplineSet
EndChar
StartChar: quoteleft
Encoding: 145 8216 114
Width: 160
VWidth: 2048
Flags: HW
Fore
110 434 m 4
 117 470 134 497 164 520 c 5
 193 542 220 556 244 558 c 5
 249 540 l 5
 228 530 214 522 206 516 c 5
 194 508 184 495 179 479 c 5
 192 479 205 475 215 468 c 4
 224 462 228 453 228 439 c 0
 228 434 228 430 227 424 c 5
 224 410 217 398 204 384 c 5
 193 374 181 370 165 370 c 4
 142 370 126 375 118 386 c 5
 112 395 108 406 108 418 c 0
 108 423 109 428 110 434 c 4
EndSplineSet
EndChar
StartChar: quoteright
Encoding: 146 8217 115
Width: 159
VWidth: 2048
Flags: HW
Fore
243 486 m 4
 243 483 l 0
 243 449 229 420 204 396 c 5
 179 368 154 351 129 345 c 5
 122 360 l 5
 140 374 154 384 161 391 c 4
 172 400 180 414 182 431 c 5
 177 430 172 429 167 429 c 0
 158 429 149 431 141 435 c 4
 130 441 122 453 122 473 c 4
 123 487 127 501 137 515 c 4
 147 528 160 534 176 537 c 4
 184 538 190 539 197 539 c 0
 210 539 220 536 226 529 c 5
 237 520 243 507 243 490 c 0
 243 489 243 487 243 486 c 4
EndSplineSet
EndChar
StartChar: quotedblleft
Encoding: 147 8220 116
Width: 323
VWidth: 2048
Flags: HW
Fore
109 432 m 4
 114 467 131 495 161 518 c 5
 190 541 216 555 240 558 c 5
 246 541 l 5
 226 530 212 522 203 516 c 4
 190 507 182 495 177 478 c 5
 191 478 203 475 214 468 c 4
 223 463 227 453 227 438 c 0
 227 434 227 429 226 424 c 4
 224 409 216 397 204 384 c 4
 193 374 180 368 164 368 c 4
 163 368 161 368 160 368 c 0
 139 368 125 375 118 385 c 4
 111 395 107 405 107 417 c 0
 107 422 108 427 109 432 c 4
264 436 m 4
 268 470 286 498 316 522 c 5
 343 545 370 558 394 562 c 5
 400 545 l 5
 381 534 366 525 356 519 c 4
 345 511 337 498 330 481 c 5
 343 481 357 478 368 471 c 4
 376 464 380 454 380 437 c 0
 380 434 380 431 380 427 c 4
 377 412 370 400 358 388 c 4
 348 377 334 372 319 372 c 4
 295 372 279 376 272 389 c 5
 265 396 262 406 262 418 c 0
 262 424 262 430 264 436 c 4
EndSplineSet
EndChar
StartChar: quotedblright
Encoding: 148 8221 117
Width: 324
VWidth: 2048
Flags: HW
HStem: 539 11G<58 77 211 231>
Fore
387 472 m 4
 381 438 364 410 333 388 c 4
 305 365 278 353 254 349 c 5
 249 367 l 5
 269 376 283 385 292 391 c 4
 304 400 314 412 319 428 c 5
 305 428 293 433 283 440 c 4
 274 445 270 455 270 469 c 0
 270 474 270 479 271 484 c 4
 274 498 282 511 294 522 c 4
 304 533 318 539 334 539 c 4
 357 539 372 532 380 520 c 5
 386 512 389 502 389 491 c 0
 389 485 389 479 387 472 c 4
233 472 m 4
 229 438 210 410 179 388 c 5
 151 365 125 353 100 349 c 5
 95 367 l 5
 115 376 129 385 138 391 c 4
 151 399 158 411 166 428 c 5
 153 428 141 433 129 440 c 4
 121 445 116 455 116 469 c 0
 116 473 117 478 118 484 c 4
 121 498 128 511 140 522 c 4
 150 533 165 539 181 539 c 4
 204 539 219 532 227 520 c 5
 233 514 236 505 236 493 c 0
 236 487 235 480 233 472 c 4
EndSplineSet
EndChar
StartChar: bullet
Encoding: 149 8226 118
Width: 203
VWidth: 2048
Flags: HW
Fore
120 113 m 0
 86 113 61 124 47 146 c 0
 37 160 32 177 32 195 c 0
 32 203 33 212 35 221 c 0
 39 241 47 259 58 275 c 0
 72 292 88 306 104 315 c 0
 122 325 143 330 166 330 c 0
 190 330 209 325 223 315 c 0
 237 305 246 292 252 276 c 1
 254 268 255 259 255 250 c 0
 255 240 254 231 252 221 c 0
 246 192 230 166 207 145 c 0
 184 124 155 113 120 113 c 0
EndSplineSet
EndChar
StartChar: endash
Encoding: 150 8211 119
Width: 601
VWidth: 2048
Flags: HW
HStem: 189 37<-37 602>
Fore
11 226 m 1
 650 226 l 1
 642 189 l 1
 3 189 l 1
 11 226 l 1
EndSplineSet
EndChar
StartChar: emdash
Encoding: 151 8212 120
Width: 1203
VWidth: 2048
Flags: HW
HStem: 189 37<-73 1205>
Fore
-25 226 m 1
 1253 226 l 1
 1245 189 l 1
 -33 189 l 1
 -25 226 l 1
EndSplineSet
EndChar
StartChar: uni0E31.left
Encoding: 152 63248 121
Width: 0
Flags: HW
VStem: -330 328
Fore
-124 616 m 0
 -102 616 -87 609 -76 596 c 0
 -71 586 -68 575 -68 562 c 0
 -68 556 -68 549 -70 542 c 0
 -71 534 -74 528 -78 521 c 0
 -82 515 -84 511 -87 507 c 1
 -59 507 -32 514 -6 528 c 0
 21 540 47 566 73 606 c 1
 122 585 l 1
 110 558 91 534 68 515 c 0
 45 495 22 479 -6 469 c 0
 -34 459 -64 453 -94 453 c 0
 -104 453 -112 453 -117 454 c 0
 -148 458 -173 468 -193 483 c 0
 -209 494 -217 508 -217 526 c 0
 -217 531 -216 536 -215 542 c 0
 -210 564 -199 581 -183 596 c 0
 -168 609 -148 616 -124 616 c 0
-145 516 m 0
 -136 516 -130 519 -124 524 c 0
 -118 530 -114 537 -112 544 c 0
 -112 545 -112 547 -112 548 c 0
 -112 553 -113 558 -115 563 c 0
 -119 568 -125 571 -134 571 c 0
 -143 571 -150 568 -156 563 c 0
 -162 557 -165 551 -166 544 c 0
 -167 541 -167 539 -167 536 c 0
 -167 532 -166 528 -165 524 c 0
 -161 519 -154 516 -145 516 c 0
EndSplineSet
EndChar
StartChar: uni0E4D.left
Encoding: 153 63249 122
Width: 0
Flags: HW
HStem: 454 153<-257 -233>
VStem: -322 153<521 541>
Fore
-116 607 m 0
 -92 607 -74 600 -65 584 c 0
 -58 575 -55 563 -55 551 c 0
 -55 545 -56 538 -57 531 c 0
 -61 511 -71 493 -89 477 c 0
 -105 462 -124 454 -148 454 c 0
 -172 454 -190 462 -201 477 c 0
 -207 488 -211 501 -211 514 c 0
 -211 519 -210 525 -209 531 c 0
 -205 551 -194 570 -178 584 c 0
 -162 599 -141 607 -116 607 c 0
-139 501 m 0
 -130 501 -122 504 -116 510 c 0
 -109 515 -105 523 -103 531 c 0
 -102 534 -102 536 -102 538 c 0
 -102 543 -104 548 -107 551 c 0
 -111 557 -117 560 -126 560 c 0
 -135 560 -142 558 -149 553 c 0
 -156 547 -160 539 -162 531 c 0
 -163 528 -163 526 -163 523 c 0
 -163 518 -162 513 -159 510 c 0
 -154 504 -148 501 -139 501 c 0
EndSplineSet
EndChar
StartChar: uni0E47.left
Encoding: 154 63250 123
Width: 0
Flags: HW
VStem: -418 279
Fore
-113 454 m 0
 -123 454 -134 457 -142 462 c 0
 -151 468 -158 475 -166 483 c 0
 -175 490 -181 497 -188 502 c 0
 -195 506 -203 508 -211 508 c 0
 -219 508 -225 503 -234 490 c 0
 -242 478 -247 464 -250 452 c 1
 -264 452 l 1
 -277 460 -288 475 -295 494 c 0
 -300 506 -303 518 -303 531 c 0
 -303 538 -302 546 -300 553 c 0
 -298 563 -295 572 -291 580 c 0
 -279 599 -266 611 -251 618 c 0
 -235 625 -216 628 -191 628 c 0
 -179 628 -170 628 -163 627 c 0
 -139 626 -122 625 -114 625 c 0
 -94 625 -79 628 -70 635 c 0
 -59 641 -52 654 -48 675 c 1
 4 675 l 1
 -3 641 -17 617 -37 602 c 0
 -57 588 -87 580 -127 580 c 0
 -146 580 -162 581 -173 582 c 0
 -197 582 -215 579 -226 573 c 0
 -237 567 -245 554 -249 534 c 1
 -247 539 -241 545 -232 550 c 0
 -223 556 -211 559 -194 559 c 0
 -180 559 -170 557 -163 551 c 0
 -156 546 -152 541 -149 538 c 1
 -136 559 -117 571 -89 571 c 0
 -70 571 -56 565 -48 555 c 0
 -43 548 -40 539 -40 529 c 0
 -40 524 -41 519 -42 513 c 0
 -46 496 -55 481 -67 471 c 0
 -79 460 -95 454 -113 454 c 0
-105 495 m 0
 -100 495 -94 497 -91 501 c 0
 -86 504 -84 507 -83 513 c 0
 -83 515 -82 517 -82 518 c 0
 -82 521 -83 523 -85 525 c 0
 -88 529 -92 530 -97 530 c 0
 -103 530 -107 528 -112 524 c 0
 -115 521 -117 516 -118 513 c 0
 -118 511 -119 509 -119 507 c 0
 -119 505 -118 503 -117 501 c 0
 -113 497 -111 495 -105 495 c 0
EndSplineSet
EndChar
StartChar: uni0E48.left
Encoding: 155 63251 124
Width: 0
Flags: HW
HStem: 699 132<-231 -171>
VStem: -231 60<699 832>
Fore
-82 699 m 1
 -54 832 l 1
 6 832 l 1
 -22 699 l 1
 -82 699 l 1
EndSplineSet
EndChar
StartChar: uni0E49.left
Encoding: 156 63252 125
Width: 0
Flags: HW
VStem: -315 232
Fore
-31 770 m 0
 -37 751 -42 738 -48 730 c 0
 -54 722 -58 716 -60 715 c 1
 -59 715 -54 716 -45 719 c 0
 -37 721 -28 724 -18 730 c 0
 -8 736 1 742 8 750 c 0
 17 762 24 773 28 784 c 0
 32 794 36 809 40 828 c 1
 92 828 l 1
 77 757 45 710 -4 689 c 0
 -35 676 -67 670 -98 670 c 0
 -108 670 -116 671 -124 672 c 0
 -132 673 -137 673 -141 675 c 1
 -136 694 l 1
 -132 695 -129 698 -122 702 c 0
 -116 705 -112 710 -110 715 c 1
 -111 715 -118 716 -127 720 c 0
 -136 723 -144 730 -148 740 c 0
 -151 746 -152 752 -152 759 c 0
 -152 764 -151 769 -150 775 c 0
 -147 791 -139 805 -125 816 c 0
 -112 827 -96 833 -80 833 c 0
 -60 833 -45 826 -38 814 c 0
 -33 804 -30 793 -30 782 c 0
 -30 778 -30 774 -31 770 c 0
-98 755 m 0
 -85 755 -76 762 -73 774 c 0
 -73 776 -73 777 -73 778 c 0
 -73 782 -74 785 -76 788 c 0
 -78 791 -83 793 -89 793 c 0
 -94 793 -101 791 -105 788 c 0
 -109 784 -111 780 -112 774 c 0
 -112 771 l 0
 -112 768 -111 764 -109 760 c 0
 -107 757 -103 755 -98 755 c 0
EndSplineSet
EndChar
StartChar: uni0E4A.left
Encoding: 157 63253 126
Width: 0
Flags: HW
VStem: -367 278
Fore
-160 673 m 0
 -179 675 -192 683 -200 699 c 0
 -206 709 -209 720 -209 732 c 0
 -209 740 -208 748 -206 756 c 1
 -200 777 -189 794 -176 807 c 0
 -164 820 -146 827 -127 827 c 0
 -119 827 -111 826 -106 824 c 0
 -91 814 l 0
 -89 810 -87 808 -87 808 c 1
 -87 808 l 1
 -85 811 -79 815 -70 820 c 0
 -62 825 -52 827 -42 827 c 0
 -23 827 -9 822 -3 810 c 0
 2 803 4 794 4 784 c 0
 4 778 3 771 2 764 c 0
 -1 746 -10 729 -21 714 c 1
 -18 715 -13 719 -6 724 c 0
 -0 729 7 734 11 740 c 0
 22 755 31 770 34 786 c 0
 35 792 36 799 36 807 c 0
 36 810 36 812 36 815 c 1
 82 829 l 1
 83 826 83 822 83 818 c 0
 83 812 82 806 81 800 c 0
 74 768 61 741 40 720 c 0
 26 704 9 694 -11 688 c 0
 -31 683 -54 680 -80 680 c 1
 -80 684 -79 686 -79 689 c 0
 -79 693 -78 695 -78 698 c 1
 -74 702 -68 707 -60 715 c 0
 -53 723 -49 734 -44 749 c 0
 -43 755 -42 760 -42 766 c 0
 -42 769 -43 773 -43 776 c 0
 -45 783 -50 786 -60 786 c 0
 -67 786 -73 784 -78 781 c 0
 -85 777 -88 775 -90 772 c 1
 -90 772 l 1
 -90 773 -90 774 -94 776 c 0
 -97 779 -102 781 -106 784 c 0
 -112 786 -119 788 -126 788 c 0
 -143 788 -153 780 -157 765 c 1
 -156 766 -152 766 -148 767 c 0
 -144 768 -140 768 -134 768 c 0
 -121 768 -111 764 -106 755 c 0
 -101 749 -99 741 -99 733 c 0
 -99 728 -100 723 -101 718 c 0
 -104 706 -111 696 -122 687 c 0
 -134 678 -146 673 -160 673 c 0
-148 736 m 0
 -158 736 -164 731 -166 722 c 0
 -166 720 -166 719 -166 717 c 0
 -166 710 -162 707 -154 707 c 0
 -144 707 -138 712 -136 722 c 0
 -136 724 -136 725 -136 726 c 0
 -136 733 -140 736 -148 736 c 0
EndSplineSet
EndChar
StartChar: uni0E4B.left
Encoding: 158 63254 127
Width: 0
Flags: HW
HStem: 728 52<-285 -228 -172 -115>
VStem: -228 56<679 728 780 829>
Fore
-73 728 m 1
 -130 728 l 1
 -119 780 l 1
 -62 780 l 1
 -52 829 l 1
 4 829 l 1
 -6 780 l 1
 51 780 l 1
 40 728 l 1
 -17 728 l 1
 -28 679 l 1
 -84 679 l 1
 -73 728 l 1
EndSplineSet
EndChar
StartChar: uni0E4C.left
Encoding: 159 63255 128
Width: 0
Flags: HW
VStem: -356 212
Fore
-37 759 m 0
 -65 755 -85 755 -98 754 c 0
 -110 753 -118 753 -121 753 c 0
 -104 753 -93 748 -85 738 c 0
 -80 730 -76 721 -76 710 c 0
 -76 707 -76 704 -77 701 c 0
 -80 684 -89 669 -101 658 c 0
 -114 646 -128 640 -146 640 c 0
 -148 640 -151 640 -153 640 c 0
 -172 640 -187 647 -196 659 c 0
 -203 667 -207 678 -207 691 c 0
 -207 697 -206 703 -205 709 c 0
 -197 746 -177 772 -144 785 c 0
 -129 791 -110 796 -86 797 c 0
 -62 798 -46 801 -35 805 c 0
 -23 808 -17 818 -14 834 c 1
 33 834 l 1
 29 815 22 798 10 785 c 0
 -1 772 -17 762 -37 759 c 0
-134 715 m 0
 -146 715 -153 710 -156 697 c 0
 -156 695 -156 693 -156 692 c 0
 -156 683 -152 678 -142 678 c 0
 -129 678 -122 685 -120 697 c 0
 -120 699 -119 701 -119 703 c 0
 -119 705 -120 708 -121 710 c 0
 -124 713 -128 715 -134 715 c 0
EndSplineSet
EndChar
StartChar: uni0E01
Encoding: 161 3585 130
Width: 416
Flags: HW
HStem: 0 23 344 50<194 217>
VStem: 63 67<0 186 186 191> 297 66<0 261 261 267>
Fore
156 270 m 1
 152 272 144 276 131 279 c 0
 120 282 106 286 90 287 c 1
 94 308 l 1
 98 312 104 318 112 325 c 0
 121 333 134 342 151 354 c 0
 167 364 189 374 213 382 c 0
 237 390 264 393 293 393 c 0
 324 393 349 389 369 380 c 0
 390 370 405 356 414 337 c 0
 420 325 423 312 423 296 c 0
 423 287 422 278 420 267 c 2
 363 0 l 1
 297 0 l 1
 352 261 l 2
 354 269 355 277 355 284 c 0
 355 300 350 314 340 323 c 0
 325 338 304 344 276 344 c 0
 244 344 210 333 175 314 c 1
 179 313 182 312 189 311 c 0
 197 310 205 306 215 303 c 0
 226 298 236 293 245 285 c 1
 238 253 l 1
 226 253 213 250 199 242 c 0
 186 234 176 217 171 191 c 2
 130 0 l 1
 63 0 l 1
 103 186 l 2
 107 208 114 225 121 237 c 0
 130 250 141 261 156 270 c 1
EndSplineSet
EndChar
StartChar: uni0E02
Encoding: 162 3586 131
Width: 407
Flags: HW
HStem: 0 59<103 148 215 257> 218 176
VStem: 148 67<59 174 174 176> 287 67<92 384>
Fore
258 288 m 1
 259 295 260 300 260 306 c 0
 260 316 258 324 253 330 c 0
 245 338 236 342 224 344 c 1
 226 340 228 334 230 327 c 0
 231 324 231 320 231 316 c 0
 231 309 230 302 229 295 c 0
 223 272 212 254 196 240 c 0
 178 225 158 218 135 218 c 0
 112 218 95 226 84 241 c 0
 76 251 72 262 72 276 c 0
 72 282 72 288 74 295 c 0
 78 316 88 334 102 349 c 0
 117 364 134 375 153 383 c 0
 173 391 194 394 213 394 c 0
 250 394 279 384 296 364 c 0
 310 349 317 332 317 312 c 0
 317 306 316 300 315 293 c 0
 312 278 309 266 304 258 c 0
 298 249 291 240 283 231 c 0
 274 220 268 212 263 206 c 0
 258 198 255 189 252 176 c 2
 228 59 l 1
 270 59 l 2
 284 59 292 61 296 64 c 0
 301 69 304 78 307 92 c 2
 369 384 l 1
 436 384 l 1
 370 73 l 2
 363 43 352 24 335 15 c 0
 319 5 293 0 257 0 c 2
 103 0 l 1
 116 59 l 1
 161 59 l 1
 185 174 l 2
 188 188 192 199 198 208 c 0
 203 216 212 226 222 236 c 0
 232 246 239 254 244 260 c 0
 249 266 253 276 258 288 c 1
145 264 m 0
 155 264 163 268 170 273 c 0
 175 279 180 286 181 294 c 0
 182 297 182 300 182 302 c 0
 182 307 181 312 179 315 c 0
 174 321 168 323 158 323 c 0
 149 323 141 320 135 314 c 0
 127 308 124 302 122 294 c 0
 122 292 121 289 121 287 c 0
 121 282 123 277 126 273 c 0
 130 268 136 264 145 264 c 0
EndSplineSet
EndChar
StartChar: uni0E03
Encoding: 163 3587 132
Width: 450
Flags: HW
HStem: 0 59<146 192 258 301 301 308>
VStem: 192 66<59 232> 331 66<92 384>
Fore
138 167 m 0
 108 167 89 176 78 195 c 0
 72 207 68 221 68 236 c 0
 68 246 69 256 72 267 c 0
 73 273 75 284 80 297 c 0
 87 319 99 336 115 350 c 0
 131 365 148 376 164 384 c 0
 181 392 195 396 204 396 c 1
 242 372 l 1
 295 396 l 1
 314 392 331 383 346 368 c 0
 358 357 364 344 364 329 c 0
 364 326 364 322 363 318 c 0
 360 305 354 294 347 286 c 0
 339 278 331 271 323 263 c 0
 315 255 310 244 307 232 c 2
 271 59 l 1
 314 59 l 2
 328 59 336 61 341 64 c 0
 345 69 348 78 351 92 c 2
 413 384 l 1
 479 384 l 1
 417 92 l 2
 410 59 398 35 385 21 c 0
 372 7 348 0 314 0 c 2
 146 0 l 1
 159 59 l 1
 205 59 l 1
 242 237 l 2
 249 270 265 292 292 304 c 1
 301 310 307 314 308 320 c 0
 308 323 l 0
 308 330 302 338 288 345 c 1
 231 320 l 1
 183 345 l 1
 170 342 160 337 151 329 c 0
 144 321 138 314 135 308 c 1
 137 310 141 312 146 313 c 0
 152 315 160 316 170 316 c 0
 185 316 198 313 207 306 c 0
 218 301 224 292 227 281 c 0
 229 275 231 268 231 261 c 0
 231 256 230 251 229 245 c 0
 226 223 214 203 198 189 c 0
 182 174 162 167 138 167 c 0
147 212 m 0
 157 212 165 216 170 221 c 0
 177 227 181 234 182 242 c 0
 183 245 183 248 183 251 c 0
 183 256 182 260 179 263 c 0
 176 269 170 271 160 271 c 0
 151 271 143 268 136 262 c 0
 130 257 125 250 123 242 c 0
 123 240 123 238 123 237 c 0
 123 231 124 226 127 221 c 0
 132 216 138 212 147 212 c 0
EndSplineSet
EndChar
StartChar: uni0E04
Encoding: 164 3588 133
Width: 413
Flags: HW
HStem: 0 23 345 52<182 207>
VStem: 89 67<0 67 67 75> 294 66<0 258 258 261>
Fore
219 145 m 0
 215 145 208 146 201 147 c 0
 192 149 188 150 188 151 c 2
 156 0 l 1
 89 0 l 1
 103 67 l 2
 105 77 107 86 107 95 c 0
 107 101 106 107 105 113 c 0
 103 127 98 142 92 159 c 0
 84 176 82 192 79 207 c 0
 78 212 77 218 77 224 c 0
 77 234 79 244 82 257 c 0
 89 287 102 312 124 333 c 0
 144 355 168 371 196 381 c 0
 224 391 252 397 281 397 c 0
 309 397 334 392 358 382 c 0
 380 372 397 356 408 336 c 0
 414 323 418 308 418 292 c 0
 418 282 417 272 414 261 c 2
 359 0 l 1
 294 0 l 1
 349 258 l 2
 351 265 351 272 351 278 c 0
 351 296 345 311 332 322 c 0
 317 337 294 345 266 345 c 0
 237 345 211 337 186 321 c 0
 160 304 144 282 138 254 c 0
 136 244 135 234 135 225 c 0
 135 220 135 214 136 209 c 0
 138 197 139 191 140 191 c 1
 140 191 140 191 140 192 c 0
 144 212 155 235 173 259 c 0
 189 282 216 296 251 297 c 0
 273 297 290 290 302 276 c 0
 309 266 312 254 312 241 c 0
 312 235 312 228 310 221 c 0
 306 200 296 183 279 168 c 0
 262 154 242 146 219 145 c 0
229 191 m 0
 239 191 246 194 253 200 c 0
 259 206 262 212 264 221 c 0
 265 224 265 227 265 229 c 0
 265 234 264 239 262 243 c 0
 258 249 251 251 241 251 c 0
 232 251 225 247 217 242 c 0
 210 236 207 229 205 221 c 0
 204 219 204 216 204 214 c 0
 204 209 206 204 209 200 c 0
 213 194 220 191 229 191 c 0
EndSplineSet
EndChar
StartChar: uni0E05
Encoding: 165 3589 134
Width: 413
Flags: HW
HStem: 0 23
VStem: 89 67<0 67 67 75> 294 66<0 259 259 261>
Fore
225 391 m 1
 279 366 l 1
 347 391 l 1
 368 385 384 374 396 359 c 0
 407 345 415 329 416 311 c 0
 417 304 417 296 417 289 c 0
 417 279 416 270 414 261 c 2
 359 0 l 1
 294 0 l 1
 349 259 l 2
 352 274 353 286 353 296 c 0
 353 299 353 301 353 304 c 0
 352 314 344 324 331 333 c 1
 267 312 l 1
 217 337 l 1
 195 329 179 319 164 304 c 0
 150 289 142 272 138 254 c 0
 136 244 135 234 135 225 c 0
 135 220 135 214 136 209 c 0
 138 197 139 191 140 191 c 1
 140 191 140 191 140 192 c 0
 144 212 155 235 173 259 c 0
 189 282 216 296 251 297 c 0
 273 297 290 290 302 276 c 0
 309 266 312 254 312 241 c 0
 312 235 312 228 310 221 c 0
 306 200 296 183 279 168 c 0
 262 154 242 146 219 145 c 0
 215 145 208 146 201 147 c 0
 192 149 188 150 188 151 c 2
 156 0 l 1
 89 0 l 1
 103 67 l 2
 105 77 107 86 107 95 c 0
 107 101 106 107 105 113 c 0
 103 127 98 142 92 159 c 0
 84 176 82 192 79 207 c 0
 78 212 77 218 77 224 c 0
 77 234 79 244 82 257 c 0
 97 323 145 367 225 391 c 1
229 191 m 0
 239 191 246 194 253 200 c 0
 259 206 262 212 264 221 c 0
 265 224 265 227 265 229 c 0
 265 234 264 239 262 243 c 0
 258 249 251 251 241 251 c 0
 232 251 225 247 217 242 c 0
 210 236 207 229 205 221 c 0
 204 219 204 216 204 214 c 0
 204 209 206 204 209 200 c 0
 213 194 220 191 229 191 c 0
EndSplineSet
EndChar
StartChar: uni0E06
Encoding: 166 3590 135
Width: 517
Flags: HW
HStem: -8 23
VStem: 195 66<59 123 177 227> 398 66<0 3 107 384>
Fore
309 227 m 2
 299 177 l 1
 315 175 332 172 349 164 c 0
 365 157 380 146 394 136 c 0
 408 125 416 115 421 107 c 1
 480 384 l 1
 545 384 l 1
 463 0 l 1
 398 0 l 1
 398 3 l 0
 398 9 395 21 389 38 c 0
 382 58 370 77 353 94 c 0
 337 111 315 120 287 123 c 1
 274 59 l 2
 270 40 259 24 244 11 c 0
 229 -1 210 -8 189 -8 c 0
 163 -8 144 1 133 18 c 0
 125 30 121 43 121 58 c 0
 121 65 121 72 123 79 c 0
 128 104 141 125 161 145 c 0
 181 164 204 175 233 177 c 1
 245 234 l 2
 252 267 268 288 295 301 c 0
 303 304 309 310 310 315 c 0
 310 318 l 0
 310 326 304 334 290 341 c 1
 233 316 l 1
 185 341 l 1
 173 339 163 333 153 324 c 0
 143 314 136 306 133 301 c 1
 135 303 141 305 147 307 c 0
 154 310 162 311 172 312 c 0
 194 312 211 305 221 292 c 0
 229 282 234 269 234 256 c 0
 234 251 233 246 232 241 c 0
 229 219 217 201 199 186 c 0
 182 172 162 164 141 164 c 0
 112 165 92 174 82 191 c 0
 74 203 70 218 70 234 c 0
 70 243 71 252 73 261 c 0
 76 275 80 285 82 293 c 0
 93 321 111 345 139 364 c 0
 166 382 188 391 206 391 c 1
 244 368 l 1
 298 391 l 1
 317 389 334 380 349 365 c 0
 360 353 366 340 366 325 c 0
 366 322 366 318 365 314 c 0
 363 305 360 297 356 290 c 0
 351 285 345 278 338 271 c 0
 329 263 324 258 320 252 c 0
 314 246 311 237 309 227 c 2
176 53 m 0
 178 46 183 43 191 43 c 0
 200 43 205 49 208 59 c 2
 222 125 l 1
 211 124 201 119 191 110 c 0
 183 99 177 89 175 78 c 0
 174 74 174 71 174 67 c 0
 174 62 174 57 176 53 c 0
148 208 m 0
 157 208 165 211 171 217 c 0
 178 223 182 229 184 238 c 0
 184 241 185 244 185 246 c 0
 185 251 184 255 182 259 c 0
 177 264 171 268 161 268 c 0
 152 268 144 264 137 259 c 0
 131 253 127 246 126 238 c 0
 125 235 125 232 125 229 c 0
 125 225 126 221 128 217 c 0
 133 211 139 208 148 208 c 0
EndSplineSet
EndChar
StartChar: uni0E07
Encoding: 167 3591 136
Width: 329
Flags: HW
HStem: -11 23
VStem: 210 66<67 241 241 241>
Fore
281 391 m 0
 303 391 322 384 333 371 c 0
 342 360 346 348 346 335 c 0
 346 330 345 324 344 319 c 2
 288 55 l 2
 283 34 273 18 258 7 c 0
 241 -6 224 -11 205 -11 c 0
 174 -11 153 1 144 26 c 2
 62 241 l 1
 121 275 l 1
 127 260 136 238 147 210 c 0
 158 182 169 150 182 115 c 0
 196 80 202 62 202 61 c 0
 205 51 210 45 213 45 c 0
 217 45 221 52 224 67 c 2
 261 241 l 1
 261 241 260 241 258 241 c 0
 256 240 252 240 249 240 c 0
 225 240 209 247 197 262 c 0
 190 273 186 285 186 298 c 0
 186 304 187 309 188 315 c 0
 192 336 203 354 219 368 c 0
 236 383 257 391 281 391 c 0
259 285 m 0
 269 285 276 288 281 294 c 0
 289 299 292 306 294 315 c 0
 295 318 295 320 295 323 c 0
 295 328 294 333 291 337 c 0
 288 342 281 345 271 345 c 0
 262 345 254 341 247 336 c 0
 241 330 237 323 235 315 c 0
 234 313 234 311 234 308 c 0
 234 303 236 298 238 294 c 0
 243 288 250 285 259 285 c 0
EndSplineSet
EndChar
StartChar: uni0E08
Encoding: 168 3592 137
Width: 389
Flags: HW
HStem: -5 23 338 53<159 195>
VStem: 270 66<63 77 77 262 262 264>
Fore
352 77 m 2
 345 44 333 21 317 11 c 0
 303 1 285 -5 263 -5 c 0
 245 -5 232 0 222 9 c 0
 212 17 207 31 205 50 c 0
 204 62 203 79 203 98 c 0
 201 118 201 128 200 128 c 1
 199 125 193 123 188 120 c 0
 180 116 170 115 157 115 c 0
 135 116 116 123 107 138 c 0
 100 148 97 160 97 173 c 0
 97 178 97 185 99 191 c 0
 103 210 112 228 130 244 c 0
 145 259 167 267 190 267 c 0
 230 267 254 247 257 210 c 0
 264 122 267 72 267 61 c 0
 267 59 267 58 267 58 c 0
 267 47 269 43 272 43 c 0
 276 43 281 50 283 63 c 2
 326 262 l 2
 327 269 328 276 328 282 c 0
 328 299 323 311 313 320 c 0
 299 332 279 338 255 338 c 0
 208 338 163 316 121 275 c 1
 86 305 l 1
 133 363 194 391 268 391 c 0
 312 391 347 380 370 358 c 0
 387 343 396 322 396 296 c 0
 396 286 395 275 392 264 c 2
 352 77 l 2
167 162 m 0
 178 162 185 164 192 170 c 0
 197 175 202 183 204 191 c 0
 204 197 l 0
 204 203 203 208 201 212 c 0
 196 218 191 220 180 220 c 0
 170 220 162 217 157 211 c 0
 150 206 146 199 145 191 c 0
 144 188 144 185 144 182 c 0
 144 178 145 174 148 171 c 0
 153 165 158 162 167 162 c 0
EndSplineSet
EndChar
StartChar: uni0E09
Encoding: 169 3593 138
Width: 449
Flags: HW
HStem: -8 23 340 53<195 220>
VStem: 104 66<102 111 111 111> 296 66<55 127 175 263 263 264>
Fore
149 261 m 0
 170 261 186 254 198 242 c 0
 208 232 212 220 212 207 c 0
 212 202 212 198 211 193 c 2
 192 102 l 1
 209 121 230 136 256 148 c 0
 281 160 307 170 333 175 c 1
 352 263 l 2
 353 270 354 277 354 283 c 0
 354 299 350 312 341 321 c 0
 329 334 307 340 277 340 c 0
 257 340 236 333 214 321 c 0
 192 308 172 294 154 276 c 1
 116 306 l 1
 139 332 165 353 197 370 c 0
 227 385 259 393 294 393 c 0
 341 393 375 382 397 359 c 0
 413 342 422 321 422 295 c 0
 422 285 420 275 418 264 c 2
 399 175 l 1
 421 171 437 159 446 141 c 0
 451 129 455 117 455 102 c 0
 455 94 454 85 451 76 c 0
 446 51 434 31 415 16 c 0
 398 0 378 -8 356 -8 c 0
 339 -8 327 -3 316 7 c 0
 309 14 305 25 305 38 c 0
 305 43 306 48 307 54 c 2
 323 127 l 1
 286 118 253 101 224 77 c 0
 195 53 177 27 167 0 c 1
 104 0 l 1
 128 111 l 1
 127 111 126 111 122 110 c 0
 121 108 119 108 117 108 c 0
 93 110 77 118 66 132 c 0
 59 143 55 154 55 168 c 0
 55 173 56 178 57 184 c 0
 62 205 73 223 88 237 c 0
 106 253 125 261 149 261 c 0
407 81 m 0
 408 87 409 92 409 97 c 0
 409 103 408 108 406 112 c 0
 402 120 396 124 389 127 c 1
 374 55 l 1
 374 49 l 0
 374 43 375 41 380 41 c 0
 383 42 386 44 391 47 c 0
 394 52 397 58 402 64 c 0
 404 70 406 76 407 81 c 0
128 155 m 0
 138 155 146 158 153 164 c 0
 158 170 161 176 163 185 c 0
 164 189 164 192 164 196 c 0
 164 200 164 204 162 207 c 0
 157 212 151 215 141 215 c 0
 132 215 124 211 117 206 c 0
 111 200 107 193 105 185 c 0
 105 182 104 180 104 178 c 0
 104 173 105 169 108 165 c 0
 113 158 119 155 128 155 c 0
EndSplineSet
EndChar
StartChar: uni0E0A
Encoding: 170 3594 139
Width: 415
Flags: HW
HStem: 0 59<113 160 226 264 264 272> 217 175
VStem: 160 66<59 170> 296 66<92 221 221 227>
Fore
268 289 m 0
 270 295 270 301 270 306 c 0
 270 316 268 324 263 330 c 0
 256 340 247 345 238 346 c 1
 240 342 242 336 245 328 c 0
 246 324 246 320 246 316 c 0
 246 310 245 303 244 296 c 0
 239 273 228 254 211 240 c 0
 195 225 174 217 149 217 c 0
 125 217 109 225 97 240 c 0
 89 250 86 262 86 276 c 0
 86 282 86 289 88 296 c 0
 92 314 101 331 117 346 c 0
 131 360 148 372 167 380 c 0
 185 388 203 392 220 392 c 0
 248 392 273 386 291 374 c 0
 312 362 323 346 324 329 c 1
 333 329 349 334 372 346 c 0
 395 356 421 380 451 417 c 1
 491 386 l 1
 475 360 455 341 436 329 c 0
 416 316 401 308 392 305 c 1
 396 303 403 296 410 285 c 0
 413 279 414 271 414 260 c 0
 414 251 413 240 410 227 c 2
 378 73 l 2
 373 52 367 36 361 26 c 0
 353 16 344 9 332 6 c 0
 320 2 303 0 279 0 c 2
 113 0 l 1
 126 59 l 1
 173 59 l 1
 197 176 l 2
 200 189 205 199 210 207 c 0
 216 215 223 224 233 234 c 0
 242 243 248 251 255 258 c 0
 259 264 265 275 268 289 c 0
160 264 m 0
 169 264 177 268 183 273 c 0
 190 279 194 286 195 294 c 0
 196 297 196 300 196 303 c 0
 196 308 195 312 192 315 c 0
 188 321 182 323 173 323 c 0
 164 323 156 320 149 314 c 0
 142 308 139 302 137 294 c 0
 137 291 136 289 136 286 c 0
 136 281 137 277 140 273 c 0
 145 268 151 264 160 264 c 0
321 281 m 1
 317 267 313 255 308 249 c 0
 303 242 299 235 291 228 c 0
 284 220 279 212 275 205 c 0
 269 197 265 184 262 170 c 2
 239 59 l 1
 277 59 l 2
 292 59 301 61 306 64 c 0
 310 69 313 78 316 92 c 2
 343 221 l 2
 345 231 346 239 346 246 c 0
 346 257 344 264 339 269 c 0
 334 277 327 281 321 281 c 1
EndSplineSet
EndChar
StartChar: uni0E0B
Encoding: 171 3595 140
Width: 439
Flags: HW
HStem: 0 59<137 184 250 288 288 295>
VStem: 184 66<59 170> 321 66<92 221 221 227>
Fore
290 396 m 1
 304 394 319 386 333 373 c 0
 347 359 354 345 354 329 c 1
 362 330 377 336 399 348 c 0
 421 359 445 382 474 417 c 1
 516 386 l 1
 500 360 481 341 462 329 c 0
 442 316 427 308 418 305 c 1
 422 303 428 296 435 285 c 0
 437 279 439 271 439 262 c 0
 439 252 437 241 434 227 c 2
 402 73 l 2
 395 43 386 23 374 14 c 0
 360 5 337 0 304 0 c 2
 137 0 l 1
 150 59 l 1
 197 59 l 1
 223 182 l 2
 225 194 230 205 235 212 c 0
 239 218 247 226 258 236 c 0
 268 245 275 253 281 260 c 0
 288 268 292 277 295 289 c 0
 298 299 299 307 299 314 c 0
 299 317 299 320 298 323 c 0
 296 331 291 338 281 345 c 1
 225 320 l 1
 177 345 l 1
 165 342 153 337 146 329 c 0
 138 321 133 314 129 308 c 1
 132 310 135 312 140 313 c 0
 145 315 153 316 164 316 c 0
 179 316 191 313 202 306 c 0
 211 301 218 292 222 281 c 0
 224 274 225 267 225 259 c 0
 225 255 225 250 224 245 c 0
 221 224 209 205 191 190 c 0
 175 175 155 167 132 167 c 0
 104 167 83 176 72 195 c 0
 65 208 62 222 62 239 c 0
 62 248 63 257 65 267 c 0
 66 273 69 284 73 297 c 0
 81 316 92 334 108 349 c 0
 123 364 141 376 158 384 c 0
 175 392 188 396 197 396 c 1
 236 372 l 1
 245 375 256 381 270 386 c 0
 283 392 290 396 290 396 c 1
345 281 m 1
 341 269 336 259 332 252 c 0
 327 244 321 237 315 231 c 0
 308 223 304 215 298 206 c 0
 293 197 289 184 286 170 c 2
 263 59 l 1
 301 59 l 2
 316 59 325 61 329 64 c 0
 334 69 338 78 341 92 c 2
 368 221 l 2
 370 230 371 238 371 244 c 0
 371 256 368 264 363 269 c 0
 357 277 350 281 345 281 c 1
140 212 m 0
 150 212 158 216 165 221 c 0
 170 227 174 234 175 242 c 0
 176 246 176 249 176 253 c 0
 176 257 176 260 174 263 c 0
 169 269 163 271 153 271 c 0
 144 271 136 268 129 262 c 0
 123 257 119 250 117 242 c 0
 117 239 116 237 116 234 c 0
 116 229 117 225 120 221 c 0
 125 216 131 212 140 212 c 0
EndSplineSet
EndChar
StartChar: uni0E0C
Encoding: 172 3596 141
Width: 540
Flags: HW
HStem: -7 23
VStem: 63 67<137 186 186 191> 273 66<144 279> 420 66<90 384>
Fore
349 45 m 2
 346 31 338 18 326 8 c 0
 314 -2 298 -7 279 -7 c 0
 260 -7 246 0 239 14 c 0
 235 22 233 32 233 43 c 0
 233 51 233 59 235 67 c 0
 239 86 248 103 259 116 c 0
 269 129 283 138 304 144 c 1
 334 289 l 2
 335 294 336 298 336 303 c 0
 336 314 331 324 322 331 c 0
 309 341 291 346 267 347 c 0
 257 347 241 345 221 339 c 0
 201 333 184 325 174 315 c 1
 181 314 191 312 206 306 c 0
 220 302 234 295 245 285 c 1
 238 253 l 1
 226 253 213 250 199 242 c 0
 186 234 176 217 171 191 c 2
 159 137 l 1
 160 138 160 138 161 138 c 0
 165 138 l 0
 179 138 192 134 202 128 c 0
 211 121 218 112 221 101 c 0
 223 95 224 88 224 82 c 0
 224 77 223 72 222 66 c 0
 219 53 215 42 207 31 c 0
 198 19 187 10 176 3 c 0
 163 -3 149 -7 135 -7 c 0
 112 -7 95 0 85 15 c 0
 79 24 75 35 75 49 c 0
 75 55 76 61 77 67 c 2
 103 186 l 2
 107 208 114 225 121 237 c 0
 130 250 141 261 156 270 c 1
 152 272 144 276 131 279 c 0
 120 282 107 286 90 287 c 1
 94 308 l 1
 107 323 130 340 163 362 c 0
 196 383 240 393 293 393 c 0
 318 393 338 390 353 382 c 0
 368 374 381 365 387 354 c 0
 394 341 399 329 399 316 c 0
 400 310 400 304 400 299 c 0
 400 292 400 285 398 279 c 2
 369 140 l 1
 382 137 393 131 403 123 c 0
 414 115 423 110 429 104 c 0
 435 98 438 94 439 90 c 1
 502 384 l 1
 568 384 l 1
 486 0 l 1
 420 0 l 1
 418 12 412 29 403 50 c 0
 392 70 378 84 358 89 c 1
 349 45 l 2
144 35 m 0
 149 35 156 36 163 40 c 0
 167 43 172 46 175 51 c 0
 178 55 180 60 181 66 c 0
 182 69 182 72 182 74 c 0
 182 80 181 84 178 88 c 0
 174 94 167 96 157 96 c 0
 147 96 140 93 132 87 c 0
 125 81 121 73 119 66 c 0
 118 64 118 62 118 60 c 0
 118 54 120 49 124 45 c 0
 128 38 134 35 144 35 c 0
292 38 m 1
 305 101 l 1
 294 99 287 95 282 89 c 0
 278 84 274 75 271 62 c 0
 270 59 270 56 270 54 c 0
 270 49 271 45 273 42 c 0
 276 36 279 33 284 33 c 0
 287 33 289 35 292 38 c 1
EndSplineSet
EndChar
StartChar: uni0E0D
Encoding: 173 3597 142
Width: 540
Flags: HW
HStem: 0 59<236 273 339 393>
VStem: 63 67<137 186 186 191> 273 66<59 279> 420 66<92 384>
Fore
568 384 m 1
 502 73 l 2
 497 52 491 36 483 26 c 0
 474 16 463 9 450 6 c 0
 436 2 417 0 393 0 c 2
 236 0 l 1
 249 59 l 1
 286 59 l 1
 334 289 l 2
 335 294 336 298 336 303 c 0
 336 314 331 324 322 331 c 0
 309 341 291 346 267 347 c 0
 257 347 241 345 221 339 c 0
 201 333 184 325 174 315 c 1
 181 314 191 312 206 306 c 0
 220 302 234 295 245 285 c 1
 238 253 l 1
 226 253 213 250 199 242 c 0
 186 234 176 217 171 191 c 2
 159 137 l 1
 160 138 160 138 161 138 c 0
 165 138 l 0
 179 138 192 134 202 128 c 0
 211 121 218 112 221 101 c 0
 223 95 224 88 224 82 c 0
 224 77 223 72 222 66 c 0
 219 53 215 42 207 31 c 0
 198 19 187 10 176 3 c 0
 163 -3 149 -7 135 -7 c 0
 112 -7 95 0 85 15 c 0
 79 24 75 35 75 49 c 0
 75 55 76 61 77 67 c 2
 103 186 l 2
 107 208 114 225 121 237 c 0
 130 250 141 261 156 270 c 1
 152 272 144 276 131 279 c 0
 120 282 106 286 90 287 c 1
 94 308 l 1
 107 323 130 340 163 362 c 0
 196 383 240 393 293 393 c 0
 318 393 338 390 353 382 c 0
 368 374 381 365 387 354 c 0
 394 341 399 329 399 316 c 0
 400 310 400 304 400 299 c 0
 400 292 400 285 398 279 c 2
 352 59 l 1
 406 59 l 2
 419 59 427 61 431 64 c 0
 433 68 436 77 440 92 c 2
 502 384 l 1
 568 384 l 1
327 -130 m 1
 342 -130 357 -123 375 -110 c 0
 392 -95 405 -66 415 -21 c 1
 480 -21 l 1
 471 -63 457 -96 436 -121 c 0
 416 -146 394 -163 371 -172 c 0
 347 -182 324 -186 300 -186 c 0
 280 -186 264 -184 251 -179 c 0
 227 -170 212 -158 205 -144 c 0
 201 -135 199 -124 199 -113 c 0
 199 -105 200 -97 202 -89 c 0
 206 -69 218 -52 234 -38 c 0
 249 -24 268 -17 291 -17 c 0
 315 -17 332 -24 341 -38 c 0
 346 -48 349 -59 349 -71 c 0
 349 -77 348 -84 347 -90 c 0
 343 -107 337 -121 327 -130 c 1
269 -120 m 0
 279 -120 288 -116 295 -111 c 0
 302 -105 306 -97 308 -89 c 0
 309 -87 309 -85 309 -82 c 0
 309 -77 307 -72 305 -68 c 0
 300 -62 292 -59 282 -59 c 0
 273 -59 265 -62 258 -68 c 0
 251 -73 247 -81 245 -89 c 0
 245 -91 244 -93 244 -94 c 0
 244 -101 247 -106 249 -111 c 0
 254 -116 260 -120 269 -120 c 0
144 35 m 0
 149 35 156 36 163 40 c 0
 167 43 172 46 175 51 c 0
 178 55 180 60 181 66 c 0
 182 69 182 72 182 74 c 0
 182 80 181 84 178 88 c 0
 174 94 167 96 157 96 c 0
 147 96 140 93 132 87 c 0
 125 81 121 73 119 66 c 0
 118 64 118 62 118 60 c 0
 118 54 120 49 124 45 c 0
 128 38 134 35 144 35 c 0
EndSplineSet
EndChar
StartChar: uni0E0E
Encoding: 174 3598 143
Width: 454
Flags: HW
HStem: -184 167
VStem: 334 66<-95 261 261 267>
Fore
261 -53 m 1
 274 -61 287 -68 295 -76 c 0
 304 -85 310 -92 314 -95 c 1
 389 261 l 2
 391 269 391 276 391 282 c 0
 391 299 386 312 376 323 c 0
 362 337 341 344 314 344 c 0
 299 344 281 341 263 336 c 0
 245 331 229 324 213 314 c 1
 220 313 230 311 244 306 c 0
 257 303 270 295 282 285 c 1
 275 253 l 1
 264 253 252 250 237 242 c 0
 224 234 213 217 208 191 c 2
 182 69 l 2
 177 46 166 28 151 15 c 0
 136 0 117 -7 91 -8 c 1
 68 -7 50 0 40 15 c 0
 33 25 29 37 29 50 c 0
 29 55 30 61 31 67 c 0
 36 88 47 106 63 121 c 0
 79 136 100 144 124 144 c 0
 126 144 128 144 129 144 c 0
 129 142 129 142 131 142 c 1
 141 186 l 2
 145 208 152 225 160 237 c 0
 168 250 179 261 194 270 c 1
 189 272 181 276 169 279 c 0
 157 282 143 286 127 287 c 1
 131 308 l 1
 135 312 141 318 149 325 c 0
 158 333 171 342 188 354 c 0
 205 364 226 374 249 382 c 0
 274 390 301 393 330 393 c 0
 360 393 385 389 406 379 c 0
 428 370 442 355 451 336 c 0
 457 323 460 309 460 294 c 0
 460 285 459 276 457 267 c 2
 361 -184 l 1
 295 -184 l 1
 285 -164 274 -147 261 -134 c 0
 247 -122 238 -113 231 -108 c 1
 219 -129 202 -147 180 -162 c 0
 158 -175 135 -184 107 -184 c 0
 106 -184 104 -184 103 -184 c 0
 82 -184 65 -175 52 -159 c 0
 43 -149 39 -136 39 -121 c 0
 39 -115 39 -108 41 -101 c 0
 47 -75 60 -55 80 -41 c 0
 100 -26 125 -18 152 -17 c 0
 171 -17 191 -21 213 -29 c 1
 214 -26 217 -19 222 -11 c 0
 225 -3 229 7 235 21 c 1
 288 9 l 1
 285 -1 279 -14 274 -26 c 0
 269 -38 265 -47 261 -53 c 1
100 35 m 0
 110 35 119 38 126 45 c 0
 133 52 138 60 139 68 c 0
 140 72 140 76 140 80 c 0
 140 84 140 88 138 92 c 0
 133 97 124 101 114 101 c 0
 103 101 96 97 89 92 c 0
 81 85 76 77 74 68 c 0
 74 66 74 64 74 63 c 0
 74 56 75 50 79 45 c 0
 83 38 89 35 100 35 c 0
141 -124 m 0
 155 -119 164 -112 171 -103 c 0
 179 -95 183 -88 186 -82 c 1
 173 -76 158 -72 142 -72 c 0
 129 -72 117 -76 110 -81 c 0
 101 -87 95 -95 93 -104 c 0
 93 -105 93 -105 93 -106 c 0
 93 -108 93 -111 94 -114 c 0
 95 -124 103 -129 120 -129 c 0
 129 -129 136 -128 141 -124 c 0
EndSplineSet
EndChar
StartChar: uni0E0F
Encoding: 175 3599 144
Width: 454
Flags: HW
VStem: 334 66<-97 261 261 267>
Fore
283 -58 m 1
 313 -97 l 1
 389 261 l 2
 391 269 391 276 391 282 c 0
 391 299 386 312 376 323 c 0
 362 337 341 344 314 344 c 0
 299 344 281 341 263 336 c 0
 245 331 229 324 213 314 c 1
 220 313 230 311 244 306 c 0
 257 303 270 295 282 285 c 1
 275 253 l 1
 264 253 252 250 237 242 c 0
 224 234 213 217 208 191 c 2
 182 69 l 2
 177 46 166 28 151 15 c 0
 136 0 117 -7 91 -8 c 1
 68 -7 50 0 40 15 c 0
 33 25 29 37 29 50 c 0
 29 55 30 61 31 67 c 0
 36 88 47 106 63 121 c 0
 79 136 100 144 124 144 c 0
 126 144 128 144 129 144 c 0
 129 142 129 142 131 142 c 1
 141 186 l 2
 145 208 152 225 160 237 c 0
 168 250 179 261 194 270 c 1
 189 272 181 276 169 279 c 0
 157 282 143 286 127 287 c 1
 131 308 l 1
 135 312 141 318 149 325 c 0
 158 333 171 342 188 354 c 0
 205 364 226 374 249 382 c 0
 274 390 301 393 330 393 c 0
 360 393 385 389 406 379 c 0
 428 370 442 355 451 336 c 0
 457 323 460 309 460 294 c 0
 460 285 459 276 457 267 c 2
 361 -184 l 1
 299 -184 l 1
 265 -129 l 1
 201 -184 l 1
 197 -173 193 -163 187 -153 c 0
 182 -142 178 -137 175 -133 c 1
 170 -141 160 -153 146 -165 c 0
 130 -179 111 -185 86 -185 c 0
 67 -185 51 -179 42 -164 c 0
 35 -154 31 -142 31 -128 c 0
 31 -120 32 -113 34 -104 c 1
 41 -84 53 -68 69 -56 c 0
 86 -45 104 -40 123 -40 c 0
 142 -40 160 -45 173 -55 c 1
 177 -50 182 -40 189 -25 c 0
 196 -11 202 3 206 19 c 1
 253 11 l 1
 235 -37 219 -70 208 -87 c 1
 209 -88 212 -92 215 -95 c 0
 217 -98 220 -103 222 -107 c 1
 232 -99 245 -89 261 -77 c 0
 275 -64 282 -59 283 -58 c 1
100 35 m 0
 111 36 120 40 125 46 c 0
 131 52 135 59 136 68 c 0
 137 72 137 75 137 79 c 0
 137 83 136 88 134 92 c 0
 129 97 120 101 108 101 c 0
 98 99 90 96 83 90 c 0
 77 84 72 77 71 69 c 0
 70 66 70 64 70 62 c 0
 70 55 72 50 77 45 c 1
 80 38 88 35 100 35 c 0
114 -133 m 0
 121 -130 129 -123 135 -115 c 0
 140 -107 143 -104 143 -103 c 1
 143 -103 l 1
 133 -93 123 -87 112 -87 c 0
 100 -87 88 -93 82 -105 c 1
 81 -110 80 -114 80 -118 c 0
 80 -131 87 -137 99 -137 c 0
 104 -137 109 -136 114 -133 c 0
EndSplineSet
EndChar
StartChar: uni0E10
Encoding: 176 3600 145
Width: 343
Flags: HW
VStem: 218 66<133 186 186 189>
Fore
214 0 m 1
 214 19 211 43 206 73 c 0
 201 103 197 118 196 118 c 0
 191 114 185 108 175 102 c 0
 164 96 150 93 133 93 c 0
 109 93 91 101 82 115 c 0
 75 126 71 137 71 151 c 0
 71 156 72 162 73 168 c 0
 77 189 88 207 105 221 c 0
 121 236 141 244 165 245 c 0
 186 245 204 241 215 233 c 0
 225 224 230 209 234 189 c 0
 236 180 239 168 242 155 c 0
 245 141 246 134 246 133 c 2
 258 186 l 2
 261 203 263 216 263 225 c 0
 263 231 l 0
 261 240 258 246 252 250 c 0
 246 253 235 257 216 262 c 0
 191 269 167 276 141 280 c 0
 115 285 95 288 82 289 c 1
 88 314 l 1
 102 329 116 342 131 355 c 0
 148 367 165 377 182 383 c 0
 198 390 217 393 237 393 c 0
 258 393 281 389 306 381 c 0
 331 372 348 367 358 367 c 0
 371 367 386 371 403 377 c 0
 404 377 404 371 405 358 c 0
 405 346 404 334 403 325 c 1
 381 319 362 315 347 315 c 0
 337 315 328 316 321 318 c 0
 313 320 302 324 287 330 c 0
 271 336 260 339 252 341 c 0
 244 344 235 345 226 345 c 0
 215 345 206 342 195 338 c 0
 184 333 177 329 175 325 c 1
 184 324 198 322 218 319 c 0
 238 315 252 311 262 308 c 0
 299 297 322 285 327 268 c 0
 329 260 330 251 330 240 c 0
 330 226 328 209 324 189 c 2
 284 0 l 1
 214 0 l 1
179 -170 m 1
 200 -157 l 1
 202 -144 l 1
 201 -145 197 -145 194 -145 c 0
 174 -145 160 -138 150 -125 c 0
 144 -117 141 -106 141 -95 c 0
 141 -90 142 -85 143 -80 c 0
 147 -63 156 -47 172 -35 c 0
 185 -23 203 -16 222 -16 c 0
 241 -16 255 -21 264 -34 c 0
 271 -42 274 -52 274 -63 c 0
 274 -68 274 -72 273 -77 c 2
 258 -145 l 2
 256 -156 251 -165 242 -172 c 0
 234 -180 224 -186 213 -192 c 0
 202 -198 188 -206 172 -214 c 1
 133 -189 l 1
 89 -212 l 1
 65 -182 l 1
 51 -204 29 -216 0 -216 c 0
 -3 -216 l 0
 -20 -216 -32 -208 -41 -197 c 0
 -46 -188 -49 -178 -49 -167 c 0
 -49 -162 -48 -157 -47 -151 c 0
 -44 -136 -34 -122 -18 -112 c 0
 -4 -102 13 -96 30 -96 c 0
 46 -96 58 -102 69 -112 c 1
 71 -106 75 -97 81 -82 c 0
 87 -68 91 -51 95 -32 c 1
 138 -32 l 1
 134 -53 128 -73 120 -93 c 0
 113 -112 103 -130 93 -145 c 1
 107 -163 l 2
 109 -163 114 -159 125 -154 c 0
 137 -148 142 -145 142 -144 c 1
 179 -170 l 1
21 -134 m 0
 13 -134 6 -137 2 -141 c 0
 -3 -146 -6 -151 -7 -157 c 0
 -7 -159 -8 -161 -8 -162 c 0
 -8 -172 -1 -176 12 -176 c 0
 19 -176 26 -173 34 -166 c 0
 39 -160 44 -155 46 -150 c 1
 45 -147 41 -144 38 -140 c 0
 33 -137 28 -134 21 -134 c 0
203 -106 m 0
 211 -106 218 -104 223 -98 c 0
 229 -94 232 -88 234 -81 c 0
 234 -80 234 -78 234 -76 c 0
 234 -72 233 -68 231 -63 c 0
 228 -58 222 -55 214 -55 c 0
 206 -55 199 -58 195 -63 c 0
 188 -69 185 -75 184 -81 c 0
 183 -83 183 -86 183 -88 c 0
 183 -92 184 -95 187 -98 c 0
 189 -104 195 -106 203 -106 c 0
144 139 m 0
 154 139 161 142 168 148 c 0
 174 154 178 160 180 168 c 0
 180 174 l 0
 180 179 179 184 177 189 c 0
 172 194 166 198 156 198 c 0
 146 198 138 194 133 189 c 0
 126 183 122 176 121 168 c 0
 120 165 120 163 120 161 c 0
 120 156 121 152 124 148 c 0
 128 142 135 139 144 139 c 0
EndSplineSet
EndChar
StartChar: uni0E11
Encoding: 177 3601 146
Width: 529
Flags: HW
HStem: 0 23
VStem: 184 66<158 234> 410 66<0 290 290 295>
Fore
300 234 m 2
 284 158 l 1
 384 321 l 2
 400 345 413 362 424 372 c 0
 435 382 453 386 478 386 c 0
 513 386 534 379 539 363 c 0
 542 355 544 345 544 334 c 0
 544 322 542 310 539 295 c 2
 476 0 l 1
 410 0 l 1
 472 290 l 2
 475 308 477 320 477 325 c 0
 477 331 473 333 468 334 c 0
 462 334 457 332 453 329 c 0
 450 325 448 322 447 319 c 2
 246 0 l 1
 184 0 l 1
 234 237 l 2
 241 270 257 292 284 304 c 1
 293 310 299 314 300 320 c 0
 300 323 l 0
 300 330 293 337 280 345 c 1
 223 320 l 1
 175 345 l 1
 162 342 152 337 143 329 c 0
 136 321 130 314 127 308 c 1
 129 310 133 312 138 313 c 0
 144 315 152 316 162 316 c 0
 177 316 190 313 199 306 c 0
 210 301 217 292 220 281 c 0
 222 274 223 267 223 259 c 0
 223 254 222 250 222 245 c 0
 218 224 207 205 189 190 c 0
 173 175 153 167 130 167 c 0
 102 167 81 176 70 194 c 0
 64 205 60 219 60 235 c 0
 60 245 61 255 64 266 c 0
 67 280 70 290 72 297 c 0
 79 316 91 334 107 350 c 0
 123 365 139 376 157 384 c 0
 172 392 186 396 196 396 c 1
 234 372 l 1
 287 396 l 1
 306 392 323 383 337 368 c 0
 348 357 354 344 354 329 c 0
 354 326 354 322 353 318 c 0
 350 308 348 302 344 296 c 0
 340 292 334 286 327 279 c 0
 320 272 315 266 309 260 c 0
 305 254 302 245 300 234 c 2
139 212 m 0
 149 212 157 216 163 221 c 0
 169 227 173 234 174 242 c 0
 175 245 175 249 175 252 c 0
 175 256 174 260 172 263 c 0
 168 269 162 271 152 271 c 0
 143 271 135 268 128 262 c 0
 122 257 117 250 115 242 c 0
 115 240 115 238 115 237 c 0
 115 231 116 226 119 221 c 0
 124 216 130 212 139 212 c 0
EndSplineSet
EndChar
StartChar: uni0E12
Encoding: 178 3602 147
Width: 559
Flags: HW
HStem: -7 23
VStem: 293 66<144 261> 438 66<90 384>
Fore
147 80 m 1
 157 90 167 102 177 114 c 0
 185 124 196 136 206 147 c 1
 189 148 178 156 168 171 c 0
 162 180 159 192 159 204 c 0
 159 210 160 217 161 223 c 0
 166 244 176 261 195 276 c 0
 212 290 231 297 254 297 c 0
 278 297 295 290 304 277 c 0
 311 266 316 253 316 238 c 0
 316 233 315 227 314 221 c 0
 310 197 297 174 279 155 c 2
 142 0 l 1
 85 0 l 1
 93 34 95 61 95 80 c 0
 95 89 l 0
 94 90 91 103 85 124 c 0
 78 146 73 167 72 188 c 0
 71 194 71 200 71 206 c 0
 71 220 73 235 77 252 c 0
 84 284 104 313 134 339 c 0
 164 365 193 383 223 391 c 1
 279 365 l 1
 346 392 l 1
 381 373 402 355 411 337 c 0
 415 328 418 316 418 301 c 0
 418 289 416 276 413 261 c 2
 388 140 l 1
 406 136 420 128 433 116 c 0
 445 105 453 96 457 90 c 1
 520 384 l 1
 586 384 l 1
 504 0 l 1
 437 0 l 1
 436 12 430 29 421 50 c 0
 412 70 398 84 377 89 c 1
 368 45 l 2
 365 31 357 18 344 8 c 0
 332 -2 318 -7 298 -7 c 0
 279 -7 266 0 258 14 c 0
 254 22 251 32 251 44 c 0
 251 51 252 59 254 67 c 0
 258 86 267 103 278 116 c 0
 288 129 302 138 324 144 c 1
 350 270 l 2
 352 281 354 290 354 298 c 0
 354 306 352 312 351 316 c 0
 347 325 341 333 332 339 c 1
 268 316 l 1
 212 339 l 1
 167 318 140 287 132 250 c 0
 130 241 129 231 129 221 c 0
 129 199 133 174 142 145 c 0
 146 129 147 115 149 103 c 0
 149 92 148 84 147 80 c 1
310 38 m 1
 323 101 l 1
 306 98 295 86 290 62 c 0
 289 59 289 56 289 53 c 0
 289 49 290 45 291 42 c 0
 295 36 299 33 302 33 c 0
 305 33 308 35 310 38 c 1
232 191 m 0
 242 191 249 194 255 200 c 0
 262 206 265 212 267 221 c 0
 268 224 268 226 268 229 c 0
 268 234 267 239 264 243 c 0
 261 249 254 251 244 251 c 0
 235 251 228 247 221 242 c 0
 214 236 211 229 209 221 c 0
 208 219 208 216 208 214 c 0
 208 209 210 204 213 200 c 0
 216 194 223 191 232 191 c 0
EndSplineSet
EndChar
StartChar: uni0E13
Encoding: 179 3603 148
Width: 558
Flags: HW
HStem: -8 23
VStem: 63 67<137 186 186 191> 273 66<120 279> 420 66<54 55 55 127 175 384>
Fore
273 0 m 1
 334 289 l 2
 335 294 336 298 336 303 c 0
 336 314 331 324 322 331 c 0
 309 341 291 346 267 347 c 0
 257 347 241 345 221 339 c 0
 201 333 184 325 174 315 c 1
 181 314 191 312 206 306 c 0
 220 302 234 295 245 285 c 1
 238 253 l 1
 226 253 213 250 199 242 c 0
 186 234 176 217 171 191 c 2
 159 137 l 1
 160 138 160 138 161 138 c 0
 165 138 l 0
 179 138 192 134 202 128 c 0
 211 121 218 112 221 101 c 0
 223 95 224 88 224 82 c 0
 224 77 223 72 222 66 c 0
 219 53 215 42 207 31 c 0
 198 19 187 10 176 3 c 0
 163 -3 149 -7 135 -7 c 0
 112 -7 95 0 85 15 c 0
 79 24 75 35 75 49 c 0
 75 55 76 61 77 67 c 2
 103 186 l 2
 107 208 114 225 121 237 c 0
 130 250 141 261 156 270 c 1
 152 272 144 276 131 279 c 0
 120 282 107 286 90 287 c 1
 94 308 l 1
 107 323 130 340 163 362 c 0
 196 383 240 393 293 393 c 0
 318 393 338 390 353 382 c 0
 368 374 381 365 387 354 c 0
 394 341 399 329 399 316 c 0
 400 310 400 304 400 299 c 0
 400 292 400 285 398 279 c 2
 365 120 l 1
 377 132 393 144 412 155 c 0
 431 166 446 173 457 175 c 1
 502 384 l 1
 568 384 l 1
 523 175 l 1
 546 171 562 159 571 141 c 0
 576 130 579 119 579 106 c 0
 579 97 577 87 575 76 c 0
 570 51 558 31 540 16 c 0
 522 0 502 -8 481 -8 c 0
 464 -8 450 -3 439 7 c 0
 433 14 429 24 429 37 c 0
 429 42 430 48 431 54 c 2
 447 127 l 1
 424 118 401 101 381 77 c 0
 361 53 346 28 337 0 c 1
 273 0 l 1
144 35 m 0
 149 35 156 36 163 40 c 0
 167 43 172 46 175 51 c 0
 178 55 180 60 181 66 c 0
 182 69 182 72 182 74 c 0
 182 80 181 84 178 88 c 0
 174 94 167 96 157 96 c 0
 147 96 140 93 132 87 c 0
 125 81 121 73 119 66 c 0
 118 64 118 62 118 60 c 0
 118 54 120 49 124 45 c 0
 128 38 134 35 144 35 c 0
531 81 m 0
 532 86 533 90 533 94 c 0
 533 101 531 106 529 111 c 0
 524 119 519 124 513 127 c 1
 498 55 l 2
 497 52 497 49 497 48 c 0
 497 43 499 41 503 41 c 0
 508 42 515 46 519 54 c 0
 525 62 529 71 531 81 c 0
EndSplineSet
EndChar
StartChar: uni0E14
Encoding: 180 3604 149
Width: 412
Flags: HW
HStem: 0 23 337 56<180 193>
VStem: 24 56<241 252> 293 66<0 261>
Fore
277 393 m 0
 332 392 371 380 393 354 c 0
 409 335 416 314 416 290 c 0
 416 281 415 271 413 261 c 2
 358 0 l 1
 293 0 l 1
 350 267 l 2
 351 272 352 277 352 282 c 0
 352 298 345 310 332 320 c 0
 315 331 295 337 267 337 c 0
 237 337 208 328 181 312 c 0
 155 295 138 273 132 244 c 0
 130 237 130 229 130 220 c 0
 130 200 134 176 142 145 c 0
 146 129 147 115 149 103 c 0
 149 92 148 84 147 80 c 1
 157 90 167 102 177 113 c 0
 186 123 195 134 206 146 c 1
 189 147 178 155 168 170 c 0
 162 179 159 191 159 203 c 0
 159 209 160 215 161 221 c 0
 166 243 176 260 194 275 c 0
 211 289 231 296 254 296 c 0
 278 296 294 289 304 276 c 0
 311 265 316 252 316 236 c 0
 316 231 315 226 314 220 c 0
 309 194 297 173 279 154 c 2
 142 0 l 1
 85 0 l 1
 93 34 95 61 95 80 c 0
 95 89 l 0
 95 93 91 104 85 124 c 0
 80 146 76 166 74 188 c 0
 73 194 73 201 73 207 c 0
 73 221 75 236 78 252 c 0
 84 276 96 297 115 319 c 0
 133 340 156 358 185 373 c 0
 213 386 244 393 277 393 c 0
232 191 m 0
 242 191 249 194 255 200 c 0
 262 206 265 212 267 220 c 0
 267 222 268 225 268 227 c 0
 268 233 266 238 263 242 c 0
 261 247 254 250 244 250 c 0
 235 250 227 246 221 241 c 0
 214 235 210 228 209 220 c 0
 208 217 208 215 208 213 c 0
 208 208 210 204 213 200 c 0
 216 194 223 191 232 191 c 0
EndSplineSet
EndChar
StartChar: uni0E15
Encoding: 181 3605 150
Width: 412
Flags: HW
HStem: 0 23
VStem: 293 66<0 261>
Fore
358 0 m 1
 293 0 l 1
 350 270 l 2
 352 281 354 290 354 298 c 0
 354 306 352 312 351 316 c 0
 347 325 341 333 332 339 c 1
 268 316 l 1
 212 339 l 1
 167 318 140 287 132 250 c 0
 130 241 129 231 129 221 c 0
 129 199 133 174 142 145 c 0
 146 129 147 115 149 103 c 0
 149 92 148 84 147 80 c 1
 157 90 167 102 177 114 c 0
 185 124 196 136 206 147 c 1
 189 148 178 156 168 171 c 0
 162 180 159 192 159 204 c 0
 159 210 160 217 161 223 c 0
 166 244 176 261 195 276 c 0
 212 290 231 297 254 297 c 0
 278 297 295 290 304 277 c 0
 311 266 316 253 316 238 c 0
 316 233 315 227 314 221 c 0
 310 197 297 174 279 155 c 2
 142 0 l 1
 85 0 l 1
 93 34 95 61 95 80 c 0
 95 89 l 0
 94 90 91 103 85 124 c 0
 78 146 73 167 72 188 c 0
 71 194 71 200 71 206 c 0
 71 220 73 235 77 252 c 0
 84 284 104 313 134 339 c 0
 164 365 193 383 223 391 c 1
 279 365 l 1
 346 392 l 1
 381 373 402 355 411 337 c 0
 415 328 418 316 418 301 c 0
 418 289 416 276 413 261 c 2
 358 0 l 1
232 191 m 0
 242 191 249 194 255 200 c 0
 262 206 265 212 267 221 c 0
 268 224 268 226 268 229 c 0
 268 234 267 239 264 243 c 0
 261 249 254 251 244 251 c 0
 235 251 228 247 221 242 c 0
 214 236 211 229 209 221 c 0
 208 219 208 216 208 214 c 0
 208 209 210 204 213 200 c 0
 216 194 223 191 232 191 c 0
EndSplineSet
EndChar
StartChar: uni0E16
Encoding: 182 3606 151
Width: 416
Flags: HW
HStem: -7 23 344 50<194 217>
VStem: 63 67<145 186 186 191> 297 66<0 261 261 267>
Fore
161 145 m 1
 170 145 l 2
 194 145 211 137 221 122 c 0
 229 110 233 98 233 85 c 0
 233 80 232 74 231 69 c 0
 226 49 216 31 198 16 c 0
 182 1 162 -7 138 -7 c 0
 115 -7 98 1 88 16 c 0
 80 27 76 38 76 51 c 0
 76 57 77 63 78 69 c 2
 103 186 l 2
 107 208 114 225 121 237 c 0
 130 250 141 261 156 270 c 1
 152 272 144 276 131 279 c 0
 120 282 106 286 90 287 c 1
 94 308 l 1
 98 312 104 318 112 325 c 0
 121 333 134 342 151 354 c 0
 167 364 189 374 213 382 c 0
 237 390 264 393 293 393 c 0
 324 393 349 389 369 380 c 0
 390 370 405 356 414 337 c 0
 420 325 423 312 423 296 c 0
 423 287 422 278 420 267 c 2
 363 0 l 1
 297 0 l 1
 352 261 l 2
 354 269 355 277 355 284 c 0
 355 300 350 314 340 323 c 0
 325 338 304 344 276 344 c 0
 244 344 210 333 175 314 c 1
 179 313 182 312 189 311 c 0
 197 310 205 306 215 303 c 0
 226 298 236 293 245 285 c 1
 238 253 l 1
 226 253 213 250 199 242 c 0
 186 234 176 217 171 191 c 2
 161 145 l 1
153 36 m 0
 162 37 169 41 176 46 c 0
 183 52 188 60 189 68 c 0
 190 71 190 74 190 77 c 0
 190 83 189 88 186 93 c 0
 181 98 173 102 161 102 c 0
 150 101 143 97 138 92 c 0
 130 86 127 78 125 69 c 0
 124 66 124 64 124 61 c 0
 124 56 126 51 129 46 c 0
 133 40 141 36 153 36 c 0
EndSplineSet
EndChar
StartChar: uni0E17
Encoding: 183 3607 152
Width: 452
Flags: HW
HStem: 0 23
VStem: 108 66<158 241 241 241> 334 66<0 290 290 295>
Fore
108 0 m 1
 159 241 l 1
 155 240 147 240 135 240 c 0
 115 242 102 251 94 266 c 0
 88 276 85 287 85 300 c 0
 85 305 86 310 87 316 c 0
 92 337 102 355 120 370 c 0
 135 384 155 391 179 391 c 0
 204 391 221 383 232 368 c 0
 239 358 243 345 243 331 c 0
 243 325 242 319 241 313 c 2
 208 158 l 1
 309 321 l 2
 325 346 337 363 348 373 c 0
 359 382 377 386 402 386 c 0
 438 386 460 379 463 363 c 0
 466 355 468 346 468 335 c 0
 468 323 466 310 463 295 c 2
 400 0 l 1
 334 0 l 1
 396 290 l 2
 399 307 401 320 401 325 c 0
 401 331 398 333 392 334 c 0
 386 334 382 332 378 329 c 0
 374 325 372 322 371 319 c 2
 171 0 l 1
 108 0 l 1
157 285 m 0
 167 285 174 288 180 294 c 0
 187 299 190 306 192 315 c 0
 193 318 193 321 193 323 c 0
 193 328 192 333 190 337 c 0
 186 342 179 345 169 345 c 0
 160 345 152 341 146 336 c 0
 139 330 136 323 134 315 c 0
 133 312 133 310 133 307 c 0
 133 302 134 297 137 294 c 0
 141 288 148 285 157 285 c 0
EndSplineSet
EndChar
StartChar: uni0E18
Encoding: 184 3608 153
Width: 358
Flags: HW
HStem: 0 59<36 84 149 208 208 215>
VStem: 84 66<59 238> 238 66<92 188>
Fore
154 310 m 1
 158 310 161 310 164 311 c 0
 169 311 178 311 193 311 c 0
 259 311 306 298 333 273 c 0
 343 263 349 248 349 227 c 0
 349 215 347 202 344 188 c 2
 320 73 l 2
 313 43 303 23 291 14 c 0
 279 5 255 0 221 0 c 2
 36 0 l 1
 49 59 l 1
 97 59 l 1
 135 238 l 1
 200 238 l 1
 162 59 l 1
 221 59 l 2
 236 59 244 61 248 64 c 0
 252 69 255 78 258 92 c 2
 278 189 l 2
 281 201 282 212 282 220 c 0
 281 228 276 236 268 244 c 0
 261 251 243 255 214 259 c 0
 185 262 153 264 119 264 c 0
 98 264 83 264 73 263 c 1
 81 303 l 1
 101 327 123 347 150 365 c 0
 177 383 208 392 241 392 c 0
 265 392 289 388 315 380 c 0
 340 371 357 366 365 366 c 0
 377 366 393 370 409 377 c 1
 414 329 l 1
 393 321 374 316 357 316 c 0
 343 316 322 321 295 330 c 0
 266 339 244 344 224 344 c 0
 206 344 191 339 178 331 c 0
 167 323 159 315 154 310 c 1
EndSplineSet
EndChar
StartChar: uni0E19
Encoding: 185 3609 154
Width: 446
Flags: HW
HStem: -8 23
VStem: 104 66<98 243 243 243> 296 66<55 127 175 384>
Fore
378 384 m 1
 444 384 l 1
 399 175 l 1
 421 171 437 159 446 141 c 0
 451 129 455 117 455 102 c 0
 455 94 454 85 451 76 c 0
 446 51 434 31 415 16 c 0
 398 0 378 -8 356 -8 c 0
 339 -8 327 -3 316 7 c 0
 309 14 305 25 305 38 c 0
 305 43 306 48 307 54 c 2
 323 127 l 1
 292 118 261 99 231 73 c 0
 199 47 178 23 167 0 c 1
 104 0 l 1
 156 243 l 1
 155 243 154 243 151 243 c 0
 149 242 147 242 145 242 c 0
 121 242 105 250 95 266 c 0
 88 276 84 288 84 301 c 0
 84 306 85 312 86 318 c 0
 90 338 101 356 117 371 c 0
 134 385 154 393 178 393 c 0
 199 393 214 388 227 375 c 0
 236 365 240 353 240 339 c 0
 240 335 240 330 239 325 c 2
 191 98 l 1
 209 118 230 133 257 147 c 0
 283 159 308 170 333 175 c 1
 378 384 l 1
156 287 m 0
 166 287 174 290 181 296 c 0
 186 302 189 308 192 318 c 0
 192 321 193 323 193 326 c 0
 193 331 192 335 190 339 c 0
 185 345 179 347 169 347 c 0
 160 347 152 344 145 338 c 0
 139 332 135 325 134 318 c 0
 133 315 133 311 133 308 c 0
 133 304 134 300 136 296 c 0
 141 290 147 287 156 287 c 0
407 81 m 0
 408 87 409 92 409 97 c 0
 409 103 408 108 406 112 c 0
 402 120 396 124 389 127 c 1
 374 55 l 1
 374 49 l 0
 374 43 375 41 380 41 c 0
 383 42 386 44 391 47 c 0
 394 52 397 58 402 64 c 0
 404 70 406 76 407 81 c 0
EndSplineSet
EndChar
StartChar: uni0E1A
Encoding: 186 3610 155
Width: 428
Flags: HW
HStem: 0 59<47 97 163 272>
VStem: 97 66<59 241 241 241> 307 67<92 384>
Fore
110 59 m 1
 148 241 l 1
 144 240 136 240 123 240 c 0
 104 242 90 251 83 266 c 0
 77 276 74 287 74 300 c 0
 74 305 75 310 76 316 c 0
 79 329 83 341 92 354 c 0
 101 365 110 374 124 381 c 0
 136 388 151 391 168 391 c 0
 193 391 210 383 220 368 c 0
 228 358 232 345 232 330 c 0
 232 325 231 319 230 313 c 2
 176 59 l 1
 285 59 l 2
 300 59 310 61 316 66 c 0
 320 69 324 78 327 92 c 2
 389 384 l 1
 456 384 l 1
 390 75 l 2
 384 45 372 26 353 16 c 0
 334 6 307 0 272 0 c 2
 47 0 l 1
 60 59 l 1
 110 59 l 1
146 285 m 0
 155 285 162 288 168 294 c 0
 176 299 179 306 181 315 c 0
 182 318 182 320 182 323 c 0
 182 328 181 333 178 337 c 0
 174 342 167 345 158 345 c 0
 149 345 141 341 134 336 c 0
 128 330 124 323 122 315 c 0
 121 313 121 311 121 308 c 0
 121 303 123 298 125 294 c 0
 130 288 137 285 146 285 c 0
EndSplineSet
EndChar
StartChar: uni0E1B
Encoding: 187 3611 156
Width: 428
Flags: HW
HStem: 0 59<47 97 163 272>
VStem: 97 66<59 241 241 241> 307 67<92 534>
Fore
110 59 m 1
 148 241 l 1
 144 240 136 240 123 240 c 0
 104 242 90 251 83 266 c 0
 77 276 74 287 74 300 c 0
 74 305 75 310 76 316 c 0
 79 329 83 341 92 354 c 0
 101 365 110 374 124 381 c 0
 136 388 151 391 168 391 c 0
 193 391 210 383 220 368 c 0
 228 358 232 345 232 330 c 0
 232 325 231 319 230 313 c 2
 176 59 l 1
 285 59 l 2
 300 59 310 61 316 66 c 0
 320 69 324 78 327 92 c 2
 421 534 l 1
 488 534 l 1
 390 75 l 2
 384 45 372 26 353 16 c 0
 334 6 307 0 272 0 c 2
 47 0 l 1
 60 59 l 1
 110 59 l 1
146 285 m 0
 155 285 162 288 168 294 c 0
 176 299 179 306 181 315 c 0
 182 318 182 320 182 323 c 0
 182 328 181 333 178 337 c 0
 174 342 167 345 158 345 c 0
 149 345 141 341 134 336 c 0
 128 330 124 323 122 315 c 0
 121 313 121 311 121 308 c 0
 121 303 123 298 125 294 c 0
 130 288 137 285 146 285 c 0
EndSplineSet
EndChar
StartChar: uni0E1C
Encoding: 188 3612 157
Width: 422
Flags: HW
HStem: 0 23
VStem: 54 66<130 241> 303 66<130 384>
Fore
116 0 m 1
 54 0 l 1
 121 313 l 2
 125 334 136 354 153 368 c 0
 169 383 190 391 215 391 c 0
 232 391 246 388 256 381 c 0
 264 374 272 365 275 354 c 0
 276 348 277 341 277 335 c 0
 277 329 276 322 275 316 c 0
 271 297 262 280 248 266 c 0
 233 251 215 242 196 240 c 0
 183 240 175 240 171 241 c 1
 148 130 l 1
 259 224 l 1
 331 130 l 1
 385 384 l 1
 450 384 l 1
 368 0 l 1
 304 0 l 1
 306 11 307 20 307 29 c 0
 307 46 303 60 296 71 c 2
 242 151 l 1
 153 71 l 2
 135 55 123 32 116 0 c 1
205 345 m 0
 196 345 188 341 182 336 c 0
 175 330 172 323 170 315 c 0
 169 312 169 310 169 307 c 0
 169 302 170 297 173 294 c 0
 177 288 184 285 193 285 c 0
 202 285 209 288 216 294 c 0
 223 299 227 306 229 315 c 0
 230 317 230 319 230 322 c 0
 230 327 228 333 226 337 c 0
 221 342 214 345 205 345 c 0
EndSplineSet
EndChar
StartChar: uni0E1D
Encoding: 189 3613 158
Width: 422
Flags: HW
HStem: 0 23
VStem: 54 66<130 241> 303 66<130 534>
Fore
116 0 m 1
 54 0 l 1
 121 313 l 2
 125 334 136 354 153 368 c 0
 169 383 190 391 215 391 c 0
 232 391 246 388 256 381 c 0
 264 374 272 365 275 354 c 0
 276 348 277 341 277 335 c 0
 277 329 276 322 275 316 c 0
 271 297 262 280 248 266 c 0
 233 251 215 242 196 240 c 0
 183 240 175 240 171 241 c 1
 148 130 l 1
 259 224 l 1
 331 130 l 1
 417 534 l 1
 482 534 l 1
 368 0 l 1
 304 0 l 1
 306 11 307 20 307 29 c 0
 307 46 303 60 296 71 c 2
 242 151 l 1
 153 71 l 2
 135 55 123 32 116 0 c 1
205 345 m 0
 196 345 188 341 182 336 c 0
 175 330 172 323 170 315 c 0
 169 312 169 310 169 307 c 0
 169 302 170 297 173 294 c 0
 177 288 184 285 193 285 c 0
 202 285 209 288 216 294 c 0
 223 299 227 306 229 315 c 0
 230 317 230 319 230 322 c 0
 230 327 228 333 226 337 c 0
 221 342 214 345 205 345 c 0
EndSplineSet
EndChar
StartChar: uni0E1E
Encoding: 190 3614 159
Width: 480
Flags: HW
HStem: 0 23
VStem: 94 67<176 241 241 241> 360 66<0 3 176 384>
Fore
197 176 m 1
 340 375 l 1
 397 176 l 1
 442 384 l 1
 508 384 l 1
 426 0 l 1
 360 0 l 1
 361 6 362 14 363 25 c 0
 363 29 364 33 364 37 c 0
 364 42 363 47 362 52 c 2
 312 245 l 1
 178 52 l 2
 173 44 169 35 165 25 c 0
 162 14 160 6 158 0 c 1
 94 0 l 1
 145 241 l 1
 141 240 133 240 121 240 c 0
 102 242 88 251 81 266 c 0
 75 275 72 286 72 298 c 0
 72 304 73 310 74 316 c 0
 77 329 81 341 90 354 c 0
 98 365 108 374 122 381 c 0
 134 388 149 391 165 391 c 0
 190 391 208 383 218 368 c 0
 226 358 229 346 229 332 c 0
 229 326 228 319 227 313 c 2
 197 176 l 1
143 285 m 0
 153 285 159 288 166 294 c 0
 174 299 177 306 179 315 c 0
 180 318 180 320 180 323 c 0
 180 328 179 333 176 337 c 0
 171 342 165 345 155 345 c 0
 146 345 139 341 132 336 c 0
 125 330 122 323 120 315 c 0
 119 312 119 310 119 307 c 0
 119 302 120 297 123 294 c 0
 128 288 134 285 143 285 c 0
EndSplineSet
EndChar
StartChar: uni0E1F
Encoding: 191 3615 160
Width: 480
Flags: HW
HStem: 0 23
VStem: 94 67<176 241 241 241> 360 66<0 3 176 534>
Fore
197 176 m 1
 340 375 l 1
 397 176 l 1
 474 534 l 1
 540 534 l 1
 426 0 l 1
 360 0 l 1
 361 6 362 14 363 25 c 0
 363 29 364 33 364 37 c 0
 364 42 363 47 362 52 c 2
 312 245 l 1
 178 52 l 2
 173 44 169 35 165 25 c 0
 162 14 160 6 158 0 c 1
 94 0 l 1
 145 241 l 1
 141 240 133 240 121 240 c 0
 102 242 88 251 81 266 c 0
 75 275 72 286 72 298 c 0
 72 304 73 310 74 316 c 0
 77 329 81 341 90 354 c 0
 98 365 108 374 122 381 c 0
 134 388 149 391 165 391 c 0
 190 391 208 383 218 368 c 0
 226 358 229 346 229 332 c 0
 229 326 228 319 227 313 c 2
 197 176 l 1
143 285 m 0
 153 285 159 288 166 294 c 0
 174 299 177 306 179 315 c 0
 180 318 180 320 180 323 c 0
 180 328 179 333 176 337 c 0
 171 342 165 345 155 345 c 0
 146 345 139 341 132 336 c 0
 125 330 122 323 120 315 c 0
 119 312 119 310 119 307 c 0
 119 302 120 297 123 294 c 0
 128 288 134 285 143 285 c 0
EndSplineSet
EndChar
StartChar: uni0E20
Encoding: 192 3616 161
Width: 452
Flags: HW
HStem: -8 23
VStem: 332 66<0 261 261 267>
Fore
121 144 m 0
 124 144 126 144 127 144 c 0
 127 142 127 142 128 142 c 1
 138 186 l 2
 142 208 150 225 157 237 c 0
 166 251 177 262 190 270 c 1
 186 272 178 276 165 279 c 0
 154 282 140 286 124 287 c 1
 128 308 l 1
 133 312 139 318 147 325 c 0
 156 333 169 342 186 354 c 0
 202 364 224 374 247 382 c 0
 272 390 299 393 328 393 c 0
 357 393 382 389 404 379 c 0
 426 370 440 355 448 336 c 0
 455 323 458 309 458 293 c 0
 458 285 457 276 455 267 c 2
 398 0 l 1
 332 0 l 1
 387 261 l 2
 389 269 390 277 390 284 c 0
 390 300 385 314 375 323 c 0
 360 338 339 344 311 344 c 0
 297 344 279 341 261 336 c 0
 243 331 227 324 211 314 c 1
 217 313 228 311 241 306 c 0
 255 303 268 295 280 285 c 1
 273 253 l 1
 262 253 250 250 235 242 c 0
 222 234 211 217 206 191 c 2
 180 69 l 2
 175 46 164 28 149 15 c 0
 133 0 114 -7 88 -8 c 1
 66 -7 47 0 38 15 c 0
 30 25 27 36 27 49 c 0
 27 54 28 61 29 67 c 0
 34 88 44 106 61 121 c 0
 76 136 98 144 121 144 c 0
97 35 m 0
 108 35 118 38 125 45 c 0
 132 51 136 59 137 68 c 0
 138 72 138 75 138 78 c 0
 138 93 129 101 111 101 c 0
 101 101 93 97 87 92 c 0
 79 85 74 77 72 68 c 0
 72 66 72 64 72 63 c 0
 72 56 73 50 77 45 c 0
 80 38 87 35 97 35 c 0
EndSplineSet
EndChar
StartChar: uni0E21
Encoding: 193 3617 162
Width: 435
Flags: HW
HStem: -8 23
VStem: 113 66<55 59 59 123 177 241 241 241> 315 66<104 384>
Fore
397 384 m 1
 463 384 l 1
 381 0 l 1
 318 0 l 1
 317 14 312 29 304 47 c 0
 295 66 281 81 264 96 c 0
 248 111 228 120 205 123 c 1
 192 59 l 2
 187 37 177 20 162 10 c 0
 148 -1 131 -8 116 -8 c 0
 115 -8 113 -8 112 -8 c 0
 88 -8 69 1 57 16 c 0
 50 27 45 41 45 57 c 0
 45 63 46 69 47 76 c 0
 51 104 65 128 84 147 c 0
 104 166 126 176 151 177 c 1
 164 241 l 1
 161 241 l 0
 159 240 157 240 155 240 c 0
 131 240 115 247 105 262 c 0
 97 273 93 285 93 299 c 0
 93 304 94 309 95 315 c 0
 100 337 110 355 126 370 c 0
 143 384 163 391 187 391 c 0
 207 391 224 384 236 372 c 0
 245 362 250 350 250 337 c 0
 250 332 249 328 248 323 c 2
 216 176 l 1
 254 171 284 160 303 144 c 0
 321 128 332 114 337 104 c 1
 397 384 l 1
165 285 m 0
 174 285 181 288 187 294 c 0
 195 299 198 306 200 315 c 0
 201 318 201 320 201 323 c 0
 201 328 200 333 197 337 c 0
 193 342 186 345 177 345 c 0
 168 345 160 341 153 336 c 0
 147 330 144 323 142 315 c 0
 141 312 141 309 141 307 c 0
 141 302 142 297 144 294 c 0
 149 288 156 285 165 285 c 0
140 127 m 1
 130 125 121 121 113 113 c 0
 106 105 100 94 97 81 c 0
 96 75 95 69 95 65 c 0
 95 50 101 43 113 42 c 0
 119 42 123 46 125 55 c 2
 140 127 l 1
EndSplineSet
EndChar
StartChar: uni0E22
Encoding: 194 3618 163
Width: 403
Flags: HW
HStem: 0 59<120 247 247 255>
VStem: 282 67<92 384>
Fore
147 184 m 1
 130 190 119 202 111 220 c 0
 106 231 103 244 103 257 c 0
 103 265 104 272 106 280 c 0
 109 296 115 311 123 323 c 0
 136 346 152 363 172 375 c 0
 190 386 212 392 233 392 c 0
 255 392 272 385 281 372 c 0
 289 361 293 349 293 336 c 0
 293 331 292 326 291 320 c 0
 287 299 276 282 260 268 c 0
 245 253 225 246 202 246 c 0
 191 246 181 250 172 254 c 1
 162 257 158 260 158 261 c 1
 158 261 158 261 159 261 c 1
 159 259 158 257 158 255 c 0
 158 242 166 232 181 223 c 0
 200 212 219 208 239 207 c 1
 229 158 l 1
 201 158 181 153 167 141 c 0
 153 131 144 115 140 94 c 2
 133 59 l 1
 260 59 l 2
 275 59 285 61 291 66 c 0
 295 69 299 78 302 92 c 2
 364 384 l 1
 431 384 l 1
 365 73 l 2
 358 43 349 23 336 14 c 0
 323 5 299 0 267 0 c 2
 54 0 l 1
 74 94 l 2
 79 116 87 134 98 148 c 0
 109 162 118 171 127 176 c 0
 136 181 144 183 147 184 c 1
213 292 m 0
 222 292 229 294 236 299 c 0
 241 305 245 311 247 319 c 0
 248 321 248 323 248 325 c 0
 248 330 246 334 244 338 c 0
 240 344 234 346 225 346 c 0
 216 346 209 344 203 338 c 0
 196 332 192 325 191 319 c 0
 190 317 190 315 190 313 c 0
 190 308 192 304 195 301 c 0
 199 295 204 292 213 292 c 0
EndSplineSet
EndChar
StartChar: uni0E23
Encoding: 195 3619 164
Width: 351
Flags: HW
HStem: -5 23
VStem: 12 331
Fore
338 190 m 2
 314 73 l 2
 309 51 297 33 280 18 c 0
 261 3 240 -5 217 -5 c 0
 193 -5 176 3 167 18 c 0
 159 29 155 41 155 55 c 0
 155 60 156 65 157 71 c 0
 162 92 172 110 189 124 c 0
 206 139 225 147 249 148 c 0
 255 148 259 148 263 147 c 1
 272 190 l 2
 274 199 275 207 275 214 c 0
 275 220 l 0
 274 228 269 237 261 245 c 0
 255 251 244 255 226 260 c 0
 207 263 184 267 153 270 c 0
 125 272 96 273 70 273 c 1
 77 308 l 1
 96 332 117 353 145 370 c 0
 170 386 200 396 235 396 c 0
 259 396 284 391 310 383 c 0
 337 374 355 370 365 370 c 0
 378 370 393 373 410 381 c 1
 415 332 l 1
 393 324 374 320 355 320 c 0
 338 320 316 324 288 333 c 0
 259 342 237 347 219 347 c 0
 201 347 186 344 175 336 c 0
 165 328 157 322 153 316 c 1
 239 316 297 303 326 275 c 0
 337 264 343 248 343 227 c 0
 343 216 341 204 338 190 c 2
228 42 m 0
 237 42 244 44 252 50 c 0
 258 55 262 63 264 71 c 0
 265 73 265 76 265 78 c 0
 265 84 263 89 262 93 c 0
 257 98 250 101 240 101 c 0
 230 101 223 97 217 92 c 0
 209 86 206 79 204 71 c 0
 203 68 203 66 203 64 c 0
 203 59 205 54 208 51 c 0
 212 45 219 42 228 42 c 0
EndSplineSet
EndChar
StartChar: uni0E24
Encoding: 196 3620 165
Width: 416
Flags: HW
HStem: 344 50<194 217>
VStem: 63 67<145 186 186 191> 297 66<-200 261 261 267>
Fore
161 145 m 1
 170 145 l 2
 194 145 211 137 221 122 c 0
 229 110 233 98 233 85 c 0
 233 80 232 74 231 69 c 0
 226 49 216 31 198 16 c 0
 182 1 162 -7 138 -7 c 0
 115 -7 98 1 88 16 c 0
 80 27 76 38 76 51 c 0
 76 57 77 63 78 69 c 2
 103 186 l 2
 107 208 114 225 121 237 c 0
 130 250 141 261 156 270 c 1
 152 272 144 276 131 279 c 0
 120 282 106 286 90 287 c 1
 94 308 l 1
 98 312 104 318 112 325 c 0
 121 333 134 342 151 354 c 0
 167 364 189 374 213 382 c 0
 237 390 264 393 293 393 c 0
 324 393 349 389 369 380 c 0
 390 370 405 356 414 337 c 0
 420 325 423 312 423 296 c 0
 423 287 422 278 420 267 c 2
 320 -200 l 1
 254 -200 l 1
 352 261 l 2
 354 269 355 277 355 284 c 0
 355 300 350 314 340 323 c 0
 325 338 304 344 276 344 c 0
 244 344 210 333 175 314 c 1
 179 313 182 312 189 311 c 0
 197 310 205 306 215 303 c 0
 226 298 236 293 245 285 c 1
 238 253 l 1
 226 253 213 250 199 242 c 0
 186 234 176 217 171 191 c 2
 161 145 l 1
147 36 m 0
 157 36 167 40 174 46 c 0
 181 52 185 60 187 69 c 0
 188 72 188 75 188 78 c 0
 188 93 179 102 161 102 c 0
 151 102 142 98 136 93 c 0
 129 86 124 78 122 69 c 0
 121 67 121 65 121 63 c 0
 121 57 123 51 126 46 c 0
 131 40 137 36 147 36 c 0
EndSplineSet
EndChar
StartChar: uni0E25
Encoding: 197 3621 166
Width: 400
Flags: HW
HStem: -8 23 342 50<171 199>
VStem: 280 67<171 263 263 264>
Fore
135 -8 m 0
 112 -8 96 -1 84 12 c 0
 74 24 69 38 69 54 c 0
 69 56 69 59 69 61 c 0
 72 87 80 121 88 160 c 1
 99 193 114 220 135 242 c 0
 155 263 179 275 207 275 c 0
 209 275 210 275 212 275 c 0
 240 275 260 267 275 253 c 0
 292 238 301 223 307 203 c 0
 312 184 316 174 316 171 c 1
 336 263 l 2
 337 270 338 277 338 283 c 0
 338 299 333 312 323 322 c 0
 309 336 288 342 257 342 c 0
 231 342 209 337 187 324 c 0
 164 312 147 297 132 282 c 1
 102 315 l 1
 118 336 142 353 171 368 c 0
 199 383 231 392 267 392 c 0
 314 392 351 381 377 358 c 0
 396 341 406 319 406 292 c 0
 406 283 405 274 403 264 c 2
 347 0 l 1
 280 0 l 1
 280 4 280 9 280 13 c 0
 280 34 278 58 276 87 c 0
 272 122 265 155 253 183 c 0
 240 210 224 225 203 225 c 0
 202 225 202 225 201 225 c 0
 172 224 151 194 140 140 c 1
 143 141 146 141 151 142 c 0
 156 144 162 144 168 144 c 0
 190 142 209 136 218 123 c 0
 225 114 229 102 229 88 c 0
 229 83 228 76 227 70 c 0
 224 47 212 29 195 15 c 0
 180 0 159 -7 135 -8 c 0
145 37 m 0
 155 37 163 41 169 46 c 0
 175 52 179 59 180 68 c 0
 181 71 181 75 181 78 c 0
 181 82 180 86 178 89 c 0
 174 95 168 97 158 97 c 0
 148 97 140 94 134 88 c 0
 127 82 123 76 121 68 c 0
 121 66 121 64 121 63 c 0
 121 57 122 52 125 47 c 0
 130 41 136 37 145 37 c 0
EndSplineSet
EndChar
StartChar: uni0E26
Encoding: 198 3622 167
Width: 452
Flags: HW
VStem: 332 66<-200 261 261 267>
Fore
121 144 m 0
 124 144 126 144 127 144 c 0
 127 142 127 142 128 142 c 1
 138 186 l 2
 142 208 150 225 157 237 c 0
 166 251 177 262 190 270 c 1
 186 272 178 276 165 279 c 0
 154 282 140 286 124 287 c 1
 128 308 l 1
 133 312 139 318 147 325 c 0
 156 333 169 342 186 354 c 0
 202 364 224 374 247 382 c 0
 272 390 299 393 328 393 c 0
 357 393 382 389 404 379 c 0
 426 370 440 355 448 336 c 0
 455 323 458 309 458 293 c 0
 458 285 457 276 455 267 c 2
 355 -200 l 1
 289 -200 l 1
 387 261 l 2
 389 269 390 277 390 284 c 0
 390 300 385 314 375 323 c 0
 360 338 339 344 311 344 c 0
 297 344 279 341 261 336 c 0
 243 331 227 324 211 314 c 1
 217 313 228 311 241 306 c 0
 255 303 268 295 280 285 c 1
 273 253 l 1
 262 253 250 250 235 242 c 0
 222 234 211 217 206 191 c 2
 180 69 l 2
 175 46 164 28 149 15 c 0
 133 0 114 -7 88 -8 c 1
 66 -7 47 0 38 15 c 0
 30 25 27 36 27 49 c 0
 27 54 28 61 29 67 c 0
 34 88 44 106 61 121 c 0
 76 136 98 144 121 144 c 0
97 35 m 0
 108 35 118 38 125 45 c 0
 132 51 136 59 137 68 c 0
 138 72 138 75 138 78 c 0
 138 93 129 101 111 101 c 0
 101 101 93 97 87 92 c 0
 79 85 74 77 72 68 c 0
 72 66 72 64 72 63 c 0
 72 56 73 50 77 45 c 0
 80 38 87 35 97 35 c 0
EndSplineSet
EndChar
StartChar: uni0E27
Encoding: 199 3623 168
Width: 361
Flags: HW
HStem: -8 23 339 54<153 166>
VStem: 242 66<142 261 261 262>
Fore
262 144 m 0
 266 144 269 144 272 142 c 1
 297 261 l 2
 299 269 300 277 300 284 c 0
 300 300 295 312 285 320 c 0
 271 332 251 339 225 339 c 0
 222 339 l 0
 178 339 139 317 100 273 c 1
 62 308 l 1
 82 332 107 353 137 370 c 0
 166 385 199 393 238 393 c 0
 286 393 322 382 344 358 c 0
 359 341 366 320 366 294 c 0
 366 284 365 274 363 262 c 2
 322 70 l 2
 317 49 307 29 289 15 c 0
 271 0 251 -8 229 -8 c 0
 205 -8 188 0 177 15 c 0
 170 24 166 36 166 49 c 0
 166 56 167 64 169 71 c 0
 174 92 186 108 202 123 c 0
 219 137 239 144 262 144 c 0
239 37 m 0
 249 37 256 41 263 46 c 0
 269 52 273 59 274 68 c 0
 275 71 275 75 275 78 c 0
 275 82 274 86 272 89 c 0
 267 95 262 97 252 97 c 0
 241 97 234 94 228 88 c 0
 220 82 217 76 215 68 c 0
 215 66 214 63 214 61 c 0
 214 56 216 51 219 47 c 0
 224 41 229 37 239 37 c 0
EndSplineSet
EndChar
StartChar: uni0E28
Encoding: 200 3624 169
Width: 413
Flags: HW
HStem: 0 23
VStem: 89 67<0 67 67 75> 294 66<0 245 245 261>
Fore
391 357 m 0
 392 357 397 363 406 374 c 0
 414 385 423 398 429 412 c 1
 480 386 l 1
 473 371 463 355 449 340 c 0
 436 324 426 313 416 306 c 1
 417 303 418 298 418 292 c 0
 418 291 418 289 418 288 c 0
 418 281 416 273 414 261 c 2
 359 0 l 1
 294 0 l 1
 346 245 l 1
 350 263 l 1
 336 255 324 251 312 247 c 1
 312 246 312 243 312 238 c 0
 312 234 311 228 310 221 c 0
 305 200 294 182 278 167 c 0
 264 153 242 146 219 145 c 0
 215 145 208 146 201 147 c 0
 192 149 188 150 188 151 c 2
 156 0 l 1
 89 0 l 1
 103 67 l 2
 105 77 107 87 107 96 c 0
 107 102 106 107 105 113 c 0
 103 127 98 142 92 160 c 0
 85 179 81 194 78 208 c 0
 77 213 76 218 76 224 c 0
 76 234 78 244 81 257 c 0
 88 287 103 313 123 333 c 0
 142 354 166 370 194 380 c 0
 221 390 248 396 276 397 c 0
 292 397 308 396 323 392 c 0
 338 389 351 383 364 376 c 0
 377 370 385 363 391 357 c 0
293 285 m 1
 301 285 308 288 320 295 c 0
 328 301 336 306 342 310 c 1
 335 321 324 330 309 336 c 0
 293 341 278 344 258 344 c 0
 232 342 207 334 183 318 c 0
 158 301 142 280 136 254 c 0
 135 248 134 242 134 236 c 0
 134 228 135 220 137 211 c 0
 138 198 139 191 140 191 c 1
 140 191 140 191 140 192 c 0
 143 209 154 232 171 258 c 0
 187 284 213 297 251 298 c 0
 264 298 274 297 280 294 c 0
 287 290 290 287 293 285 c 1
229 191 m 0
 239 191 246 194 253 200 c 0
 259 206 262 212 264 221 c 0
 265 224 265 227 265 229 c 0
 265 234 264 239 262 243 c 0
 258 249 251 251 241 251 c 0
 232 251 225 247 217 242 c 0
 210 236 207 229 205 221 c 0
 204 219 204 216 204 214 c 0
 204 209 206 204 209 200 c 0
 213 194 220 191 229 191 c 0
EndSplineSet
EndChar
StartChar: uni0E29
Encoding: 201 3625 170
Width: 437
Flags: HW
HStem: 0 59<56 106 172 281>
VStem: 106 66<59 241 241 241> 318 66<92 131 131 131 198 384>
Fore
528 278 m 1
 524 257 516 237 506 221 c 0
 496 205 485 192 473 182 c 0
 462 172 450 164 439 158 c 0
 427 153 417 148 414 146 c 1
 399 75 l 2
 393 45 381 26 362 16 c 0
 345 6 318 0 281 0 c 2
 56 0 l 1
 69 59 l 1
 119 59 l 1
 157 241 l 1
 153 240 145 240 133 240 c 0
 114 242 100 251 93 266 c 0
 87 276 83 287 83 300 c 0
 83 305 84 310 85 316 c 0
 90 337 100 355 117 370 c 0
 133 384 153 391 177 391 c 0
 203 391 221 384 230 370 c 0
 237 359 241 347 241 332 c 0
 241 326 240 320 239 313 c 2
 185 59 l 1
 297 59 l 2
 311 59 321 61 326 66 c 0
 330 69 335 78 338 92 c 2
 346 131 l 1
 304 131 274 137 257 147 c 1
 244 157 236 165 232 173 c 0
 230 178 228 185 228 193 c 0
 228 199 229 205 230 212 c 0
 233 227 241 241 254 253 c 0
 267 266 283 272 304 272 c 0
 321 272 335 267 343 257 c 0
 348 248 352 238 352 227 c 0
 352 223 352 220 351 216 c 0
 348 198 340 183 329 173 c 1
 343 173 351 173 355 174 c 1
 400 384 l 1
 465 384 l 1
 425 198 l 1
 446 208 462 234 471 278 c 1
 528 278 l 1
287 193 m 0
 295 193 301 195 306 200 c 0
 311 205 314 210 315 216 c 0
 315 217 315 218 315 220 c 0
 315 224 314 228 311 232 c 0
 309 235 303 237 296 237 c 0
 290 237 284 235 280 231 c 0
 274 226 271 221 270 216 c 0
 270 215 270 213 270 212 c 0
 270 208 271 205 274 200 c 0
 275 195 279 193 287 193 c 0
155 285 m 0
 165 285 172 288 178 294 c 0
 185 299 188 306 190 315 c 0
 191 318 191 321 191 323 c 0
 191 328 190 333 188 337 c 0
 184 342 177 345 167 345 c 0
 158 345 150 341 143 336 c 0
 137 330 133 323 131 315 c 0
 130 313 130 311 130 308 c 0
 130 303 132 298 134 294 c 0
 139 288 146 285 155 285 c 0
EndSplineSet
EndChar
StartChar: uni0E2A
Encoding: 202 3626 171
Width: 400
Flags: HW
HStem: -8 23 342 50<171 199>
VStem: 35 334
Fore
145 37 m 0
 155 37 163 41 169 46 c 0
 175 52 179 59 180 68 c 0
 181 71 181 75 181 78 c 0
 181 82 180 86 178 89 c 0
 174 95 168 97 158 97 c 0
 148 97 140 94 134 88 c 0
 127 82 123 76 121 68 c 0
 121 66 121 64 121 63 c 0
 121 57 122 52 125 47 c 0
 130 41 136 37 145 37 c 0
321 318 m 1
 308 334 288 342 257 342 c 0
 231 342 209 337 187 324 c 0
 164 312 147 297 132 282 c 1
 102 315 l 1
 118 336 142 353 171 368 c 0
 199 383 231 392 267 392 c 0
 302 392 333 385 358 371 c 0
 360 371 369 382 385 403 c 0
 400 425 409 436 412 436 c 0
 414 435 422 431 434 423 c 0
 445 415 453 409 456 405 c 1
 451 399 439 386 423 368 c 0
 406 349 397 339 396 336 c 1
 403 328 407 318 407 306 c 0
 408 303 408 300 408 297 c 0
 408 288 406 276 403 264 c 2
 347 0 l 1
 280 0 l 1
 280 4 280 9 280 13 c 0
 280 34 278 58 276 87 c 0
 272 122 265 155 253 183 c 0
 240 210 224 225 203 225 c 0
 202 225 202 225 201 225 c 0
 172 224 151 194 140 140 c 1
 143 141 146 141 151 142 c 0
 156 144 162 144 168 144 c 0
 190 142 209 136 218 123 c 0
 225 114 229 102 229 88 c 0
 229 83 228 76 227 70 c 0
 224 47 212 29 195 15 c 0
 180 0 159 -7 135 -8 c 0
 112 -8 96 -1 84 12 c 0
 74 24 69 38 69 54 c 0
 69 56 69 59 69 61 c 0
 72 87 80 121 88 160 c 1
 99 193 114 220 135 242 c 0
 155 263 179 275 207 275 c 0
 213 275 l 0
 241 275 260 268 274 259 c 0
 275 259 283 269 297 288 c 0
 311 307 320 318 321 318 c 1
337 279 m 1
 334 272 327 263 318 252 c 0
 308 241 303 234 303 233 c 0
 308 224 311 214 313 201 c 0
 315 189 316 179 316 171 c 1
 320 189 324 207 327 225 c 0
 331 243 334 261 337 279 c 1
EndSplineSet
EndChar
StartChar: uni0E2B
Encoding: 203 3627 172
Width: 436
Flags: HW
HStem: 0 23
VStem: 92 66<176 241 241 241> 315 67<0 182>
Fore
194 176 m 1
 215 200 236 219 258 234 c 0
 280 249 296 258 307 263 c 1
 300 273 297 285 297 298 c 0
 297 304 298 310 299 316 c 0
 304 339 314 357 331 372 c 0
 348 385 369 392 395 392 c 0
 417 392 435 385 444 371 c 0
 450 361 453 349 453 336 c 0
 453 330 453 323 451 316 c 0
 445 288 431 268 409 254 c 1
 413 253 417 246 422 236 c 0
 424 231 425 225 425 218 c 0
 425 208 424 196 421 182 c 2
 382 0 l 1
 315 0 l 1
 354 182 l 2
 356 192 357 201 357 207 c 0
 357 213 356 217 355 219 c 0
 352 225 349 228 345 228 c 1
 298 206 257 174 222 132 c 0
 187 90 167 51 159 15 c 2
 156 0 l 1
 92 0 l 1
 143 241 l 1
 139 240 131 240 119 240 c 0
 100 242 86 251 78 266 c 0
 72 276 68 287 68 300 c 0
 68 305 69 310 70 316 c 0
 75 337 85 355 103 370 c 0
 118 384 138 391 162 391 c 0
 188 391 206 384 217 370 c 0
 223 359 226 347 226 333 c 0
 226 326 225 320 224 313 c 2
 194 176 l 1
369 286 m 0
 380 286 386 289 393 295 c 0
 400 301 403 307 405 316 c 0
 406 319 406 322 406 325 c 0
 406 330 405 334 402 338 c 0
 398 344 393 346 382 346 c 0
 373 346 366 342 359 337 c 0
 351 331 348 324 346 316 c 0
 345 313 345 311 345 309 c 0
 345 304 347 299 350 295 c 0
 354 289 360 286 369 286 c 0
140 285 m 0
 150 285 157 288 163 294 c 0
 170 299 173 306 175 315 c 0
 176 318 176 321 176 323 c 0
 176 328 175 333 173 337 c 0
 169 342 162 345 152 345 c 0
 143 345 135 341 129 336 c 0
 122 330 119 323 117 315 c 0
 116 312 116 310 116 307 c 0
 116 302 117 297 120 294 c 0
 124 288 131 285 140 285 c 0
EndSplineSet
EndChar
StartChar: uni0E2C
Encoding: 204 3628 173
Width: 482
Flags: HW
HStem: 0 23
VStem: 97 66<167 241 241 241> 363 66<0 3 167 306 306 306>
Fore
496 321 m 1
 428 0 l 1
 363 0 l 1
 364 6 365 14 365 25 c 0
 366 31 366 36 366 41 c 0
 366 45 366 49 365 52 c 2
 310 224 l 1
 182 52 l 2
 177 46 173 37 169 25 c 0
 165 14 161 6 160 0 c 1
 97 0 l 1
 148 241 l 1
 144 240 136 240 123 240 c 0
 104 242 90 251 83 266 c 0
 77 276 74 287 74 300 c 0
 74 305 75 310 76 316 c 0
 79 329 83 341 92 354 c 0
 101 365 110 374 124 381 c 0
 136 388 151 391 168 391 c 0
 193 391 210 383 220 368 c 0
 228 358 232 345 232 330 c 0
 232 325 231 319 230 313 c 2
 198 167 l 1
 334 338 l 1
 398 167 l 1
 428 306 l 1
 406 306 391 313 381 327 c 0
 372 336 368 348 368 362 c 0
 368 367 368 371 369 376 c 0
 373 397 384 414 399 427 c 0
 415 441 434 447 455 447 c 0
 483 447 500 440 506 424 c 0
 512 408 513 396 513 385 c 1
 525 393 536 409 546 433 c 1
 591 410 l 1
 585 394 576 380 563 367 c 0
 550 355 537 344 524 336 c 0
 513 328 502 322 496 321 c 1
435 351 m 0
 443 351 449 354 455 359 c 1
 461 364 465 370 466 377 c 0
 467 379 467 382 467 384 c 0
 467 388 466 392 464 396 c 0
 460 400 453 402 445 402 c 0
 438 402 432 400 426 396 c 0
 421 390 418 384 416 377 c 0
 416 375 416 374 416 372 c 0
 416 368 417 363 418 359 c 0
 423 354 429 351 435 351 c 0
146 285 m 0
 155 285 162 288 168 294 c 0
 176 299 179 306 181 315 c 0
 182 318 182 320 182 323 c 0
 182 328 181 333 178 337 c 0
 174 342 167 345 158 345 c 0
 149 345 141 341 134 336 c 0
 128 330 124 323 122 315 c 0
 121 313 121 311 121 308 c 0
 121 303 123 298 125 294 c 0
 130 288 137 285 146 285 c 0
EndSplineSet
EndChar
StartChar: uni0E2D
Encoding: 205 3629 174
Width: 405
Flags: HW
HStem: 0 59<153 250 250 257> 340 53<173 184>
VStem: 285 67<92 261 261 262>
Fore
146 120 m 1
 140 92 l 2
 138 84 138 78 138 74 c 0
 138 70 138 67 139 66 c 0
 142 61 151 59 166 59 c 2
 263 59 l 2
 277 59 288 61 293 66 c 0
 297 69 302 78 305 92 c 2
 340 261 l 2
 342 269 343 276 343 282 c 0
 343 320 313 339 256 340 c 0
 235 340 213 336 193 327 c 0
 171 316 152 304 136 288 c 1
 101 322 l 1
 118 341 143 358 172 373 c 0
 201 386 233 393 270 393 c 0
 324 393 361 382 384 359 c 0
 402 343 411 321 411 295 c 0
 411 285 409 274 407 262 c 2
 367 76 l 2
 361 45 352 26 337 16 c 0
 324 6 302 0 269 0 c 2
 137 0 l 2
 114 0 97 2 87 6 c 0
 75 9 69 16 67 26 c 0
 66 30 65 34 65 40 c 0
 65 49 67 60 70 73 c 2
 94 189 l 2
 99 211 110 231 128 246 c 0
 146 262 167 270 190 270 c 0
 207 270 222 267 231 259 c 0
 242 252 249 243 251 232 c 0
 253 226 254 221 254 215 c 0
 254 209 253 202 251 195 c 0
 247 175 236 157 220 141 c 0
 203 127 182 119 158 119 c 0
 155 119 153 119 151 120 c 0
 149 120 147 120 146 120 c 1
169 165 m 0
 180 165 187 168 194 174 c 0
 200 180 204 186 205 194 c 0
 206 197 206 201 206 204 c 0
 206 208 205 212 203 216 c 0
 198 221 193 224 182 224 c 0
 173 224 166 220 159 215 c 0
 151 209 148 202 146 194 c 0
 146 192 145 189 145 187 c 0
 145 182 147 178 150 174 c 0
 155 168 160 165 169 165 c 0
EndSplineSet
EndChar
StartChar: uni0E2E
Encoding: 206 3630 175
Width: 405
Flags: HW
HStem: 0 59<153 251 251 258> 257 42 353 46<167 190>
VStem: 285 67<92 277 277 277>
Fore
478 364 m 1
 459 344 440 325 417 310 c 1
 367 76 l 2
 361 45 352 26 337 16 c 0
 324 6 302 0 269 0 c 2
 137 0 l 2
 114 0 97 2 87 6 c 0
 75 9 69 15 66 25 c 0
 65 28 65 32 65 37 c 0
 65 46 66 58 69 71 c 2
 88 158 l 2
 93 182 104 201 121 217 c 0
 138 233 158 241 184 241 c 0
 205 241 221 234 230 220 c 0
 237 210 240 197 240 184 c 0
 240 179 240 175 239 170 c 0
 235 150 226 132 210 118 c 0
 195 103 175 96 153 95 c 0
 151 95 149 95 147 96 c 0
 143 96 141 96 141 97 c 1
 137 79 l 2
 136 74 135 69 135 66 c 0
 135 64 136 62 137 61 c 0
 141 60 150 59 166 59 c 2
 264 59 l 2
 279 59 289 61 293 66 c 0
 297 69 302 78 305 92 c 2
 344 277 l 1
 339 273 328 270 310 264 c 0
 292 259 266 257 229 257 c 0
 194 257 163 262 139 272 c 0
 119 280 109 293 109 310 c 0
 109 313 109 317 110 321 c 0
 114 337 123 350 140 363 c 0
 157 375 176 384 197 390 c 0
 217 396 239 399 259 399 c 0
 299 399 329 393 350 383 c 0
 372 373 384 364 391 357 c 1
 398 363 414 377 441 403 c 1
 478 364 l 1
161 142 m 0
 169 142 177 145 182 150 c 0
 188 156 191 162 193 168 c 0
 193 170 193 171 193 173 c 0
 193 178 192 182 190 186 c 0
 187 192 180 194 172 194 c 0
 164 194 157 192 152 188 c 0
 146 182 142 176 141 168 c 0
 140 166 140 164 140 162 c 0
 140 158 142 154 145 150 c 0
 149 145 153 142 161 142 c 0
238 298 m 0
 240 298 243 298 245 298 c 0
 270 298 293 302 309 307 c 0
 328 314 338 319 338 321 c 1
 336 327 328 332 314 340 c 0
 301 348 280 353 251 353 c 0
 233 353 214 350 194 345 c 0
 175 339 165 332 163 323 c 0
 163 320 l 0
 163 307 189 299 238 298 c 0
EndSplineSet
EndChar
StartChar: uni0E2F
Encoding: 207 3631 176
Width: 384
Flags: HW
HStem: -16 23
VStem: 264 66<124 216 216 216>
Fore
100 296 m 1
 119 359 155 391 211 392 c 0
 224 392 237 389 247 382 c 0
 259 375 266 366 269 354 c 0
 272 345 273 337 273 328 c 0
 273 324 273 320 272 315 c 0
 267 294 257 276 239 261 c 0
 222 246 202 240 179 240 c 0
 175 240 172 240 169 241 c 0
 165 241 163 241 161 241 c 1
 163 228 185 221 226 221 c 1
 250 225 275 243 298 273 c 0
 322 304 338 341 348 384 c 1
 412 384 l 1
 356 120 l 2
 347 80 332 51 310 32 c 0
 287 12 249 -3 196 -16 c 1
 193 36 l 1
 221 45 240 53 253 59 c 0
 265 64 273 72 277 80 c 0
 282 89 286 104 290 124 c 2
 310 216 l 1
 302 202 286 190 265 180 c 0
 244 168 221 163 199 163 c 0
 193 163 184 164 174 165 c 0
 145 172 125 186 111 210 c 0
 101 226 96 244 96 263 c 0
 96 274 98 284 100 296 c 1
190 285 m 0
 199 285 206 288 212 294 c 0
 220 299 223 306 225 315 c 0
 226 318 226 320 226 323 c 0
 226 328 225 333 222 337 c 0
 218 342 211 345 202 345 c 0
 193 345 185 341 178 336 c 0
 172 330 168 323 166 315 c 0
 165 313 165 311 165 308 c 0
 165 303 167 298 169 294 c 0
 174 288 181 285 190 285 c 0
EndSplineSet
EndChar
StartChar: uni0E30
Encoding: 208 3632 177
Width: 303
Flags: HW
HStem: 0 157 227 157
VStem: 20 262
Fore
128 157 m 0
 151 157 168 150 178 137 c 0
 186 126 189 114 189 100 c 0
 189 95 189 90 188 85 c 0
 187 80 184 75 182 69 c 0
 179 62 178 58 176 54 c 1
 186 55 198 62 215 75 c 0
 230 87 243 113 252 153 c 1
 315 153 l 1
 304 105 284 68 255 41 c 0
 224 14 181 0 123 0 c 0
 96 0 74 8 57 23 c 0
 44 34 37 48 37 66 c 0
 37 72 38 78 39 84 c 0
 43 105 54 123 70 137 c 0
 85 150 104 157 128 157 c 0
177 384 m 0
 200 384 217 377 226 364 c 0
 234 353 237 341 237 327 c 0
 237 322 237 317 236 311 c 0
 235 306 232 301 230 295 c 0
 227 288 226 284 225 280 c 1
 225 280 l 1
 227 280 233 282 242 286 c 0
 253 292 264 302 275 316 c 0
 286 331 294 351 300 379 c 1
 363 379 l 1
 356 347 346 320 331 298 c 0
 317 277 296 259 269 246 c 0
 243 234 211 227 171 227 c 0
 145 227 123 235 105 250 c 0
 91 261 83 275 83 292 c 0
 83 298 84 304 86 310 c 0
 90 331 102 349 118 364 c 0
 133 377 153 384 177 384 c 0
108 55 m 0
 117 55 125 59 130 64 c 0
 136 70 139 76 141 84 c 0
 141 86 142 88 142 90 c 0
 142 95 141 99 138 103 c 0
 135 108 129 111 120 111 c 0
 111 111 103 108 98 103 c 0
 91 97 87 90 86 84 c 0
 85 81 85 79 85 77 c 0
 85 72 87 68 90 64 c 0
 93 59 99 55 108 55 c 0
156 281 m 0
 164 281 172 285 178 290 c 0
 184 296 187 302 189 310 c 0
 190 313 190 315 190 317 c 0
 190 322 189 326 186 330 c 0
 183 336 177 338 168 338 c 0
 160 338 152 336 146 330 c 0
 139 324 136 318 134 310 c 0
 133 308 133 306 133 303 c 0
 133 299 135 294 138 290 c 0
 142 285 148 281 156 281 c 0
EndSplineSet
EndChar
StartChar: uni0E31
Encoding: 209 3633 178
Width: 0
Flags: HW
VStem: -251 328
Fore
-45 619 m 0
 -23 619 -8 611 2 598 c 0
 8 588 11 577 11 564 c 0
 11 558 10 552 9 545 c 0
 7 538 5 531 0 524 c 0
 -3 518 -6 513 -8 510 c 1
 -7 510 -5 510 -2 508 c 0
 2 507 5 507 9 507 c 0
 28 507 49 514 75 529 c 0
 100 542 126 568 150 607 c 1
 202 588 l 1
 188 560 170 537 148 518 c 0
 125 498 101 483 72 471 c 0
 44 461 16 455 -14 455 c 0
 -25 455 -33 455 -39 457 c 0
 -68 460 -93 470 -113 485 c 0
 -129 496 -137 510 -137 528 c 0
 -137 533 -136 539 -135 545 c 0
 -131 566 -120 584 -105 598 c 0
 -90 611 -71 619 -49 619 c 0
 -48 619 -46 619 -45 619 c 0
-66 519 m 0
 -58 519 -51 521 -44 527 c 0
 -38 532 -35 538 -33 546 c 0
 -32 549 -32 551 -32 553 c 0
 -32 557 -33 561 -36 565 c 0
 -41 571 -46 573 -54 573 c 0
 -62 573 -70 571 -77 565 c 0
 -82 559 -85 554 -87 546 c 0
 -88 543 -88 541 -88 538 c 0
 -88 534 -87 530 -85 527 c 0
 -80 521 -74 519 -66 519 c 0
EndSplineSet
EndChar
StartChar: uni0E32
Encoding: 210 3634 179
Width: 334
Flags: HW
HStem: 0 23 344 52<126 148>
VStem: 215 66<0 279>
Fore
69 292 m 1
 81 316 100 340 127 363 c 0
 153 384 188 396 232 396 c 0
 279 394 311 384 328 365 c 0
 338 353 343 336 343 315 c 0
 343 304 342 292 339 279 c 2
 280 0 l 1
 215 0 l 1
 275 280 l 2
 276 286 277 292 277 297 c 0
 277 328 256 344 214 344 c 0
 175 344 144 321 122 276 c 1
 69 292 l 1
EndSplineSet
EndChar
StartChar: uni0E33
Encoding: 211 3635 180
Width: 334
Flags: HW
HStem: 0 23 344 52<126 148> 454 153<-131 -107>
VStem: 215 66<0 279>
Fore
69 292 m 1
 81 316 100 340 127 363 c 0
 153 384 188 396 232 396 c 0
 279 394 311 384 328 365 c 0
 338 353 343 336 343 315 c 0
 343 304 342 292 339 279 c 2
 280 0 l 1
 215 0 l 1
 275 280 l 2
 276 286 277 292 277 297 c 0
 277 328 256 344 214 344 c 0
 175 344 144 321 122 276 c 1
 69 292 l 1
10 607 m 0
 34 607 52 600 61 585 c 0
 68 575 72 563 72 549 c 0
 72 544 71 537 70 531 c 0
 65 510 55 492 38 477 c 0
 21 462 2 454 -22 454 c 0
 -45 454 -62 462 -73 477 c 0
 -80 487 -83 499 -83 512 c 0
 -83 518 -83 524 -81 531 c 0
 -76 553 -67 571 -50 585 c 0
 -34 600 -13 607 10 607 c 0
-12 501 m 0
 -2 501 5 504 12 510 c 0
 19 515 23 523 25 531 c 0
 26 534 26 536 26 539 c 0
 26 544 25 549 22 553 c 0
 17 558 11 560 1 560 c 0
 -9 560 -15 558 -21 553 c 0
 -29 547 -32 539 -34 531 c 0
 -35 528 -35 525 -35 522 c 0
 -35 517 -34 513 -31 510 c 0
 -27 504 -22 501 -12 501 c 0
EndSplineSet
EndChar
StartChar: uni0E34
Encoding: 212 3636 181
Width: 0
Flags: HW
VStem: -355 303
Fore
-62 614 m 0
 -35 612 -12 605 4 591 c 0
 19 579 30 563 36 546 c 0
 40 531 44 515 44 498 c 0
 44 492 l 0
 44 472 44 458 44 450 c 1
 33 453 18 459 -5 466 c 0
 -28 471 -55 477 -84 481 c 0
 -105 485 -130 486 -158 486 c 0
 -179 486 -199 485 -216 484 c 0
 -233 483 -246 481 -253 480 c 1
 -244 505 -230 528 -212 548 c 0
 -192 567 -171 583 -144 596 c 0
 -118 608 -90 614 -62 614 c 0
-72 568 m 1
 -93 568 -112 565 -129 557 c 0
 -146 549 -158 541 -164 531 c 1
 -160 532 -155 532 -146 533 c 0
 -138 533 -129 533 -119 533 c 0
 -108 533 -96 532 -79 531 c 0
 -58 529 -39 525 -28 522 c 0
 -15 518 -7 514 -3 512 c 1
 -13 545 -36 564 -72 568 c 1
EndSplineSet
EndChar
StartChar: uni0E35
Encoding: 213 3637 182
Width: 0
Flags: HW
VStem: -90 59<589 657>
Fore
-39 616 m 0
 -17 616 -0 610 11 605 c 0
 23 598 31 592 35 589 c 1
 50 657 l 1
 108 657 l 1
 74 501 l 1
 77 501 78 484 78 450 c 1
 65 453 47 460 20 468 c 0
 -6 476 -34 480 -59 484 c 0
 -79 487 -104 488 -132 488 c 0
 -149 488 -163 488 -174 487 c 0
 -209 484 l 0
 -220 483 -227 483 -228 483 c 1
 -220 507 -206 530 -187 550 c 0
 -168 571 -146 586 -120 598 c 0
 -96 609 -70 616 -44 616 c 0
 -43 616 -41 616 -39 616 c 0
-49 571 m 1
 -68 571 -86 567 -104 559 c 0
 -121 551 -134 542 -139 532 c 1
 -136 533 -130 533 -121 534 c 0
 -113 536 -103 536 -88 536 c 0
 -80 536 -69 534 -55 533 c 0
 -38 531 -26 529 -13 527 c 0
 -3 523 6 521 13 518 c 0
 19 515 22 514 22 514 c 1
 22 514 l 1
 12 547 -11 565 -49 571 c 1
EndSplineSet
EndChar
StartChar: uni0E36
Encoding: 214 3638 183
Width: 0
Flags: HW
VStem: -364 312
Fore
76 607 m 1
 69 573 54 551 33 541 c 1
 35 534 38 523 41 508 c 0
 44 498 45 486 45 472 c 0
 45 465 45 458 44 450 c 1
 32 453 13 460 -14 468 c 0
 -40 476 -68 480 -92 484 c 0
 -113 487 -138 488 -166 488 c 0
 -183 488 -197 488 -208 487 c 0
 -221 486 -231 485 -242 484 c 0
 -252 483 -259 483 -261 483 c 1
 -251 507 -237 530 -219 550 c 0
 -201 571 -179 586 -153 598 c 0
 -127 610 -100 616 -71 616 c 0
 -68 616 -63 616 -58 615 c 0
 -53 614 -51 614 -51 613 c 0
 -51 612 l 0
 -33 646 -7 663 25 663 c 0
 43 663 56 659 66 649 c 0
 73 640 77 629 77 615 c 0
 77 613 76 610 76 607 c 1
-82 571 m 1
 -102 571 -120 567 -138 559 c 0
 -156 551 -166 544 -173 533 c 1
 -168 534 -163 534 -154 536 c 0
 -146 536 -137 536 -127 536 c 0
 -119 536 -105 534 -88 533 c 0
 -67 531 -50 528 -37 524 c 0
 -23 520 -15 516 -12 514 c 1
 -22 547 -46 565 -82 571 c 1
5 580 m 0
 11 580 17 582 21 586 c 0
 24 590 28 594 30 600 c 0
 30 601 30 602 30 604 c 0
 30 607 29 610 27 612 c 0
 25 617 20 619 14 619 c 0
 2 619 -7 612 -9 600 c 0
 -10 597 -10 595 -10 593 c 0
 -10 584 -5 580 5 580 c 0
EndSplineSet
EndChar
StartChar: uni0E37
Encoding: 215 3639 184
Width: 0
Flags: HW
VStem: -88 56<586 657>
Fore
37 586 m 1
 52 657 l 1
 108 657 l 1
 74 501 l 1
 77 501 78 484 78 450 c 1
 65 453 47 460 20 468 c 0
 -6 476 -34 480 -59 484 c 0
 -79 487 -104 488 -132 488 c 0
 -149 488 -163 488 -174 487 c 0
 -209 484 l 0
 -220 483 -227 483 -228 483 c 1
 -204 537 -173 573 -139 590 c 0
 -105 607 -70 616 -36 616 c 1
 -27 657 l 1
 26 657 l 1
 14 602 l 1
 16 601 20 600 24 597 c 0
 29 593 32 590 37 586 c 1
-49 571 m 1
 -68 571 -86 567 -104 559 c 0
 -121 551 -134 542 -139 532 c 1
 -136 533 -130 533 -121 534 c 0
 -113 536 -103 536 -88 536 c 0
 -80 536 -69 534 -55 533 c 0
 -38 531 -26 529 -13 527 c 0
 -3 523 6 521 13 518 c 0
 19 515 22 514 22 514 c 1
 22 514 l 1
 12 547 -11 565 -49 571 c 1
EndSplineSet
EndChar
StartChar: uni0E38
Encoding: 216 3640 185
Width: 0
Flags: HW
VStem: -115 61<-282 -197 -197 -197>
Fore
-114 -282 m 1
 -175 -282 l 1
 -157 -197 l 1
 -163 -198 -172 -198 -184 -198 c 0
 -198 -197 -208 -192 -216 -184 c 0
 -225 -176 -229 -167 -233 -156 c 0
 -234 -151 -235 -147 -235 -141 c 0
 -235 -135 -234 -129 -233 -122 c 0
 -229 -102 -218 -84 -201 -69 c 0
 -184 -53 -164 -45 -139 -45 c 0
 -126 -45 -114 -47 -104 -53 c 0
 -94 -59 -86 -68 -83 -78 c 0
 -79 -86 -77 -94 -77 -103 c 0
 -77 -107 -77 -111 -78 -115 c 2
 -114 -282 l 1
-162 -151 m 0
 -153 -151 -144 -148 -137 -142 c 0
 -131 -137 -127 -130 -125 -122 c 0
 -124 -120 -124 -118 -124 -115 c 0
 -124 -110 -126 -105 -128 -101 c 0
 -133 -95 -140 -92 -150 -92 c 0
 -160 -92 -167 -95 -174 -101 c 0
 -181 -106 -184 -114 -186 -122 c 0
 -187 -125 -187 -127 -187 -130 c 0
 -187 -134 -186 -139 -183 -142 c 0
 -178 -148 -171 -151 -162 -151 c 0
EndSplineSet
EndChar
StartChar: uni0E39
Encoding: 217 3641 186
Width: 0
Flags: HW
VStem: -115 61<-216 -51>
Fore
-263 -225 m 2
 -257 -197 l 1
 -261 -198 -269 -198 -280 -198 c 0
 -294 -197 -304 -192 -312 -184 c 0
 -321 -176 -325 -167 -329 -156 c 0
 -330 -151 -331 -147 -331 -141 c 0
 -331 -135 -330 -129 -329 -122 c 0
 -325 -102 -314 -84 -297 -69 c 0
 -280 -53 -260 -45 -235 -45 c 0
 -216 -45 -199 -52 -187 -64 c 0
 -177 -74 -173 -86 -173 -100 c 0
 -173 -105 -173 -110 -174 -115 c 2
 -196 -215 l 2
 -196 -217 -197 -219 -197 -221 c 0
 -197 -229 -193 -234 -182 -234 c 0
 -171 -234 -163 -228 -161 -216 c 2
 -126 -51 l 1
 -65 -51 l 1
 -102 -225 l 2
 -106 -244 -117 -260 -137 -271 c 0
 -156 -284 -175 -289 -194 -289 c 0
 -214 -289 -232 -284 -247 -271 c 0
 -258 -262 -264 -250 -264 -236 c 0
 -264 -233 -264 -229 -263 -225 c 2
-258 -151 m 0
 -248 -151 -240 -148 -233 -141 c 0
 -227 -136 -222 -129 -221 -121 c 0
 -220 -119 -220 -117 -220 -115 c 0
 -220 -109 -222 -104 -224 -99 c 0
 -229 -94 -235 -90 -245 -90 c 0
 -255 -90 -263 -94 -270 -99 c 0
 -277 -106 -281 -113 -283 -121 c 0
 -283 -123 -283 -125 -283 -126 c 0
 -283 -132 -282 -137 -279 -141 c 0
 -274 -148 -268 -151 -258 -151 c 0
EndSplineSet
EndChar
StartChar: uni0E3A
Encoding: 218 3642 187
Width: 0
Flags: HW
HStem: -141 23
VStem: -131 78<-108 -99>
Fore
-105 -63 m 0
 -97 -63 -91 -66 -86 -69 c 0
 -81 -72 -77 -77 -76 -84 c 0
 -74 -87 -74 -90 -74 -94 c 0
 -74 -97 -74 -100 -75 -103 c 0
 -77 -113 -82 -122 -91 -130 c 0
 -99 -138 -109 -141 -122 -141 c 0
 -134 -141 -142 -138 -148 -130 c 0
 -152 -124 -154 -118 -154 -112 c 0
 -154 -109 -154 -106 -153 -103 c 0
 -151 -93 -145 -82 -136 -75 c 0
 -127 -67 -117 -63 -105 -63 c 0
EndSplineSet
EndChar
StartChar: dottedcircle
Encoding: 221 9676 188
Width: 428
Flags: HW
HStem: -9 50<223 230> 16 50<122 128> 23 51<310 312> 78 51<55 61> 86 50<366 374> 174 50<390 394> 178 52<30 36> 265 51<366 374> 270 50<59 61> 327 50<302 310> 331 52<128 134> 354 52<222 230>
VStem: 5 50<203 205> 30 50<103 111> 34 51<295 297> 96 51<41 48> 103 51<357 359> 198 51<16 23 381 385> 277 51<351 359> 285 51<48 56> 342 49<111 113 291 297> 365 51<200 206>
Fore
118 305 m 6
199 368 m 6
124 52 m 6
71 114 m 6
316 59 m 6
385 122 m 6
423 303 m 6
372 362 m 6
428 211 m 6
68 215 m 6
298 391 m 6
127 320 m 4
 142 320 151 309 148 295 c 4
 145 281 131 270 116 270 c 4
 102 270 94 281 97 295 c 4
 100 309 113 320 127 320 c 4
122 295 m 4
 122 295 l 4
 122 295 l 4
 122 295 l 4
 122 295 l 4
209 383 m 4
 224 383 233 371 230 357 c 4
 227 343 213 331 198 331 c 4
 184 331 176 343 179 357 c 4
 182 371 195 383 209 383 c 4
204 357 m 4
 204 357 l 4
 204 357 l 4
 204 357 l 4
 204 357 l 4
136 66 m 4
 149 66 159 55 156 41 c 4
 153 27 138 16 125 16 c 4
 110 16 102 27 105 41 c 4
 108 55 121 66 136 66 c 4
131 41 m 4
 131 41 l 4
 131 41 l 4
 131 41 l 4
 131 41 l 4
82 129 m 4
 96 129 105 118 102 103 c 4
 99 88 86 78 72 78 c 4
 57 78 49 88 52 103 c 4
 55 118 67 129 82 129 c 4
77 103 m 4
 77 103 l 4
 77 103 l 4
 77 103 l 4
 77 103 l 4
326 74 m 4
 341 74 349 63 346 48 c 4
 343 34 330 23 315 23 c 4
 301 23 292 34 295 48 c 4
 298 63 312 74 326 74 c 4
320 48 m 4
 320 48 l 4
 320 48 l 4
 320 48 l 4
 320 48 l 4
395 136 m 4
 410 136 418 126 415 111 c 4
 412 97 399 86 384 86 c 4
 370 86 363 97 366 111 c 4
 369 126 381 136 395 136 c 4
390 111 m 4
 390 111 l 4
 390 111 l 4
 390 111 l 4
 390 111 l 4
433 316 m 4
 448 316 456 305 453 291 c 4
 450 277 437 265 422 265 c 4
 408 265 401 277 404 291 c 4
 407 305 419 316 433 316 c 4
428 291 m 4
 428 291 l 4
 428 291 l 4
 428 291 l 4
 428 291 l 4
382 377 m 4
 397 377 406 366 403 351 c 4
 400 338 387 327 372 327 c 4
 358 327 349 338 352 351 c 4
 355 366 368 377 382 377 c 4
377 351 m 4
 377 351 l 4
 377 351 l 4
 377 351 l 4
 377 351 l 4
438 224 m 4
 453 224 461 214 459 200 c 4
 455 185 442 174 427 174 c 4
 414 174 404 185 408 200 c 4
 410 214 425 224 438 224 c 4
433 200 m 4
 433 200 l 4
 433 200 l 4
 433 200 l 4
 433 200 l 4
79 230 m 4
 93 230 101 218 98 203 c 4
 95 190 82 178 68 178 c 4
 54 178 45 190 48 203 c 4
 51 218 65 230 79 230 c 4
73 203 m 4
 73 203 l 4
 73 203 l 4
 73 203 l 4
 73 203 l 4
232 41 m 4
 247 41 255 30 252 16 c 4
 249 1 236 -9 221 -9 c 4
 207 -9 198 1 201 16 c 4
 204 30 218 41 232 41 c 4
226 16 m 4
 226 16 l 4
 226 16 l 4
 226 16 l 4
 226 16 l 4
308 406 m 4
 323 406 332 394 329 381 c 4
 326 366 312 354 297 354 c 4
 283 354 275 366 278 381 c 4
 281 394 294 406 308 406 c 4
303 381 m 4
 303 381 l 4
 303 381 l 4
 303 381 l 4
 303 381 l 4
EndSplineSet
EndChar
StartChar: uni0E3F
Encoding: 223 3647 189
Width: 463
Flags: HW
HStem: 0 80<149 262 262 264> 201 80<149 259 259 264> 389 80<149 149 149 261 261 263>
VStem: 53 96<80 201 281 389> 209 45<-40 514 514 514>
Fore
53 0 m 1
 153 469 l 1
 361 469 l 2
 378 469 397 466 419 460 c 0
 439 454 455 445 465 433 c 1
 476 423 484 411 487 401 c 0
 489 397 489 388 490 375 c 0
 490 363 l 0
 490 355 490 349 490 346 c 0
 486 329 479 313 468 296 c 0
 457 279 442 263 424 250 c 1
 436 240 446 225 452 208 c 0
 457 194 460 179 460 163 c 0
 460 159 459 155 459 151 c 1
 453 124 446 102 433 82 c 0
 421 63 406 46 386 32 c 0
 355 10 315 0 264 0 c 2
 53 0 l 1
318 514 m 1
 365 520 l 1
 245 -40 l 1
 200 -40 l 1
 318 514 l 1
192 201 m 1
 166 80 l 1
 279 80 l 2
 298 80 316 84 333 92 c 0
 349 99 361 118 365 146 c 0
 367 153 367 159 367 164 c 0
 367 176 363 185 355 190 c 0
 345 198 329 201 307 201 c 2
 192 201 l 1
232 389 m 1
 209 281 l 1
 319 281 l 2
 339 281 356 286 369 296 c 0
 383 306 391 319 394 334 c 0
 395 340 396 345 396 350 c 0
 396 376 379 389 346 389 c 2
 232 389 l 1
EndSplineSet
EndChar
StartChar: uni0E40
Encoding: 224 3648 190
Width: 212
Flags: HW
HStem: -5 23
VStem: 54 66<148 384>
Fore
129 -5 m 0
 105 -5 88 3 77 18 c 0
 71 28 68 40 68 53 c 0
 68 59 68 66 70 73 c 2
 136 384 l 1
 202 384 l 1
 151 148 l 1
 161 148 l 2
 186 148 204 139 213 127 c 0
 220 117 223 105 223 90 c 0
 223 85 223 79 222 73 c 0
 217 52 207 33 190 18 c 0
 173 2 153 -5 129 -5 c 0
140 42 m 0
 149 42 156 44 164 50 c 0
 170 55 173 63 175 71 c 0
 176 74 176 77 176 80 c 0
 176 85 175 89 174 93 c 0
 169 98 162 101 152 101 c 0
 143 101 135 97 128 92 c 0
 121 86 118 79 116 71 c 0
 115 69 115 67 115 65 c 0
 115 60 117 55 121 51 c 0
 125 45 131 42 140 42 c 0
EndSplineSet
EndChar
StartChar: uni0E41
Encoding: 225 3649 191
Width: 393
Flags: HW
HStem: -5 23
VStem: 54 66<148 384> 236 66<148 384>
Fore
129 -5 m 0
 105 -5 88 3 77 18 c 0
 71 28 68 40 68 53 c 0
 68 59 68 66 70 73 c 2
 136 384 l 1
 202 384 l 1
 151 148 l 1
 161 148 l 2
 186 148 204 139 213 127 c 0
 220 117 223 105 223 90 c 0
 223 85 223 79 222 73 c 0
 217 52 207 33 190 18 c 0
 173 2 153 -5 129 -5 c 0
311 -5 m 0
 287 -5 270 3 261 18 c 0
 253 28 250 40 250 54 c 0
 250 60 250 66 252 73 c 2
 318 384 l 1
 384 384 l 1
 333 148 l 1
 343 148 l 2
 367 148 384 139 393 125 c 0
 401 115 405 101 405 85 c 0
 405 81 404 77 404 73 c 0
 399 52 388 33 371 18 c 0
 355 3 335 -5 311 -5 c 0
140 42 m 0
 149 42 156 44 164 50 c 0
 170 55 173 63 175 71 c 0
 176 74 176 77 176 80 c 0
 176 85 175 89 174 93 c 0
 169 98 162 101 152 101 c 0
 143 101 135 97 128 92 c 0
 121 86 118 79 116 71 c 0
 115 69 115 67 115 65 c 0
 115 60 117 55 121 51 c 0
 125 45 131 42 140 42 c 0
321 42 m 0
 331 42 338 44 344 50 c 0
 351 55 354 63 356 71 c 0
 357 74 357 76 357 79 c 0
 357 84 356 89 353 93 c 0
 350 98 343 101 333 101 c 0
 323 101 316 97 310 92 c 0
 303 86 299 79 297 71 c 0
 296 69 296 67 296 65 c 0
 296 59 298 55 301 51 c 0
 306 45 312 42 321 42 c 0
EndSplineSet
EndChar
StartChar: uni0E42
Encoding: 226 3650 192
Width: 266
Flags: HW
HStem: -5 23
VStem: 99 66<148 519>
Fore
275 519 m 2
 196 148 l 1
 206 148 l 2
 231 148 249 139 259 125 c 0
 265 116 268 104 268 91 c 0
 268 85 268 79 267 73 c 0
 262 52 251 33 236 18 c 0
 219 3 198 -5 174 -5 c 0
 150 -5 133 3 123 18 c 0
 116 28 113 40 113 53 c 0
 113 59 113 66 115 73 c 2
 210 521 l 2
 213 537 214 548 215 555 c 0
 214 562 211 567 207 573 c 0
 201 579 192 584 179 591 c 0
 165 598 140 609 107 625 c 1
 111 631 121 638 135 649 c 0
 147 659 163 670 186 681 c 0
 207 692 227 697 249 697 c 0
 262 697 272 696 279 694 c 0
 285 690 295 686 310 679 c 0
 326 671 337 668 347 668 c 0
 359 668 372 673 389 684 c 1
 402 634 l 1
 378 619 356 611 336 611 c 0
 321 611 304 616 286 625 c 0
 267 634 256 638 250 640 c 0
 242 641 238 642 234 642 c 0
 229 642 224 641 221 640 c 0
 216 637 215 636 214 635 c 1
 238 622 255 611 265 605 c 0
 273 597 278 588 280 575 c 0
 281 571 281 567 281 562 c 0
 281 551 279 536 275 519 c 2
184 44 m 0
 193 44 201 46 206 52 c 0
 212 58 215 63 217 71 c 0
 218 74 218 76 218 78 c 0
 218 83 217 87 214 90 c 0
 211 96 205 98 196 98 c 0
 188 98 180 96 175 90 c 0
 168 85 165 79 163 71 c 0
 162 68 162 66 162 64 c 0
 162 60 164 56 167 52 c 0
 170 46 176 44 184 44 c 0
EndSplineSet
EndChar
StartChar: uni0E43
Encoding: 227 3651 193
Width: 266
Flags: HW
HStem: -5 23 514 186
VStem: 99 67<147 598>
Fore
293 598 m 2
 197 147 l 1
 207 147 l 2
 231 147 248 138 259 125 c 0
 266 115 269 103 269 89 c 0
 269 84 269 78 268 73 c 0
 263 52 252 33 237 18 c 0
 220 3 199 -5 175 -5 c 0
 150 -5 133 3 123 18 c 0
 116 28 113 40 113 54 c 0
 113 60 113 66 115 73 c 2
 226 599 l 2
 229 611 231 622 231 630 c 0
 231 632 231 635 230 637 c 0
 229 645 222 650 208 650 c 0
 197 650 189 649 184 645 c 0
 179 642 176 638 173 636 c 1
 190 636 202 631 208 618 c 0
 212 611 214 603 214 593 c 0
 214 586 213 577 211 568 c 1
 200 532 178 514 145 514 c 0
 130 514 119 518 109 524 c 0
 98 531 92 540 92 553 c 0
 92 558 91 564 91 569 c 0
 91 576 92 584 93 590 c 0
 100 620 116 646 140 668 c 0
 163 689 190 701 220 701 c 0
 251 701 272 692 284 672 c 0
 292 660 296 645 296 628 c 0
 296 618 295 609 293 598 c 2
185 44 m 0
 193 44 201 46 208 52 c 0
 213 58 216 63 218 71 c 0
 219 74 219 76 219 79 c 0
 219 83 218 87 216 90 c 0
 211 96 205 98 197 98 c 0
 189 98 182 96 176 90 c 0
 169 85 166 79 164 71 c 0
 163 68 163 66 163 64 c 0
 163 60 165 56 168 52 c 0
 172 46 177 44 185 44 c 0
156 596 m 0
 152 596 147 593 143 590 c 0
 140 586 138 582 137 577 c 0
 137 575 136 574 136 572 c 0
 136 569 137 567 138 565 c 0
 140 562 144 559 148 559 c 0
 160 559 166 565 169 577 c 0
 169 579 170 582 170 584 c 0
 170 592 166 596 156 596 c 0
EndSplineSet
EndChar
StartChar: uni0E44
Encoding: 228 3652 194
Width: 303
Flags: HW
HStem: -5 23
VStem: 138 66<148 597 597 597>
Fore
265 597 m 1
 211 492 l 2
 201 472 187 462 169 462 c 0
 159 462 152 466 147 471 c 0
 144 478 140 488 140 502 c 2
 132 635 l 2
 131 649 126 658 115 663 c 1
 160 701 l 1
 176 694 183 681 185 662 c 1
 191 559 l 1
 247 669 l 1
 257 689 277 699 302 699 c 0
 316 699 327 695 335 687 c 0
 340 682 343 675 343 666 c 0
 343 661 342 656 341 651 c 2
 234 148 l 1
 243 148 l 2
 268 148 287 139 296 127 c 0
 303 116 306 104 306 89 c 0
 306 84 306 78 305 73 c 0
 300 52 289 33 273 18 c 0
 256 3 235 -5 211 -5 c 0
 188 -5 171 3 161 18 c 0
 155 28 152 40 152 53 c 0
 152 59 152 66 154 73 c 2
 265 597 l 1
223 44 m 0
 232 44 239 46 245 52 c 0
 250 58 254 63 256 71 c 0
 257 73 257 75 257 77 c 0
 257 82 255 86 253 90 c 0
 249 96 244 98 235 98 c 0
 226 98 218 96 212 90 c 0
 207 85 203 79 201 71 c 0
 200 69 200 67 200 65 c 0
 200 60 202 56 204 52 c 0
 208 46 214 44 223 44 c 0
EndSplineSet
EndChar
StartChar: uni0E45
Encoding: 229 3653 195
Width: 334
Flags: HW
HStem: 344 52<126 148>
VStem: 215 66<-200 279>
Fore
69 292 m 1
 81 316 100 340 127 363 c 0
 153 384 188 396 232 396 c 0
 279 394 311 384 328 365 c 0
 338 353 343 336 343 315 c 0
 343 304 342 292 339 279 c 2
 237 -200 l 1
 172 -200 l 1
 275 280 l 2
 276 286 277 292 277 297 c 0
 277 328 256 344 214 344 c 0
 175 344 144 321 122 276 c 1
 69 292 l 1
EndSplineSet
EndChar
StartChar: uni0E46
Encoding: 230 3654 196
Width: 445
Flags: HW
VStem: 325 66<-17 271 271 278>
Fore
273 334 m 1
 260 329 250 320 242 308 c 0
 235 298 231 289 228 284 c 1
 232 285 236 287 244 290 c 0
 250 293 259 294 269 294 c 0
 290 294 306 288 317 276 c 0
 322 267 325 257 325 245 c 0
 325 239 324 233 323 227 c 0
 319 208 310 191 296 177 c 0
 280 164 261 157 240 157 c 0
 213 158 192 168 178 188 c 0
 168 202 162 220 162 241 c 0
 162 248 163 256 164 264 c 0
 171 295 187 323 211 348 c 0
 234 372 259 386 288 392 c 1
 296 388 306 382 317 376 c 0
 328 370 334 366 334 364 c 0
 334 364 l 1
 384 392 l 1
 415 386 435 373 446 354 c 0
 451 342 454 329 454 313 c 0
 454 302 452 290 450 278 c 2
 387 -21 l 2
 379 -58 361 -86 331 -106 c 0
 301 -127 266 -140 227 -147 c 1
 222 -89 l 1
 225 -88 237 -84 258 -78 c 0
 278 -72 292 -66 302 -56 c 0
 312 -49 318 -35 321 -17 c 2
 383 271 l 2
 385 286 387 298 387 306 c 0
 387 308 387 310 387 311 c 0
 386 320 381 328 372 334 c 1
 322 306 l 1
 322 306 l 1
 322 306 316 310 303 316 c 0
 292 324 281 330 273 334 c 1
251 205 m 0
 256 205 262 207 266 211 c 0
 271 215 274 219 275 225 c 0
 275 227 276 230 276 232 c 0
 276 235 275 238 274 240 c 0
 271 243 266 245 259 245 c 0
 252 245 246 243 242 240 c 0
 238 236 235 231 234 225 c 0
 234 222 l 0
 234 218 235 214 237 211 c 0
 239 207 245 205 251 205 c 0
EndSplineSet
EndChar
StartChar: uni0E47
Encoding: 231 3655 197
Width: 0
Flags: HW
VStem: -334 294
Fore
-19 452 m 0
 -31 452 -40 455 -48 461 c 0
 -57 467 -65 473 -74 483 c 0
 -85 493 -93 499 -99 504 c 0
 -104 507 -112 510 -121 510 c 0
 -129 510 -137 503 -146 490 c 0
 -154 477 -160 463 -162 450 c 1
 -177 450 l 1
 -193 458 -204 472 -211 494 c 0
 -216 506 -219 518 -219 530 c 0
 -219 538 -218 546 -216 554 c 0
 -214 566 -210 576 -205 584 c 0
 -193 603 -177 617 -160 625 c 0
 -143 633 -122 636 -94 636 c 0
 -89 636 -84 636 -81 636 c 0
 -77 636 -74 636 -71 635 c 0
 -50 633 -33 632 -17 632 c 0
 2 632 17 635 26 642 c 0
 37 650 45 663 49 684 c 1
 104 684 l 1
 97 647 82 623 61 607 c 0
 41 592 9 583 -34 583 c 0
 -55 583 -70 584 -83 585 c 0
 -109 585 -127 582 -139 576 c 0
 -150 570 -158 556 -162 537 c 1
 -160 541 -154 547 -144 554 c 0
 -135 559 -122 563 -104 563 c 0
 -89 563 -78 560 -71 555 c 0
 -63 549 -58 544 -56 540 c 1
 -43 563 -23 574 7 574 c 0
 26 574 41 568 48 557 c 0
 54 550 57 541 57 529 c 0
 57 524 56 519 55 514 c 0
 52 497 43 483 29 470 c 0
 15 458 -1 452 -19 452 c 0
-10 495 m 0
 2 495 10 502 12 514 c 0
 13 516 13 518 13 520 c 0
 13 523 12 525 10 528 c 0
 8 531 3 532 -2 532 c 0
 -8 532 -14 530 -18 527 c 0
 -22 523 -24 519 -25 514 c 0
 -25 512 -25 510 -25 509 c 0
 -25 500 -21 495 -10 495 c 0
EndSplineSet
EndChar
StartChar: uni0E48
Encoding: 232 3656 198
Width: 0
Flags: HW
HStem: 699 132<-113 -54>
VStem: -113 59<699 832>
Fore
36 699 m 1
 64 832 l 1
 123 832 l 1
 95 699 l 1
 36 699 l 1
EndSplineSet
EndChar
StartChar: uni0E49
Encoding: 233 3657 199
Width: 0
Flags: HW
VStem: -208 234
Fore
76 770 m 0
 70 750 65 738 60 730 c 0
 55 722 50 716 47 715 c 1
 49 715 55 716 64 719 c 0
 72 721 81 724 91 730 c 0
 100 736 108 742 115 750 c 0
 126 763 133 774 136 784 c 0
 140 794 144 809 148 828 c 1
 202 828 l 1
 187 758 154 711 103 689 c 0
 73 676 40 670 10 670 c 0
 0 670 -10 671 -17 672 c 0
 -25 673 -30 673 -33 675 c 1
 -28 694 l 1
 -25 695 -20 698 -15 702 c 0
 -9 705 -5 710 -3 715 c 1
 -4 715 -11 716 -20 720 c 0
 -29 723 -36 729 -41 739 c 0
 -44 745 -45 751 -45 757 c 0
 -45 763 -44 768 -43 775 c 0
 -40 791 -31 805 -18 816 c 0
 -5 827 11 833 28 833 c 0
 47 833 62 826 69 814 c 0
 74 804 77 793 77 782 c 0
 77 778 77 774 76 770 c 0
10 755 m 0
 15 755 22 757 26 760 c 0
 30 764 32 768 34 774 c 0
 34 775 34 777 34 778 c 0
 34 782 33 785 30 788 c 0
 28 791 24 793 19 793 c 0
 6 793 -3 786 -5 774 c 0
 -5 773 -5 772 -5 772 c 0
 -5 768 -4 764 -2 760 c 0
 1 757 4 755 10 755 c 0
EndSplineSet
EndChar
StartChar: uni0E4A
Encoding: 234 3658 200
Width: 0
Flags: HW
VStem: -289 278
Fore
-83 667 m 0
 -102 667 -116 675 -124 692 c 0
 -130 703 -133 715 -133 727 c 0
 -133 734 -132 742 -130 749 c 0
 -125 770 -114 786 -101 800 c 0
 -87 814 -70 820 -51 820 c 0
 -38 820 -28 818 -22 814 c 0
 -17 808 -13 805 -12 801 c 1
 -9 805 -2 808 7 814 c 0
 15 818 24 820 34 820 c 0
 53 820 66 815 74 803 c 0
 79 795 81 786 81 774 c 0
 81 769 80 763 79 756 c 0
 76 742 72 733 69 729 c 0
 66 723 60 716 54 707 c 1
 58 709 62 712 68 716 c 0
 75 720 82 725 87 733 c 0
 98 750 107 766 111 781 c 0
 112 787 113 793 113 800 c 0
 113 802 113 805 113 807 c 1
 159 823 l 1
 160 820 160 817 160 814 c 0
 160 806 158 799 157 792 c 0
 151 762 136 734 117 713 c 0
 102 697 87 687 67 683 c 0
 47 677 22 673 -4 673 c 1
 -3 677 -2 680 -2 683 c 0
 -1 685 -1 687 -1 690 c 1
 3 694 9 699 16 707 c 0
 23 716 30 728 33 741 c 0
 34 748 35 754 35 759 c 0
 35 763 34 766 34 768 c 0
 33 775 27 779 17 779 c 0
 9 779 2 777 -1 774 c 0
 -7 771 -11 767 -13 765 c 1
 -13 765 l 1
 -13 766 -17 768 -24 773 c 0
 -29 779 -39 781 -49 781 c 0
 -66 781 -77 773 -81 758 c 1
 -80 759 -77 759 -73 760 c 0
 -70 762 -65 762 -57 762 c 0
 -44 760 -34 756 -29 747 c 0
 -25 741 -23 733 -23 725 c 0
 -23 721 -24 716 -25 711 c 0
 -27 699 -35 689 -45 680 c 0
 -57 671 -70 667 -83 667 c 0
-71 729 m 0
 -81 729 -88 724 -90 714 c 0
 -90 713 -90 711 -90 710 c 0
 -90 703 -86 699 -77 699 c 0
 -67 699 -61 704 -59 714 c 0
 -59 716 -58 717 -58 719 c 0
 -58 726 -63 729 -71 729 c 0
EndSplineSet
EndChar
StartChar: uni0E4B
Encoding: 235 3659 201
Width: 0
Flags: HW
HStem: 728 52<-167 -111 -54 2>
VStem: -111 56<679 728 780 829>
Fore
44 728 m 1
 -12 728 l 1
 -1 780 l 1
 55 780 l 1
 65 829 l 1
 122 829 l 1
 112 780 l 1
 168 780 l 1
 157 728 l 1
 101 728 l 1
 90 679 l 1
 33 679 l 1
 44 728 l 1
EndSplineSet
EndChar
StartChar: uni0E4C
Encoding: 236 3660 202
Width: 0
Flags: HW
VStem: -241 211
Fore
77 759 m 0
 48 755 29 755 18 754 c 0
 5 753 -3 753 -6 753 c 0
 11 753 22 748 30 738 c 0
 35 731 38 722 38 712 c 0
 38 708 38 705 37 701 c 0
 34 684 26 670 13 659 c 0
 0 646 -14 640 -31 640 c 0
 -33 640 -36 640 -38 640 c 0
 -57 640 -72 647 -80 659 c 0
 -88 668 -92 678 -92 691 c 0
 -92 697 -91 703 -90 709 c 0
 -82 746 -62 772 -30 785 c 0
 -15 791 4 796 28 797 c 0
 52 798 68 801 79 805 c 0
 91 808 97 818 100 834 c 1
 148 834 l 1
 144 815 136 798 124 785 c 0
 113 772 98 762 77 759 c 0
-19 715 m 0
 -31 715 -39 710 -42 697 c 0
 -42 695 -42 694 -42 692 c 0
 -42 683 -37 678 -27 678 c 0
 -21 678 -15 680 -12 684 c 0
 -8 687 -6 692 -5 697 c 0
 -5 699 -4 701 -4 703 c 0
 -4 706 -5 708 -6 710 c 0
 -8 713 -13 715 -19 715 c 0
EndSplineSet
EndChar
StartChar: uni0E4D
Encoding: 237 3661 203
Width: 0
Flags: HW
HStem: 454 153<-144 -120>
VStem: -209 153<521 541>
Fore
-3 607 m 0
 21 607 38 599 48 584 c 0
 55 574 59 561 59 548 c 0
 59 542 58 537 57 531 c 0
 53 511 42 493 24 477 c 0
 8 462 -11 454 -35 454 c 0
 -59 454 -77 462 -88 477 c 0
 -94 488 -98 501 -98 514 c 0
 -98 519 -97 525 -96 531 c 0
 -92 551 -81 570 -65 584 c 0
 -48 599 -27 607 -3 607 c 0
-26 501 m 0
 -17 501 -9 504 -3 510 c 0
 4 515 8 523 10 531 c 0
 11 534 11 536 11 538 c 0
 11 543 9 548 6 551 c 0
 2 557 -4 560 -13 560 c 0
 -22 560 -29 558 -36 553 c 0
 -43 547 -47 539 -49 531 c 0
 -50 528 -50 526 -50 523 c 0
 -50 518 -49 513 -46 510 c 0
 -41 504 -35 501 -26 501 c 0
EndSplineSet
EndChar
StartChar: uni0E4E
Encoding: 238 3662 204
Width: 0
VWidth: 2048
Flags: HW
HStem: 507 45<-206 -190> 621 62<-189 -179> 692 56<-87 -69>
VStem: -284 69<577 588> -159 51<651 679>
Fore
131 659 m 1
 124 661 l 2
 120 663 117 666 115 669 c 0
 111 676 107 681 103 685 c 0
 96 689 88 692 78 692 c 0
 68 692 58 688 50 683 c 0
 40 676 33 664 30 651 c 0
 30 645 l 0
 30 639 31 632 34 624 c 0
 35 623 36 621 36 618 c 0
 36 616 35 612 34 608 c 0
 33 603 29 599 22 594 c 0
 17 590 12 589 7 589 c 0
 0 589 -7 593 -10 602 c 0
 -14 611 -18 616 -25 618 c 0
 -28 620 -36 622 -47 622 c 0
 -57 622 -66 618 -75 612 c 0
 -83 606 -89 596 -92 584 c 0
 -92 582 -93 580 -93 578 c 0
 -93 571 -91 566 -89 562 c 0
 -84 555 -80 551 -73 551 c 0
 -64 551 -56 554 -50 557 c 1
 -36 570 l 1
 -19 562 l 1
 -29 533 l 1
 -48 516 -72 507 -98 507 c 0
 -121 507 -140 515 -150 531 c 0
 -158 541 -162 553 -162 566 c 0
 -162 573 -161 580 -159 588 c 1
 -153 609 l 1
 -152 610 l 1
 -150 617 -145 625 -138 633 c 0
 -126 649 -112 660 -95 670 c 0
 -79 679 -62 684 -44 684 c 0
 -35 684 -25 683 -15 679 c 1
 -11 698 -1 714 16 728 c 0
 34 741 53 748 72 748 c 0
 89 748 104 745 116 739 c 0
 130 732 139 723 146 709 c 0
 148 706 149 701 150 692 c 0
 152 688 153 684 153 681 c 0
 153 679 152 677 152 676 c 0
 149 664 142 659 131 659 c 1
EndSplineSet
EndChar
StartChar: uni0E4F
Encoding: 239 3663 205
Width: 407
VWidth: 2048
Flags: HW
HStem: 0 49<192 207> 95 51<188 198> 293 46<188 198> 385 49<192 207>
VStem: -24 47<217 231> 71 47<211 221> 263 50<211 221> 362 47<217 231>
Fore
253 293 m 4
 213 293 174 259 166 219 c 0
 165 213 164 208 164 203 c 0
 164 171 188 146 222 146 c 0
 263 146 301 179 310 219 c 4
 311 224 312 229 312 234 c 0
 312 267 289 293 253 293 c 4
192 0 m 0
 125 0 76 21 48 64 c 0
 27 95 17 129 17 167 c 0
 17 183 18 200 22 217 c 0
 35 277 65 328 112 371 c 0
 158 412 215 434 284 434 c 0
 329 434 368 424 397 403 c 1
 426 382 443 355 453 323 c 0
 458 305 460 287 460 267 c 0
 460 251 459 234 455 217 c 0
 447 179 430 142 408 111 c 0
 385 79 356 52 318 31 c 1
 280 10 237 0 192 0 c 0
274 385 m 0
 221 385 175 368 140 336 c 0
 102 302 79 261 70 217 c 0
 67 202 65 188 65 174 c 0
 65 160 67 147 71 134 c 0
 78 108 94 88 116 72 c 1
 136 56 166 49 202 49 c 0
 238 49 272 56 300 72 c 0
 331 89 355 111 374 136 c 0
 390 159 402 188 408 217 c 0
 411 230 412 243 412 256 c 0
 412 285 404 312 389 336 c 0
 366 368 328 385 274 385 c 0
212 95 m 0
 187 95 166 101 149 112 c 0
 132 124 124 140 119 158 c 0
 116 169 115 180 115 192 c 0
 115 200 115 209 117 217 c 0
 121 236 131 257 144 276 c 0
 155 294 171 308 193 321 c 0
 217 332 239 338 264 338 c 0
 289 338 309 332 327 321 c 0
 343 308 352 294 358 276 c 0
 361 266 362 255 362 245 c 0
 362 235 361 226 359 217 c 0
 352 184 336 156 310 131 c 0
 283 107 249 95 212 95 c 0
EndSplineSet
EndChar
StartChar: uni0E50
Encoding: 240 3664 206
Width: 395
Flags: HW
HStem: -5 58<185 215> 219 59<185 215>
VStem: 38 324<125 149>
Fore
199 -5 m 0
 148 -5 112 10 89 38 c 0
 73 60 64 83 64 109 c 0
 64 118 65 127 67 137 c 0
 72 160 83 184 100 206 c 0
 117 227 139 245 167 259 c 0
 195 271 225 278 259 278 c 0
 293 278 321 271 343 259 c 0
 365 245 380 227 389 206 c 0
 393 193 395 180 395 166 c 0
 395 156 394 147 392 137 c 0
 387 113 375 89 358 68 c 0
 341 46 319 29 291 16 c 0
 265 3 234 -5 199 -5 c 0
247 219 m 0
 218 219 193 211 172 194 c 0
 152 177 140 158 135 137 c 0
 134 131 133 125 133 119 c 0
 133 104 138 90 148 78 c 0
 160 61 181 53 211 53 c 0
 240 53 266 61 287 78 c 0
 307 95 319 114 324 136 c 0
 325 142 326 148 326 153 c 0
 326 168 321 182 311 194 c 0
 298 211 276 219 247 219 c 0
EndSplineSet
EndChar
StartChar: uni0E51
Encoding: 241 3665 207
Width: 405
Flags: HW
HStem: 227 61<185 199>
VStem: 41 62<129 139>
Fore
133 139 m 0
 131 132 130 125 130 119 c 0
 130 108 133 98 138 90 c 0
 147 78 155 71 165 71 c 1
 161 72 156 77 152 85 c 0
 150 90 149 97 149 107 c 0
 149 112 149 117 150 124 c 0
 155 144 165 162 183 176 c 0
 201 191 219 199 241 199 c 0
 242 199 244 199 245 199 c 0
 270 199 286 190 295 176 c 0
 301 167 304 155 304 142 c 0
 304 135 304 128 302 120 c 0
 295 89 279 63 255 43 c 0
 231 21 201 11 165 11 c 1
 128 15 102 27 84 50 c 0
 72 64 67 83 67 105 c 0
 67 116 68 128 71 141 c 0
 77 168 88 193 108 216 c 0
 128 238 151 257 178 269 c 0
 205 281 232 288 260 288 c 0
 315 287 355 272 379 244 c 0
 395 224 403 199 403 168 c 0
 403 155 401 140 398 124 c 0
 386 60 343 6 276 -38 c 1
 243 2 l 1
 266 17 284 35 301 56 c 0
 319 78 328 101 333 124 c 0
 336 134 337 144 337 153 c 0
 337 162 336 170 333 177 c 0
 328 193 319 205 303 214 c 0
 289 221 271 227 247 227 c 0
 219 227 195 219 174 202 c 0
 152 185 139 165 133 139 c 0
230 147 m 0
 224 147 219 145 214 140 c 0
 209 136 205 131 204 125 c 0
 204 124 204 122 204 121 c 0
 204 118 205 114 207 110 c 0
 210 105 214 103 221 103 c 0
 229 103 234 105 239 110 c 0
 243 114 247 120 248 125 c 0
 248 126 248 128 248 129 c 0
 248 134 247 138 245 141 c 0
 242 145 237 147 230 147 c 0
EndSplineSet
EndChar
StartChar: uni0E52
Encoding: 242 3666 208
Width: 482
Flags: HW
HStem: 0 59<181 182 182 328 328 337> 73 214<216 221>
VStem: 54 66<121 134 134 311 311 318> 374 67<106 189 189 196>
Fore
328 189 m 1
 317 217 302 231 283 231 c 0
 276 231 270 229 265 227 c 0
 262 224 257 221 255 220 c 1
 271 220 283 217 295 210 c 0
 304 203 311 194 316 182 c 0
 317 175 319 167 319 159 c 0
 319 154 318 149 317 144 c 0
 311 122 299 105 284 93 c 0
 269 80 249 73 225 73 c 0
 202 73 184 81 174 98 c 0
 165 110 161 124 161 139 c 0
 161 146 161 153 163 160 c 0
 171 197 187 227 211 251 c 0
 235 275 263 287 292 287 c 0
 311 287 326 282 334 275 c 0
 343 267 347 260 349 254 c 1
 353 260 362 267 373 275 c 0
 385 282 402 287 424 287 c 0
 453 287 471 278 479 260 c 0
 484 249 487 238 487 225 c 0
 487 218 486 210 484 202 c 2
 460 89 l 2
 454 59 441 37 423 23 c 0
 405 8 376 0 339 0 c 2
 182 0 l 2
 134 0 104 9 88 28 c 0
 79 39 75 55 75 75 c 0
 75 89 76 103 80 120 c 2
 120 311 l 2
 122 322 123 331 123 340 c 0
 123 342 123 345 123 347 c 0
 121 356 116 365 105 373 c 1
 164 414 l 1
 175 407 183 397 188 383 c 0
 191 374 193 364 193 354 c 0
 193 347 192 341 191 334 c 2
 148 134 l 2
 145 118 144 105 144 95 c 0
 144 87 144 81 146 76 c 0
 152 64 168 59 194 59 c 2
 341 59 l 2
 360 59 373 62 381 69 c 0
 388 76 393 88 397 106 c 2
 414 189 l 2
 416 200 417 208 417 214 c 0
 417 216 417 218 417 219 c 0
 414 225 406 228 396 228 c 0
 386 228 379 226 372 221 c 0
 366 216 361 210 357 202 c 0
 353 194 352 191 350 190 c 2
 328 189 l 1
249 173 m 0
 242 173 234 171 228 165 c 0
 224 160 221 155 219 148 c 0
 219 146 219 145 219 143 c 0
 219 138 220 134 222 130 c 0
 224 124 231 122 238 122 c 0
 255 123 266 131 269 147 c 0
 270 149 270 152 270 154 c 0
 270 158 269 161 267 165 c 0
 263 171 257 173 249 173 c 0
EndSplineSet
EndChar
StartChar: uni0E53
Encoding: 243 3667 209
Width: 468
Flags: HW
HStem: -2 23 231 56<146 171>
VStem: 42 68<151 163> 218 66<0 163> 365 64
Fore
213 231 m 0
 177 231 153 202 141 146 c 0
 141 147 143 147 146 148 c 0
 150 149 155 150 165 150 c 0
 189 150 206 142 216 127 c 0
 223 116 227 104 227 90 c 0
 227 83 226 76 224 69 c 0
 219 47 208 31 190 18 c 0
 173 5 153 -2 129 -2 c 0
 87 -2 65 25 65 79 c 0
 65 99 68 123 74 151 c 0
 79 174 88 195 102 217 c 0
 118 238 134 255 154 268 c 0
 174 280 194 287 218 287 c 0
 246 287 267 281 278 270 c 0
 291 260 298 251 301 243 c 1
 301 245 304 250 312 258 c 0
 317 264 327 271 339 278 c 0
 350 284 366 287 384 287 c 0
 424 287 448 272 457 242 c 0
 462 226 465 208 465 188 c 0
 465 170 462 151 457 130 c 0
 443 72 424 28 401 0 c 1
 333 0 l 1
 343 10 355 29 367 58 c 0
 380 86 389 113 395 141 c 0
 398 157 400 172 400 184 c 0
 400 191 399 197 398 203 c 0
 395 219 386 227 371 227 c 0
 355 227 344 221 337 211 c 0
 329 201 323 184 319 163 c 2
 284 0 l 1
 218 0 l 1
 253 165 l 2
 255 173 256 180 256 186 c 0
 256 196 253 205 248 212 c 0
 241 225 230 231 213 231 c 0
154 98 m 0
 146 98 139 96 135 92 c 0
 129 86 125 80 124 73 c 0
 123 72 123 70 123 69 c 0
 123 65 125 60 127 56 c 0
 130 51 135 49 143 49 c 0
 151 49 158 51 163 56 c 0
 169 62 172 68 174 73 c 0
 174 79 l 0
 174 84 174 88 173 92 c 0
 168 96 162 98 154 98 c 0
EndSplineSet
EndChar
StartChar: uni0E54
Encoding: 244 3668 210
Width: 477
Flags: HW
HStem: -9 23
VStem: 37 441
Fore
134 138 m 0
 133 132 132 126 132 121 c 0
 132 100 141 86 156 78 c 0
 174 68 198 63 228 63 c 1
 210 69 199 78 193 92 c 0
 189 99 188 108 188 118 c 0
 188 124 188 131 190 139 c 0
 194 158 204 175 221 192 c 0
 236 208 256 216 281 216 c 0
 306 216 323 208 333 192 c 0
 340 179 344 167 344 154 c 0
 344 150 343 145 342 141 c 0
 338 124 332 113 325 105 c 0
 318 97 312 93 307 90 c 1
 315 82 328 77 344 76 c 0
 358 75 374 72 392 70 c 0
 410 67 428 60 445 49 c 1
 408 -9 l 1
 402 -2 392 3 377 8 c 0
 361 11 345 14 327 14 c 0
 310 14 287 11 260 7 c 0
 233 2 208 0 184 0 c 0
 165 0 148 3 132 9 c 0
 116 15 102 24 90 36 c 0
 78 49 71 63 67 81 c 0
 65 89 64 98 64 108 c 0
 64 119 65 131 68 144 c 0
 73 170 85 194 104 217 c 0
 122 238 147 257 175 270 c 0
 204 282 236 289 271 289 c 0
 278 289 289 288 306 287 c 0
 337 284 357 282 366 282 c 0
 392 284 414 288 430 297 c 0
 447 305 460 321 473 344 c 0
 486 366 497 398 509 440 c 1
 570 433 l 1
 567 418 562 401 556 382 c 0
 549 363 540 340 527 315 c 0
 514 290 498 271 480 258 c 0
 448 233 412 220 375 220 c 0
 363 220 349 221 332 224 c 0
 315 225 300 226 289 227 c 0
 283 228 276 228 266 228 c 0
 233 228 205 221 181 208 c 0
 156 193 140 171 134 138 c 0
260 115 m 0
 275 115 285 123 289 139 c 0
 289 140 289 142 289 143 c 0
 289 148 288 151 286 155 c 0
 284 159 278 162 270 162 c 0
 262 162 257 159 252 155 c 0
 248 149 245 145 244 139 c 0
 243 137 243 135 243 132 c 0
 243 129 244 126 245 122 c 0
 248 118 252 115 260 115 c 0
EndSplineSet
EndChar
StartChar: uni0E55
Encoding: 245 3669 211
Width: 491
Flags: HW
HStem: -9 23 220 62<324 340>
VStem: 40 441
Fore
374 282 m 1
 425 282 461 306 481 355 c 0
 492 382 502 410 511 440 c 1
 572 433 l 1
 571 427 568 417 563 401 c 0
 559 385 553 368 546 351 c 0
 539 334 531 318 519 301 c 0
 509 284 497 269 482 258 c 0
 450 233 414 220 377 220 c 0
 365 220 351 221 335 224 c 0
 318 225 305 226 292 227 c 0
 286 228 280 228 269 228 c 0
 236 228 207 221 184 208 c 0
 160 193 142 171 136 138 c 0
 135 132 134 126 134 121 c 0
 134 101 143 87 158 79 c 0
 178 69 201 63 230 63 c 1
 213 69 201 78 195 92 c 0
 192 99 190 106 190 115 c 0
 190 123 191 130 193 139 c 0
 197 158 207 175 223 192 c 0
 238 208 258 216 283 216 c 0
 308 216 325 208 335 192 c 0
 342 179 346 167 346 154 c 0
 346 150 345 145 344 141 c 0
 340 124 335 113 327 105 c 0
 320 97 314 93 309 90 c 1
 318 82 330 77 346 76 c 0
 361 75 377 72 395 70 c 0
 412 67 430 60 447 49 c 1
 410 -9 l 1
 404 -3 393 2 378 7 c 0
 364 11 348 14 330 14 c 0
 313 14 289 11 262 7 c 0
 235 2 210 0 186 0 c 0
 167 0 150 3 134 9 c 0
 118 15 104 24 93 36 c 0
 80 49 73 63 69 81 c 0
 67 88 67 96 67 105 c 0
 67 117 68 130 71 144 c 0
 81 194 104 229 141 250 c 0
 177 270 206 281 228 285 c 1
 228 287 228 290 228 292 c 0
 228 298 229 304 230 310 c 0
 235 332 246 350 266 365 c 0
 283 380 302 386 324 386 c 0
 346 385 363 379 374 364 c 0
 383 353 387 341 387 327 c 0
 387 321 386 316 385 310 c 0
 383 301 380 292 374 282 c 1
262 115 m 0
 277 115 287 123 291 139 c 0
 291 140 291 142 291 143 c 0
 291 148 290 151 288 155 c 0
 286 159 280 162 272 162 c 0
 265 162 259 159 253 155 c 0
 249 149 246 145 245 139 c 0
 244 136 244 133 244 130 c 0
 244 120 250 115 262 115 c 0
302 286 m 0
 310 286 315 288 321 293 c 0
 325 297 328 303 329 308 c 0
 330 311 330 313 330 316 c 0
 330 319 329 323 328 325 c 1
 324 329 319 331 311 331 c 0
 304 331 298 329 293 324 c 0
 288 320 285 314 283 308 c 0
 283 307 283 306 283 304 c 0
 283 300 284 297 286 293 c 0
 289 288 295 286 302 286 c 0
EndSplineSet
EndChar
StartChar: uni0E56
Encoding: 246 3670 212
Width: 351
Flags: HW
HStem: -5 23
VStem: 272 66<140 149>
Fore
219 62 m 1
 222 62 230 66 241 71 c 0
 254 78 266 88 279 101 c 0
 292 113 300 130 304 149 c 0
 306 158 306 166 306 174 c 0
 306 192 302 206 293 216 c 0
 282 230 261 237 229 237 c 0
 223 237 l 0
 204 237 186 232 172 224 c 0
 157 216 147 210 141 205 c 1
 116 205 l 1
 118 219 119 235 119 253 c 0
 119 259 119 266 119 272 c 0
 117 298 115 324 110 350 c 0
 106 375 100 396 94 411 c 1
 156 438 l 1
 162 427 166 403 171 368 c 0
 176 332 179 304 180 282 c 1
 212 295 241 302 269 302 c 0
 297 302 320 296 337 281 c 0
 353 268 365 249 370 226 c 0
 373 213 374 201 374 187 c 0
 374 175 373 163 370 150 c 0
 359 97 334 59 293 34 c 0
 253 8 211 -5 169 -5 c 0
 150 -5 134 0 120 8 c 0
 104 16 92 27 82 42 c 0
 77 51 74 63 74 75 c 0
 74 81 75 88 76 94 c 0
 80 115 91 134 109 151 c 0
 125 167 147 176 170 176 c 0
 171 176 173 176 174 176 c 0
 188 176 202 172 211 165 c 0
 223 159 230 150 233 140 c 0
 237 130 237 119 237 106 c 0
 234 92 229 80 227 75 c 0
 224 69 221 64 219 62 c 1
150 75 m 0
 158 75 164 77 170 82 c 0
 174 87 178 93 179 98 c 0
 179 101 180 103 180 105 c 0
 180 116 173 122 160 122 c 0
 145 122 135 114 132 98 c 0
 132 96 131 95 131 93 c 0
 131 89 132 85 135 82 c 0
 137 77 143 75 150 75 c 0
EndSplineSet
EndChar
StartChar: uni0E57
Encoding: 247 3671 213
Width: 485
Flags: HW
HStem: -12 23
VStem: 386 62<294 316>
Fore
362 70 m 1
 381 78 394 90 404 110 c 0
 413 129 423 153 429 182 c 0
 430 190 432 198 434 207 c 0
 435 215 438 231 442 253 c 0
 444 275 448 290 449 298 c 0
 462 358 483 400 510 425 c 1
 518 419 526 416 534 410 c 0
 543 406 551 400 559 394 c 1
 537 374 521 340 511 293 c 0
 510 285 508 275 506 264 c 0
 504 254 503 245 501 236 c 0
 499 227 498 219 497 214 c 0
 496 208 495 200 492 188 c 0
 485 157 477 130 466 106 c 0
 454 82 439 62 420 45 c 0
 404 31 383 19 358 9 c 0
 333 -1 313 -9 298 -12 c 1
 269 28 l 1
 281 36 291 47 301 62 c 0
 311 76 320 90 327 106 c 0
 333 121 339 137 343 153 c 0
 345 162 346 171 346 179 c 0
 346 187 345 194 344 200 c 0
 340 212 331 218 317 218 c 0
 291 218 275 197 266 154 c 1
 214 154 l 1
 215 158 215 162 215 166 c 0
 215 178 213 188 210 198 c 0
 208 211 199 218 186 218 c 0
 171 218 159 210 146 193 c 0
 133 176 126 160 123 145 c 0
 122 140 121 136 121 133 c 0
 121 130 122 128 122 127 c 1
 123 129 127 132 134 136 c 0
 141 139 152 140 169 140 c 0
 192 140 208 133 217 119 c 0
 223 109 226 99 226 87 c 0
 226 80 225 73 224 66 c 0
 219 44 209 27 194 14 c 0
 177 -1 157 -8 134 -8 c 0
 111 -8 94 0 80 15 c 0
 66 29 57 47 55 71 c 0
 54 81 53 90 53 100 c 0
 53 114 54 129 58 144 c 0
 62 166 73 188 87 209 c 0
 101 228 120 245 141 258 c 0
 160 269 180 275 200 275 c 0
 222 275 237 270 245 262 c 0
 252 254 255 246 257 241 c 1
 261 246 270 254 282 263 c 0
 294 272 311 277 332 277 c 0
 355 277 373 271 385 259 c 0
 397 246 405 232 408 215 c 0
 409 208 409 201 409 193 c 0
 409 182 408 170 406 158 c 0
 402 141 397 127 390 113 c 0
 383 99 376 88 371 80 c 0
 366 73 363 70 362 70 c 1
 362 70 l 1
146 43 m 0
 153 43 159 45 165 50 c 0
 168 54 172 60 173 66 c 0
 173 67 173 69 173 70 c 0
 173 74 172 77 171 81 c 0
 167 86 163 88 156 88 c 0
 149 88 142 86 138 81 c 0
 134 77 130 71 129 66 c 0
 129 64 129 63 129 62 c 0
 129 57 130 53 132 50 c 0
 134 45 139 43 146 43 c 0
EndSplineSet
EndChar
StartChar: uni0E58
Encoding: 248 3672 214
Width: 462
Flags: HW
HStem: 0 279<180 191>
VStem: 37 409
Fore
262 101 m 0
 283 64 305 46 328 46 c 0
 331 46 334 46 338 47 c 0
 340 49 342 50 343 51 c 1
 322 51 307 59 296 73 c 0
 288 84 284 96 284 110 c 0
 284 116 285 122 286 129 c 0
 290 148 303 164 320 179 c 0
 338 192 356 199 375 199 c 0
 392 199 407 193 419 183 c 0
 430 173 437 158 441 141 c 0
 442 133 443 125 443 117 c 0
 443 108 442 99 440 89 c 0
 434 61 420 37 397 19 c 0
 374 0 347 -9 319 -9 c 0
 296 -9 277 -5 262 3 c 0
 247 12 230 32 211 60 c 0
 203 72 198 78 193 78 c 0
 188 78 184 73 181 63 c 0
 181 60 180 56 180 52 c 0
 180 46 181 39 182 32 c 0
 184 19 187 9 191 0 c 1
 112 0 l 1
 80 34 64 72 64 112 c 0
 64 123 66 134 68 146 c 1
 83 190 108 223 142 245 c 0
 177 268 216 279 261 279 c 0
 269 279 280 278 295 277 c 0
 309 275 322 272 335 271 c 0
 345 270 355 269 363 268 c 0
 370 267 378 267 386 267 c 0
 419 267 439 278 447 302 c 0
 449 307 451 315 453 325 c 0
 456 338 457 349 458 362 c 0
 459 374 459 385 459 397 c 0
 460 408 460 416 460 419 c 1
 522 419 l 1
 523 417 523 414 523 409 c 0
 523 400 522 388 521 372 c 0
 519 346 516 323 511 304 c 0
 502 269 486 244 466 229 c 0
 446 215 417 208 381 208 c 0
 362 208 334 210 296 216 c 0
 281 218 268 219 256 219 c 0
 228 219 204 215 185 206 c 0
 166 197 152 182 142 163 c 0
 136 150 133 140 131 132 c 0
 130 126 129 121 129 117 c 0
 129 107 132 99 138 93 c 1
 139 101 143 110 151 122 c 0
 158 134 170 142 187 147 c 1
 206 147 221 142 234 133 c 0
 246 123 256 113 262 101 c 0
354 102 m 0
 362 102 368 104 372 108 c 0
 377 113 380 119 381 124 c 0
 382 126 382 129 382 131 c 0
 382 135 381 138 379 141 c 0
 377 145 371 147 363 147 c 0
 356 147 351 145 346 141 c 0
 342 137 339 131 337 124 c 0
 337 123 337 121 337 120 c 0
 337 116 338 112 339 108 c 0
 342 104 347 102 354 102 c 0
EndSplineSet
EndChar
